{
.appVersion = "1287";
DisplayStrings = (
"Sarcastic\012SUPER\012SEVERAL\012SUMMARY\012HUMAN\012BLACKS\012FUUTON\012HUMAS\012MULIA\012SMART\012CITY\012BEST\012DENPASAR\012AHH\012BOHEMIAN\012ANONYMOUS\012AVEMARIA\012Awesome\012Awoo\012Awe\012Awg\012SMART CITY",
"",
"vwxyz74H\012Denpasar\012Smart City\012balls\012Kasar\012Masa\012mansur\012adsing\012slick\012spark\012sky\012sbubu\012st\012skwo\012super\012skate\012spite\012shoes\012scabard\012bassscbassaeat\012bassp\012smile\012feeling\012king\012ming\012ging\012oink\012\012\012mosaic\012Basah\012\012Smart City\012Ave\012waner\012Wonder",
"PVC\012RVC\012BVBWOMAN\012WMB\012ZOOKEEPER\012DVCXYES\012DVD",
"ACTION\012FT\012GT",
LT,
"REKT\012CT\012GTFO\012GOTG\012GREAT\012GOAL\012GFERRARD",
"vowom\012awva\012ay\012axel\012vo\012dvgx\012ogv\012dweller\012dx",
v,
"Wloop\012PORN\012PICK\012Cb\012Ghe\012Pome\012Pc\012ws\012xs\012FnB\012Federal\012Forward\012Puke\012Dull\012Puma\012Bull\012Rull",
"Display\012ngg\012nano\012Display\012nano\012bendaAR\012AKO\012DENPASAR\012SMART\012AGREGAT\012nama\012hama\012hanya\012variasi\012warna\012\012unggulan\012homicide\012room\012hg\012ra\012bald\012Denpasar"
);
copyright = "Copyright © 2021 by Buda Patrayasa. All rights reserved.";
customParameters = (
{
name = vendorID;
value = BW;
},
{
name = fsType;
value = (
);
}
);
date = "2021-11-26 9:18:01 AM +0000";
designer = "Buda Patrayasa";
designerURL = instagram.com/budapatrayasa;
familyName = "Sewaka Display";
fontMaster = (
{
alignmentZones = (
"{700, 15}",
"{500, 15}",
"{0, -15}",
"{-250, -10}"
);
ascender = 800;
capHeight = 700;
customParameters = (
{
name = typoAscender;
value = 800;
},
{
name = typoDescender;
value = -300;
},
{
name = typoLineGap;
value = 0;
},
{
name = winAscent;
value = 800;
},
{
name = winDescent;
value = -300;
},
{
name = hheaAscender;
value = 800;
},
{
name = hheaDescender;
value = -300;
}
);
descender = -300;
horizontalStems = (
70,
75,
80,
85
);
id = "346FDC19-9F08-4641-B881-745A76183C31";
userData = {

glyphs = (
{
glyphname = A;
lastChange = "2021-12-18 09:34:43 +0000";
layers = (
{
components = (
{
name = stem.up;
transform = "{1, 0, 0.35544, 1, -45, 0}";
},
{
name = stem.up;
transform = "{1, 0, 0.35544, -1, 259, 700}";
}
);
layerId = "346FDC19-9F08-4641-B881-745A76183C31";
paths = (
{
closed = 1;
nodes = (
"214 282 LINE SMOOTH",
"170 282 OFFCURVE",
"148 237 OFFCURVE",
"148 197 CURVE",
"398 197 LINE SMOOTH",
"442 197 OFFCURVE",
"463 241 OFFCURVE",
"464 282 CURVE"
);
}
);
width = 679;
},
{
associatedMasterId = "346FDC19-9F08-4641-B881-745A76183C31";
components = (
{
name = stem.up;
transform = "{1, 0, 0, -1, 397, 700}";
}
);
layerId = "5DEE440B-8697-4178-A095-4BCE9B501D0F";
name = "Dec 1 21, 10:47";
paths = (
{
closed = 1;
nodes = (
"232 392 LINE SMOOTH",
"188 392 OFFCURVE",
"166 347 OFFCURVE",
"166 307 CURVE",
"386 307 LINE SMOOTH",
"430 307 OFFCURVE",
"452 351 OFFCURVE",
"452 392 CURVE"
);
},
{
closed = 1;
nodes = (
"84 0 LINE",
"315 582 LINE SMOOTH",
"333 627 OFFCURVE",
"352 627 OFFCURVE",
"452 627 CURVE",
"452 700 LINE",
"327 700 LINE SMOOTH",
"279 700 OFFCURVE",
"248 663 OFFCURVE",
"229 615 CURVE SMOOTH",
"-14 0 LINE"
);
}
);
width = 628;
}
);
leftKerningGroup = A;
rightKerningGroup = A;
unicode = 0041;
},
{
glyphname = B;
lastChange = "2021-12-05 16:43:21 +0000";
layers = (
{
components = (
{
name = stem.up;
transform = "{1, 0, 0, 1, 21, 0}";
}
);
layerId = "346FDC19-9F08-4641-B881-745A76183C31";
paths = (
{
closed = 1;
nodes = (
"581 385 OFFCURVE",
"624 420 OFFCURVE",
"624 492 CURVE SMOOTH",
"624 635 OFFCURVE",
"499 715 OFFCURVE",
"359 715 CURVE SMOOTH",
"273 715 OFFCURVE",
"206 677 OFFCURVE",
"171 590 CURVE",
"171 540 LINE",
"222 592 OFFCURVE",
"292 630 OFFCURVE",
"369 630 CURVE SMOOTH",
"446 630 OFFCURVE",
"517 555 OFFCURVE",
"549 561 CURVE",
"549 492 LINE SMOOTH",
"549 422 OFFCURVE",
"469 410 OFFCURVE",
"390 410 CURVE SMOOTH",
"171 411 LINE",
"171 330 LINE",
"493 330 LINE SMOOTH",
"542 330 OFFCURVE",
"568 269 OFFCURVE",
"568 201 CURVE SMOOTH",
"568 125 OFFCURVE",
"488 86 OFFCURVE",
"418 85 CURVE",
"171 85 LINE",
"171 0 LINE",
"417 0 LINE",
"589 0 OFFCURVE",
"663 92 OFFCURVE",
"663 202 CURVE SMOOTH",
"663 297 OFFCURVE",
"567 395 OFFCURVE",
"517 379 CURVE",
"517 367 LINE"
);
}
);
width = 701;
},
{
associatedMasterId = "346FDC19-9F08-4641-B881-745A76183C31";
components = (
{
name = stem.up;
}
);
layerId = "A0478DEC-717C-43B0-88A4-5878BB20C351";
name = "Dec 1 21, 02:40";
paths = (
{
closed = 1;
nodes = (
"515 390 OFFCURVE",
"515 393 OFFCURVE",
"529 406 CURVE",
"453 436 LINE",
"418 419 OFFCURVE",
"364 405 OFFCURVE",
"316 405 CURVE SMOOTH",
"150 406 LINE",
"150 325 LINE",
"419 325 LINE SMOOTH",
"458 325 OFFCURVE",
"494 249 OFFCURVE",
"494 211 CURVE SMOOTH",
"494 155 OFFCURVE",
"460 84 OFFCURVE",
"400 84 CURVE SMOOTH",
"324 84 OFFCURVE",
"200 129 OFFCURVE",
"150 151 CURVE",
"150 87 LINE",
"175 68 OFFCURVE",
"299 -15 OFFCURVE",
"368 -15 CURVE",
"540 -15 OFFCURVE",
"589 102 OFFCURVE",
"589 212 CURVE SMOOTH",
"589 286 OFFCURVE",
"540 369 OFFCURVE",
"494 379 CURVE"
);
},
{
closed = 1;
nodes = (
"519 393 LINE",
"538 420 OFFCURVE",
"548 453 OFFCURVE",
"548 492 CURVE SMOOTH",
"548 554 OFFCURVE",
"525 594 OFFCURVE",
"485 640 CURVE SMOOTH",
"437 696 OFFCURVE",
"366 715 OFFCURVE",
"285 715 CURVE SMOOTH",
"202 715 OFFCURVE",
"121 600 OFFCURVE",
"97 548 CURVE",
"97 540 LINE",
"148 577 OFFCURVE",
"219 630 OFFCURVE",
"295 620 CURVE SMOOTH",
"372 610 OFFCURVE",
"443 555 OFFCURVE",
"475 561 CURVE",
"475 492 LINE SMOOTH",
"475 454 OFFCURVE",
"446 418 OFFCURVE",
"400 393 CURVE"
);
}
);
width = 600;
},
{
associatedMasterId = "346FDC19-9F08-4641-B881-745A76183C31";
components = (
{
name = stem.up;
transform = "{1, 0, 0, 1, 21, 0}";
}
);
layerId = "5FDA0A25-734B-40A4-8CC2-2061CD569253";
name = "Dec 1 21, 03:34";
paths = (
{
closed = 1;
nodes = (
"581 385 OFFCURVE",
"622 420 OFFCURVE",
"622 492 CURVE SMOOTH",
"622 635 OFFCURVE",
"499 715 OFFCURVE",
"359 715 CURVE SMOOTH",
"255 715 OFFCURVE",
"206 667 OFFCURVE",
"171 580 CURVE",
"171 540 LINE",
"222 582 OFFCURVE",
"293 630 OFFCURVE",
"369 620 CURVE SMOOTH",
"446 610 OFFCURVE",
"517 555 OFFCURVE",
"549 561 CURVE",
"549 492 LINE SMOOTH",
"549 422 OFFCURVE",
"469 410 OFFCURVE",
"390 410 CURVE SMOOTH",
"171 411 LINE",
"171 330 LINE",
"493 330 LINE SMOOTH",
"542 330 OFFCURVE",
"568 269 OFFCURVE",
"568 201 CURVE SMOOTH",
"568 125 OFFCURVE",
"488 86 OFFCURVE",
"418 85 CURVE",
"171 85 LINE",
"171 0 LINE",
"417 0 LINE",
"589 0 OFFCURVE",
"663 92 OFFCURVE",
"663 202 CURVE SMOOTH",
"663 287 OFFCURVE",
"567 395 OFFCURVE",
"517 379 CURVE",
"517 367 LINE"
);
}
);
width = 702;
},
{
associatedMasterId = "346FDC19-9F08-4641-B881-745A76183C31";
components = (
{
name = stem.up;
transform = "{1, 0, 0, 1, 21, 0}";
}
);
layerId = "817CF04F-885B-449D-8E8A-8E6549573A77";
name = "Dec 1 21, 03:40";
paths = (
{
closed = 1;
nodes = (
"581 385 OFFCURVE",
"622 420 OFFCURVE",
"622 492 CURVE SMOOTH",
"622 635 OFFCURVE",
"509 715 OFFCURVE",
"359 715 CURVE SMOOTH",
"255 715 OFFCURVE",
"206 667 OFFCURVE",
"171 580 CURVE",
"171 540 LINE",
"222 582 OFFCURVE",
"293 630 OFFCURVE",
"369 620 CURVE SMOOTH",
"446 610 OFFCURVE",
"517 555 OFFCURVE",
"549 561 CURVE",
"549 492 LINE SMOOTH",
"549 422 OFFCURVE",
"469 410 OFFCURVE",
"390 410 CURVE SMOOTH",
"171 411 LINE",
"171 330 LINE",
"493 330 LINE SMOOTH",
"532 330 OFFCURVE",
"568 269 OFFCURVE",
"568 201 CURVE SMOOTH",
"568 125 OFFCURVE",
"494 85 OFFCURVE",
"444 84 CURVE SMOOTH",
"318 81 OFFCURVE",
"240 90 OFFCURVE",
"171 130 CURVE",
"171 56 LINE",
"194 37 OFFCURVE",
"303 -15 OFFCURVE",
"412 -15 CURVE SMOOTH",
"584 -15 OFFCURVE",
"663 92 OFFCURVE",
"663 202 CURVE SMOOTH",
"663 287 OFFCURVE",
"567 395 OFFCURVE",
"517 379 CURVE",
"517 367 LINE"
);
}
);
width = 702;
}
);
unicode = 0042;
},
{
glyphname = C;
lastChange = "2021-12-05 18:29:27 +0000";
layers = (
{
layerId = "346FDC19-9F08-4641-B881-745A76183C31";
paths = (
{
closed = 1;
nodes = (
"509 105 OFFCURVE",
"446 81 OFFCURVE",
"394 81 CURVE SMOOTH",
"307 81 OFFCURVE",
"222 149 OFFCURVE",
"157 126 CURVE",
"180 192 OFFCURVE",
"96 389 OFFCURVE",
"198 530 CURVE SMOOTH",
"239 586 OFFCURVE",
"325 619 OFFCURVE",
"402 618 CURVE SMOOTH",
"472 617 OFFCURVE",
"535 587 OFFCURVE",
"546 530 CURVE",
"670 613 OFFCURVE",
"562 715 OFFCURVE",
"400 715 CURVE SMOOTH",
"398 715 LINE SMOOTH",
"181 715 OFFCURVE",
"50 548 OFFCURVE",
"50 349 CURVE SMOOTH",
"50 153 OFFCURVE",
"181 -15 OFFCURVE",
"378 -15 CURVE SMOOTH",
"510 -15 OFFCURVE",
"588 49 OFFCURVE",
"644 145 CURVE",
"559 187 LINE"
);
}
);
width = 682;
}
);
leftKerningGroup = C;
rightKerningGroup = C;
unicode = 0043;
},
{
glyphname = D;
lastChange = "2021-12-05 16:43:21 +0000";
layers = (
{
components = (
{
name = stem.up;
transform = "{1, 0, 0, 1, 21, 0}";
}
);
layerId = "346FDC19-9F08-4641-B881-745A76183C31";
paths = (
{
closed = 1;
nodes = (
"171 533 LINE",
"222 571 OFFCURVE",
"293 625 OFFCURVE",
"379 625 CURVE SMOOTH",
"456 625 OFFCURVE",
"526 550 OFFCURVE",
"559 556 CURVE",
"551 520 OFFCURVE",
"581 435 OFFCURVE",
"583 350 CURVE SMOOTH",
"585 280 OFFCURVE",
"566 214 OFFCURVE",
"513 148 CURVE SMOOTH",
"481 108 OFFCURVE",
"417 84 OFFCURVE",
"371 84 CURVE",
"171 85 LINE",
"171 0 LINE",
"359 0 LINE",
"554 0 OFFCURVE",
"678 148 OFFCURVE",
"678 349 CURVE SMOOTH",
"678 545 OFFCURVE",
"547 715 OFFCURVE",
"359 715 CURVE SMOOTH",
"276 715 OFFCURVE",
"171 636 OFFCURVE",
"171 583 CURVE SMOOTH"
);
}
);
width = 728;
},
{
associatedMasterId = "346FDC19-9F08-4641-B881-745A76183C31";
components = (
{
name = stem.up;
}
);
layerId = "623567A3-4DF3-411E-8416-EA4B506D7180";
name = "Dec 1 21, 03:36";
paths = (
{
closed = 1;
nodes = (
"150 533 LINE",
"201 571 OFFCURVE",
"273 626 OFFCURVE",
"358 615 CURVE SMOOTH",
"435 605 OFFCURVE",
"505 550 OFFCURVE",
"538 556 CURVE",
"523 491 OFFCURVE",
"609 294 OFFCURVE",
"492 148 CURVE SMOOTH",
"460 108 OFFCURVE",
"416 84 OFFCURVE",
"370 84 CURVE SMOOTH",
"294 84 OFFCURVE",
"200 129 OFFCURVE",
"150 151 CURVE",
"150 87 LINE",
"175 68 OFFCURVE",
"269 -15 OFFCURVE",
"338 -15 CURVE SMOOTH",
"533 -15 OFFCURVE",
"657 148 OFFCURVE",
"657 349 CURVE SMOOTH",
"657 545 OFFCURVE",
"526 715 OFFCURVE",
"338 715 CURVE SMOOTH",
"255 715 OFFCURVE",
"150 633 OFFCURVE",
"150 580 CURVE SMOOTH"
);
}
);
width = 726;
}
);
rightKerningGroup = D;
rightMetricsKey = O;
unicode = 0044;
},
{
glyphname = E;
lastChange = "2021-12-05 18:59:04 +0000";
layers = (
{
components = (
{
name = stem.up;
transform = "{1, 0, 0, 1, 21, 0}";
}
);
layerId = "346FDC19-9F08-4641-B881-745A76183C31";
paths = (
{
closed = 1;
nodes = (
"236 85 LINE SMOOTH",
"192 85 OFFCURVE",
"170 40 OFFCURVE",
"170 0 CURVE",
"494 0 LINE SMOOTH",
"538 0 OFFCURVE",
"560 44 OFFCURVE",
"560 85 CURVE"
);
},
{
closed = 1;
nodes = (
"236 403 LINE SMOOTH",
"192 403 OFFCURVE",
"170 358 OFFCURVE",
"170 318 CURVE",
"420 318 LINE SMOOTH",
"464 318 OFFCURVE",
"486 362 OFFCURVE",
"486 403 CURVE"
);
},
{
closed = 1;
nodes = (
"196 700 LINE SMOOTH",
"152 700 OFFCURVE",
"130 655 OFFCURVE",
"130 615 CURVE",
"494 615 LINE SMOOTH",
"538 615 OFFCURVE",
"560 659 OFFCURVE",
"560 700 CURVE"
);
}
);
width = 598;
},
{
associatedMasterId = "346FDC19-9F08-4641-B881-745A76183C31";
components = (
{
name = stem.up;
}
);
layerId = "328D8F39-3E71-4D82-9C52-9E25BC22ADAA";
name = "Dec 1 21, 03:14";
paths = (
{
closed = 1;
nodes = (
"215 85 LINE SMOOTH",
"171 85 OFFCURVE",
"149 40 OFFCURVE",
"149 0 CURVE",
"473 0 LINE SMOOTH",
"517 0 OFFCURVE",
"539 44 OFFCURVE",
"539 85 CURVE"
);
},
{
closed = 1;
nodes = (
"215 85 LINE SMOOTH",
"171 85 OFFCURVE",
"149 40 OFFCURVE",
"149 0 CURVE",
"473 0 LINE SMOOTH",
"517 0 OFFCURVE",
"539 44 OFFCURVE",
"539 85 CURVE"
);
},
{
closed = 1;
nodes = (
"215 403 LINE SMOOTH",
"171 403 OFFCURVE",
"149 358 OFFCURVE",
"149 318 CURVE",
"419 318 LINE SMOOTH",
"463 318 OFFCURVE",
"485 362 OFFCURVE",
"485 403 CURVE"
);
},
{
closed = 1;
nodes = (
"175 700 LINE SMOOTH",
"131 700 OFFCURVE",
"109 655 OFFCURVE",
"109 615 CURVE",
"473 615 LINE SMOOTH",
"517 615 OFFCURVE",
"539 659 OFFCURVE",
"539 700 CURVE"
);
}
);
width = 600;
}
);
leftKerningGroup = E;
rightKerningGroup = E;
unicode = 0045;
},
{
glyphname = F;
lastChange = "2021-12-05 18:37:17 +0000";
layers = (
{
components = (
{
name = stem.up;
transform = "{1, 0, 0, 1, 21, 0}";
}
);
layerId = "346FDC19-9F08-4641-B881-745A76183C31";
paths = (
{
closed = 1;
nodes = (
"236 392 LINE SMOOTH",
"192 392 OFFCURVE",
"170 347 OFFCURVE",
"170 307 CURVE",
"420 307 LINE SMOOTH",
"464 307 OFFCURVE",
"486 351 OFFCURVE",
"486 392 CURVE"
);
},
{
closed = 1;
nodes = (
"196 700 LINE SMOOTH",
"152 700 OFFCURVE",
"130 655 OFFCURVE",
"130 615 CURVE",
"494 615 LINE SMOOTH",
"538 615 OFFCURVE",
"560 659 OFFCURVE",
"560 700 CURVE"
);
}
);
width = 598;
}
);
leftKerningGroup = F;
leftMetricsKey = E;
rightKerningGroup = F;
unicode = 0046;
},
{
glyphname = G;
lastChange = "2021-12-05 18:58:52 +0000";
layers = (
{
layerId = "346FDC19-9F08-4641-B881-745A76183C31";
paths = (
{
closed = 1;
nodes = (
"675 27 LINE SMOOTH",
"666 43 OFFCURVE",
"659 62 OFFCURVE",
"659 82 CURVE SMOOTH",
"659 387 LINE",
"574 387 LINE",
"574 56 LINE SMOOTH",
"574 20 OFFCURVE",
"604 0 OFFCURVE",
"630 0 CURVE SMOOTH",
"690 0 LINE"
);
},
{
closed = 1;
nodes = (
"345 387 LINE",
"345 346 OFFCURVE",
"367 302 OFFCURVE",
"411 302 CURVE",
"574 302 LINE",
"574 387 LINE"
);
},
{
closed = 1;
nodes = (
"574 193 LINE",
"531 121 OFFCURVE",
"447 81 OFFCURVE",
"404 81 CURVE SMOOTH",
"317 81 OFFCURVE",
"222 149 OFFCURVE",
"157 126 CURVE",
"180 192 OFFCURVE",
"96 389 OFFCURVE",
"198 530 CURVE SMOOTH",
"239 586 OFFCURVE",
"325 619 OFFCURVE",
"422 618 CURVE SMOOTH",
"492 617 OFFCURVE",
"555 587 OFFCURVE",
"566 530 CURVE",
"690 613 OFFCURVE",
"582 715 OFFCURVE",
"420 715 CURVE SMOOTH",
"418 715 LINE SMOOTH",
"191 715 OFFCURVE",
"50 548 OFFCURVE",
"50 349 CURVE SMOOTH",
"50 153 OFFCURVE",
"181 -15 OFFCURVE",
"378 -15 CURVE SMOOTH",
"473 -15 OFFCURVE",
"538 38 OFFCURVE",
"574 105 CURVE"
);
}
);
width = 720;
}
);
leftKerningGroup = C;
rightKerningGroup = G;
unicode = 0047;
},
{
glyphname = H;
lastChange = "2021-12-05 18:18:35 +0000";
layers = (
{
components = (
{
alignment = -1;
name = stem.up;
transform = "{1, 0, 0, -1, 485, 700}";
},
{
alignment = -1;
name = stem.up;
transform = "{1, 0, 0, 1, 21, 0}";
}
);
layerId = "346FDC19-9F08-4641-B881-745A76183C31";
paths = (
{
closed = 1;
nodes = (
"237 393 LINE SMOOTH",
"193 393 OFFCURVE",
"171 348 OFFCURVE",
"171 308 CURVE",
"475 308 LINE SMOOTH",
"519 308 OFFCURVE",
"541 352 OFFCURVE",
"541 393 CURVE"
);
}
);
width = 716;
}
);
rightKerningGroup = H;
unicode = 0048;
},
{
glyphname = I;
lastChange = "2021-12-05 18:18:52 +0000";
layers = (
{
components = (
{
alignment = -1;
name = stem.up;
transform = "{1, 0, 0, -1, 82, 700}";
}
);
layerId = "346FDC19-9F08-4641-B881-745A76183C31";
paths = (
{
closed = 1;
nodes = (
"106 700 LINE SMOOTH",
"62 700 OFFCURVE",
"40 670 OFFCURVE",
"40 630 CURVE",
"264 630 LINE SMOOTH",
"308 630 OFFCURVE",
"330 659 OFFCURVE",
"330 700 CURVE"
);
},
{
closed = 1;
nodes = (
"106 70 LINE SMOOTH",
"62 70 OFFCURVE",
"40 40 OFFCURVE",
"40 0 CURVE",
"264 0 LINE SMOOTH",
"308 0 OFFCURVE",
"330 29 OFFCURVE",
"330 70 CURVE"
);
}
);
width = 370;
}
);
rightKerningGroup = I;
unicode = 0049;
},
{
glyphname = J;
lastChange = "2021-12-05 18:30:09 +0000";
layers = (
{
layerId = "346FDC19-9F08-4641-B881-745A76183C31";
paths = (
{
closed = 1;
nodes = (
"213 700 LINE SMOOTH",
"169 700 OFFCURVE",
"147 655 OFFCURVE",
"147 615 CURVE",
"321 615 LINE SMOOTH",
"365 615 OFFCURVE",
"387 659 OFFCURVE",
"387 700 CURVE"
);
},
{
closed = 1;
nodes = (
"388 464 OFFCURVE",
"387 303 OFFCURVE",
"387 204 CURVE SMOOTH",
"387 125 OFFCURVE",
"344 77 OFFCURVE",
"268 72 CURVE",
"132 72 OFFCURVE",
"81 100 OFFCURVE",
"68 169 CURVE",
"-50 90 OFFCURVE",
"40 -15 OFFCURVE",
"216 -15 CURVE SMOOTH",
"393 -15 OFFCURVE",
"482 34 OFFCURVE",
"482 215 CURVE SMOOTH",
"482 700 LINE",
"387 700 LINE"
);
}
);
width = 546;
}
);
leftKerningGroup = J;
rightKerningGroup = J;
unicode = 004A;
},
{
glyphname = K;
lastChange = "2021-12-05 18:34:03 +0000";
layers = (
{
components = (
{
alignment = -1;
name = stem.up;
transform = "{1, 0, 0, 1, 21, 0}";
}
);
layerId = "346FDC19-9F08-4641-B881-745A76183C31";
paths = (
{
closed = 1;
nodes = (
"171 384 LINE",
"171 304 LINE",
"415 304 LINE SMOOTH",
"463 304 OFFCURVE",
"490 299 OFFCURVE",
"490 254 CURVE SMOOTH",
"490 56 LINE SMOOTH",
"490 21 OFFCURVE",
"510 0 OFFCURVE",
"536 0 CURVE SMOOTH",
"619 0 LINE",
"601 27 LINE SMOOTH",
"590 43 OFFCURVE",
"585 62 OFFCURVE",
"585 82 CURVE SMOOTH",
"585 287 LINE SMOOTH",
"585 335 OFFCURVE",
"558 384 OFFCURVE",
"510 384 CURVE SMOOTH"
);
},
{
closed = 1;
nodes = (
"294 384 LINE",
"620 700 LINE",
"498 700 LINE",
"171 384 LINE"
);
}
);
width = 670;
},
{
associatedMasterId = "346FDC19-9F08-4641-B881-745A76183C31";
components = (
{
alignment = -1;
name = stem.up;
transform = "{1, 0, 0, 1, -40, 0}";
}
);
layerId = "A4F3041A-9FFA-4FA6-943F-9CFA9FE9B2D3";
name = "Dec 1 21, 13:42";
paths = (
{
closed = 1;
nodes = (
"110 278 LINE",
"578 700 LINE",
"455 700 LINE",
"110 395 LINE"
);
},
{
closed = 1;
nodes = (
"539 43 OFFCURVE",
"534 62 OFFCURVE",
"534 82 CURVE SMOOTH",
"534 267 LINE SMOOTH",
"534 315 OFFCURVE",
"507 364 OFFCURVE",
"459 364 CURVE SMOOTH",
"110 364 LINE",
"110 279 LINE",
"364 279 LINE SMOOTH",
"412 279 OFFCURVE",
"439 279 OFFCURVE",
"439 234 CURVE SMOOTH",
"439 56 LINE SMOOTH",
"439 21 OFFCURVE",
"459 0 OFFCURVE",
"485 0 CURVE SMOOTH",
"568 0 LINE",
"550 27 LINE SMOOTH"
);
}
);
width = 600;
}
);
leftKerningGroup = K;
rightKerningGroup = K;
unicode = 004B;
},
{
glyphname = L;
lastChange = "2021-12-05 16:43:21 +0000";
layers = (
{
components = (
{
name = stem.up;
transform = "{1, 0, 0, 1, 21, 0}";
}
);
layerId = "346FDC19-9F08-4641-B881-745A76183C31";
paths = (
{
closed = 1;
nodes = (
"236 85 LINE SMOOTH",
"192 85 OFFCURVE",
"170 40 OFFCURVE",
"170 0 CURVE",
"494 0 LINE SMOOTH",
"538 0 OFFCURVE",
"560 44 OFFCURVE",
"560 85 CURVE"
);
}
);
width = 570;
}
);
rightKerningGroup = L;
unicode = 004C;
},
{
glyphname = M;
lastChange = "2021-12-05 18:35:38 +0000";
layers = (
{
components = (
{
alignment = -1;
name = stem.up;
transform = "{1, 0, 0, 1, 21, 0}";
},
{
alignment = -1;
name = stem.up;
transform = "{1, 0, 0, -1, 605, 700}";
}
);
layerId = "346FDC19-9F08-4641-B881-745A76183C31";
paths = (
{
closed = 1;
nodes = (
"150 621 LINE",
"371 0 LINE",
"462 0 LINE",
"680 622 LINE",
"662 700 LINE",
"636 700 OFFCURVE",
"613 670 OFFCURVE",
"598 628 CURVE SMOOTH",
"415 112 LINE",
"207 700 LINE",
"150 700 LINE"
);
}
);
width = 841;
}
);
rightKerningGroup = H;
unicode = 004D;
},
{
glyphname = N;
lastChange = "2021-12-05 18:35:32 +0000";
layers = (
{
components = (
{
alignment = -1;
name = stem.up;
transform = "{1, 0, 0, 1, 21, 0}";
}
);
layerId = "346FDC19-9F08-4641-B881-745A76183C31";
paths = (
{
closed = 1;
nodes = (
"658 43 OFFCURVE",
"651 62 OFFCURVE",
"651 82 CURVE SMOOTH",
"651 700 LINE",
"556 700 LINE",
"556 148 LINE",
"597 123 LINE",
"202 700 LINE",
"145 700 LINE",
"145 636 LINE",
"559 34 LINE",
"575 10 OFFCURVE",
"594 0 OFFCURVE",
"622 0 CURVE SMOOTH",
"682 0 LINE",
"667 27 LINE SMOOTH"
);
}
);
width = 742;
}
);
rightKerningGroup = H;
unicode = 004E;
},
{
glyphname = O;
lastChange = "2021-12-05 19:06:52 +0000";
layers = (
{
layerId = "346FDC19-9F08-4641-B881-745A76183C31";
paths = (
{
closed = 1;
nodes = (
"573 -15 OFFCURVE",
"707 148 OFFCURVE",
"707 349 CURVE SMOOTH",
"707 545 OFFCURVE",
"576 715 OFFCURVE",
"378 715 CURVE SMOOTH",
"185 715 OFFCURVE",
"50 548 OFFCURVE",
"50 349 CURVE SMOOTH",
"50 153 OFFCURVE",
"181 -15 OFFCURVE",
"378 -15 CURVE SMOOTH"
);
},
{
closed = 1;
nodes = (
"420 -1 OFFCURVE",
"224 149 OFFCURVE",
"157 126 CURVE",
"180 192 OFFCURVE",
"96 389 OFFCURVE",
"198 530 CURVE SMOOTH",
"324 704 OFFCURVE",
"523 548 OFFCURVE",
"588 556 CURVE",
"573 492 OFFCURVE",
"661 293 OFFCURVE",
"542 148 CURVE SMOOTH"
);
}
);
width = 757;
}
);
leftKerningGroup = C;
rightKerningGroup = D;
unicode = 004F;
},
{
glyphname = P;
lastChange = "2021-12-05 19:15:44 +0000";
layers = (
{
components = (
{
name = stem.up;
transform = "{1, 0, 0, 1, 21, 0}";
}
);
layerId = "346FDC19-9F08-4641-B881-745A76183C31";
paths = (
{
closed = 1;
nodes = (
"263 715 OFFCURVE",
"182 636 OFFCURVE",
"171 591 CURVE",
"171 533 LINE",
"221 572 OFFCURVE",
"286 630 OFFCURVE",
"389 630 CURVE SMOOTH",
"466 630 OFFCURVE",
"536 555 OFFCURVE",
"569 561 CURVE",
"569 476 LINE SMOOTH",
"569 354 OFFCURVE",
"509 333 OFFCURVE",
"390 329 CURVE",
"171 329 LINE",
"171 244 LINE",
"359 244 LINE",
"503 244 OFFCURVE",
"572 254 OFFCURVE",
"620 344 CURVE SMOOTH",
"677 451 OFFCURVE",
"654 553 OFFCURVE",
"579 640 CURVE SMOOTH",
"531 696 OFFCURVE",
"450 715 OFFCURVE",
"369 715 CURVE"
);
}
);
width = 682;
},
{
associatedMasterId = "346FDC19-9F08-4641-B881-745A76183C31";
components = (
{
name = stem.up;
}
);
layerId = "221AE0E6-9068-4CA1-A17A-FBDBBCE6A1C0";
name = "Dec 1 21, 03:43";
paths = (
{
closed = 1;
nodes = (
"242 715 OFFCURVE",
"161 636 OFFCURVE",
"150 591 CURVE",
"150 533 LINE",
"200 572 OFFCURVE",
"282 631 OFFCURVE",
"368 620 CURVE SMOOTH",
"445 610 OFFCURVE",
"515 555 OFFCURVE",
"548 561 CURVE",
"548 476 LINE SMOOTH",
"548 364 OFFCURVE",
"478 288 OFFCURVE",
"369 284 CURVE SMOOTH",
"295 281 OFFCURVE",
"205 312 OFFCURVE",
"150 328 CURVE",
"150 254 LINE",
"190 235 OFFCURVE",
"289 189 OFFCURVE",
"338 189 CURVE SMOOTH",
"472 189 OFFCURVE",
"558 254 OFFCURVE",
"599 344 CURVE SMOOTH",
"649 455 OFFCURVE",
"633 553 OFFCURVE",
"558 640 CURVE SMOOTH",
"510 696 OFFCURVE",
"429 715 OFFCURVE",
"348 715 CURVE"
);
}
);
width = 655;
}
);
leftKerningGroup = P;
rightKerningGroup = P;
unicode = 0050;
},
{
glyphname = Q;
lastChange = "2021-12-05 19:09:17 +0000";
layers = (
{
layerId = "346FDC19-9F08-4641-B881-745A76183C31";
paths = (
{
closed = 1;
nodes = (
"364 207 LINE",
"367 207 OFFCURVE",
"371 207 OFFCURVE",
"374 207 CURVE SMOOTH",
"499 207 OFFCURVE",
"521 -15 OFFCURVE",
"650 -14 CURVE",
"765 -14 OFFCURVE",
"808 78 OFFCURVE",
"723 171 CURVE",
"723 91 OFFCURVE",
"692 57 OFFCURVE",
"665 57 CURVE",
"637 57 OFFCURVE",
"604 100 OFFCURVE",
"571 156 CURVE",
"540 210 OFFCURVE",
"491 292 OFFCURVE",
"386 292 CURVE SMOOTH",
"379 292 OFFCURVE",
"371 292 OFFCURVE",
"364 291 CURVE"
);
},
{
closed = 1;
nodes = (
"573 -15 OFFCURVE",
"707 148 OFFCURVE",
"707 349 CURVE SMOOTH",
"707 545 OFFCURVE",
"576 715 OFFCURVE",
"378 715 CURVE SMOOTH",
"185 715 OFFCURVE",
"50 548 OFFCURVE",
"50 349 CURVE SMOOTH",
"50 153 OFFCURVE",
"181 -15 OFFCURVE",
"378 -15 CURVE SMOOTH"
);
},
{
closed = 1;
nodes = (
"420 -4 OFFCURVE",
"222 147 OFFCURVE",
"155 124 CURVE",
"178 190 OFFCURVE",
"93 389 OFFCURVE",
"196 532 CURVE SMOOTH",
"323 708 OFFCURVE",
"524 550 OFFCURVE",
"590 558 CURVE",
"575 493 OFFCURVE",
"664 292 OFFCURVE",
"544 146 CURVE SMOOTH"
);
}
);
width = 779;
},
{
associatedMasterId = "346FDC19-9F08-4641-B881-745A76183C31";
layerId = "2BC8E7F5-C1AF-4AB5-8D93-530AAA70DCCC";
name = "Dec 1 21, 03:46";
paths = (
{
closed = 1;
nodes = (
"574 -15 OFFCURVE",
"708 148 OFFCURVE",
"708 349 CURVE SMOOTH",
"708 545 OFFCURVE",
"577 715 OFFCURVE",
"379 715 CURVE SMOOTH",
"186 715 OFFCURVE",
"51 548 OFFCURVE",
"51 349 CURVE SMOOTH",
"51 153 OFFCURVE",
"182 -15 OFFCURVE",
"379 -15 CURVE SMOOTH"
);
},
{
closed = 1;
nodes = (
"421 -1 OFFCURVE",
"225 149 OFFCURVE",
"158 126 CURVE",
"181 192 OFFCURVE",
"97 389 OFFCURVE",
"199 530 CURVE SMOOTH",
"325 704 OFFCURVE",
"525 544 OFFCURVE",
"589 556 CURVE",
"574 491 OFFCURVE",
"662 293 OFFCURVE",
"543 148 CURVE SMOOTH"
);
},
{
closed = 1;
nodes = (
"709 37 OFFCURVE",
"648 56 OFFCURVE",
"583 156 CURVE",
"552 210 OFFCURVE",
"513 292 OFFCURVE",
"398 292 CURVE SMOOTH",
"267 292 OFFCURVE",
"200 191 OFFCURVE",
"155 123 CURVE",
"204 82 LINE",
"263 171 OFFCURVE",
"300 207 OFFCURVE",
"386 207 CURVE SMOOTH",
"511 207 OFFCURVE",
"533 -15 OFFCURVE",
"662 -14 CURVE",
"767 -14 OFFCURVE",
"830 78 OFFCURVE",
"735 171 CURVE"
);
}
);
width = 812;
}
);
leftKerningGroup = C;
leftMetricsKey = O;
rightKerningGroup = Q;
unicode = 0051;
},
{
glyphname = R;
lastChange = "2021-12-05 16:43:21 +0000";
layers = (
{
components = (
{
name = stem.up;
transform = "{1, 0, 0, 1, 21, 0}";
}
);
layerId = "346FDC19-9F08-4641-B881-745A76183C31";
paths = (
{
closed = 1;
nodes = (
"171 540 LINE",
"222 578 OFFCURVE",
"282 630 OFFCURVE",
"369 630 CURVE SMOOTH",
"446 630 OFFCURVE",
"516 555 OFFCURVE",
"549 561 CURVE",
"549 492 LINE SMOOTH",
"549 424 OFFCURVE",
"457 363 OFFCURVE",
"346 363 CURVE",
"171 363 LINE",
"171 280 LINE",
"440 280 LINE SMOOTH",
"479 280 OFFCURVE",
"515 241 OFFCURVE",
"515 203 CURVE SMOOTH",
"515 56 LINE SMOOTH",
"515 21 OFFCURVE",
"535 0 OFFCURVE",
"561 0 CURVE SMOOTH",
"644 0 LINE",
"626 27 LINE SMOOTH",
"615 43 OFFCURVE",
"610 62 OFFCURVE",
"610 82 CURVE SMOOTH",
"610 234 LINE SMOOTH",
"610 287 OFFCURVE",
"561 326 OFFCURVE",
"515 336 CURVE",
"585 360 OFFCURVE",
"622 415 OFFCURVE",
"622 492 CURVE SMOOTH",
"622 554 OFFCURVE",
"599 594 OFFCURVE",
"559 640 CURVE SMOOTH",
"511 696 OFFCURVE",
"430 715 OFFCURVE",
"349 715 CURVE SMOOTH",
"266 715 OFFCURVE",
"195 650 OFFCURVE",
"171 598 CURVE"
);
}
);
width = 674;
},
{
associatedMasterId = "346FDC19-9F08-4641-B881-745A76183C31";
components = (
{
name = stem.up;
}
);
layerId = "1373B7AE-5CB8-4214-BECC-A60212954611";
name = "Dec 1 21, 01:25";
paths = (
{
closed = 1;
nodes = (
"594 43 OFFCURVE",
"589 62 OFFCURVE",
"589 82 CURVE SMOOTH",
"589 259 LINE SMOOTH",
"589 311 OFFCURVE",
"532 335 OFFCURVE",
"484 341 CURVE",
"150 381 LINE",
"150 297 LINE",
"419 264 LINE",
"455 259 OFFCURVE",
"494 246 OFFCURVE",
"494 218 CURVE SMOOTH",
"494 56 LINE SMOOTH",
"494 21 OFFCURVE",
"514 0 OFFCURVE",
"540 0 CURVE SMOOTH",
"623 0 LINE",
"605 27 LINE SMOOTH"
);
},
{
closed = 1;
nodes = (
"493 697 OFFCURVE",
"393 725 OFFCURVE",
"310 712 CURVE",
"224 698 OFFCURVE",
"150 644 OFFCURVE",
"150 569 CURVE SMOOTH",
"150 523 LINE",
"200 562 OFFCURVE",
"262 626 OFFCURVE",
"348 615 CURVE SMOOTH",
"425 605 OFFCURVE",
"495 553 OFFCURVE",
"528 556 CURVE",
"528 476 LINE SMOOTH",
"528 411 OFFCURVE",
"437 360 OFFCURVE",
"325 360 CURVE",
"327 315 LINE",
"449 318 OFFCURVE",
"601 327 OFFCURVE",
"601 476 CURVE SMOOTH",
"601 535 OFFCURVE",
"589 585 OFFCURVE",
"542 640 CURVE"
);
}
);
width = 600;
},
{
associatedMasterId = "346FDC19-9F08-4641-B881-745A76183C31";
components = (
{
name = stem.up;
}
);
layerId = "63FA2A6A-6FCA-4FD5-83EF-076450EFADC0";
name = "Dec 1 21, 02:20";
paths = (
{
closed = 1;
nodes = (
"150 540 LINE",
"201 577 OFFCURVE",
"272 630 OFFCURVE",
"348 620 CURVE SMOOTH",
"425 610 OFFCURVE",
"495 555 OFFCURVE",
"528 561 CURVE",
"528 492 LINE SMOOTH",
"528 424 OFFCURVE",
"436 363 OFFCURVE",
"325 363 CURVE",
"236 363 OFFCURVE",
"177 367 OFFCURVE",
"150 381 CURVE",
"150 295 LINE",
"218 278 OFFCURVE",
"329 285 OFFCURVE",
"419 264 CURVE SMOOTH",
"454 256 OFFCURVE",
"494 241 OFFCURVE",
"494 203 CURVE SMOOTH",
"494 56 LINE SMOOTH",
"494 21 OFFCURVE",
"514 0 OFFCURVE",
"540 0 CURVE SMOOTH",
"623 0 LINE",
"605 27 LINE SMOOTH",
"594 43 OFFCURVE",
"589 62 OFFCURVE",
"589 82 CURVE SMOOTH",
"589 234 LINE SMOOTH",
"589 287 OFFCURVE",
"540 326 OFFCURVE",
"494 336 CURVE",
"564 360 OFFCURVE",
"601 415 OFFCURVE",
"601 492 CURVE SMOOTH",
"601 554 OFFCURVE",
"578 594 OFFCURVE",
"538 640 CURVE SMOOTH",
"490 696 OFFCURVE",
"409 715 OFFCURVE",
"328 715 CURVE SMOOTH",
"245 715 OFFCURVE",
"174 650 OFFCURVE",
"150 598 CURVE"
);
}
);
width = 654;
}
);
rightKerningGroup = R;
unicode = 0052;
},
{
glyphname = S;
lastChange = "2021-12-05 18:50:54 +0000";
layers = (
{
layerId = "346FDC19-9F08-4641-B881-745A76183C31";
paths = (
{
closed = 1;
nodes = (
"286 409 LINE SMOOTH",
"210 426 OFFCURVE",
"131 455 OFFCURVE",
"131 523 CURVE SMOOTH",
"131 593 OFFCURVE",
"224 634 OFFCURVE",
"297 630 CURVE SMOOTH",
"390 625 OFFCURVE",
"446 584 OFFCURVE",
"446 517 CURVE",
"528 570 OFFCURVE",
"515 637 OFFCURVE",
"451 678 CURVE SMOOTH",
"414 702 OFFCURVE",
"363 715 OFFCURVE",
"301 715 CURVE SMOOTH",
"152 715 OFFCURVE",
"36 644 OFFCURVE",
"36 528 CURVE SMOOTH",
"36 423 OFFCURVE",
"111 358 OFFCURVE",
"238 330 CURVE SMOOTH",
"323 311 LINE SMOOTH",
"423 289 OFFCURVE",
"471 247 OFFCURVE",
"471 193 CURVE SMOOTH",
"471 115 OFFCURVE",
"371 80 OFFCURVE",
"286 80 CURVE SMOOTH",
"186 80 OFFCURVE",
"91 135 OFFCURVE",
"91 223 CURVE",
"9 170 OFFCURVE",
"25 107 OFFCURVE",
"86 52 CURVE SMOOTH",
"143 0 OFFCURVE",
"225 -15 OFFCURVE",
"286 -15 CURVE SMOOTH",
"446 -15 OFFCURVE",
"566 66 OFFCURVE",
"566 189 CURVE SMOOTH",
"566 299 OFFCURVE",
"490 364 OFFCURVE",
"359 393 CURVE SMOOTH"
);
}
);
width = 601;
}
);
unicode = 0053;
},
{
glyphname = T;
lastChange = "2021-12-05 18:59:13 +0000";
layers = (
{
components = (
{
name = stem.up;
transform = "{1, 0, 0, 1, 192, 0}";
}
);
layerId = "346FDC19-9F08-4641-B881-745A76183C31";
paths = (
{
closed = 1;
nodes = (
"76 700 LINE SMOOTH",
"32 700 OFFCURVE",
"10 655 OFFCURVE",
"10 615 CURVE",
"514 615 LINE SMOOTH",
"558 615 OFFCURVE",
"579 661 OFFCURVE",
"580 700 CURVE"
);
}
);
width = 591;
}
);
leftKerningGroup = T;
rightKerningGroup = T;
unicode = 0054;
},
{
glyphname = U;
lastChange = "2021-12-05 18:47:50 +0000";
layers = (
{
layerId = "346FDC19-9F08-4641-B881-745A76183C31";
paths = (
{
closed = 1;
nodes = (
"62 266 LINE",
"62 197 OFFCURVE",
"91 132 OFFCURVE",
"132 86 CURVE SMOOTH",
"195 16 OFFCURVE",
"258 -15 OFFCURVE",
"352 -15 CURVE SMOOTH",
"509 -15 OFFCURVE",
"640 105 OFFCURVE",
"640 266 CURVE",
"638 700 LINE",
"543 700 LINE",
"544 574 OFFCURVE",
"545 392 OFFCURVE",
"545 266 CURVE SMOOTH",
"545 169 OFFCURVE",
"447 83 OFFCURVE",
"371 80 CURVE SMOOTH",
"293 77 OFFCURVE",
"206 142 OFFCURVE",
"161 126 CURVE",
"171 154 OFFCURVE",
"163 205 OFFCURVE",
"157 266 CURVE",
"155 618 LINE SMOOTH",
"155 638 OFFCURVE",
"162 657 OFFCURVE",
"171 673 CURVE SMOOTH",
"186 700 LINE",
"106 700 LINE SMOOTH",
"80 700 OFFCURVE",
"60 680 OFFCURVE",
"60 644 CURVE SMOOTH"
);
}
);
width = 700;
}
);
rightKerningGroup = U;
unicode = 0055;
},
{
glyphname = V;
lastChange = "2021-12-05 18:54:51 +0000";
layers = (
{
layerId = "346FDC19-9F08-4641-B881-745A76183C31";
paths = (
{
closed = 1;
nodes = (
"544 716 LINE SMOOTH",
"518 716 OFFCURVE",
"491 696 OFFCURVE",
"480 660 CURVE SMOOTH",
"273 0 LINE",
"368 0 LINE",
"567 634 LINE SMOOTH",
"573 654 OFFCURVE",
"586 673 OFFCURVE",
"600 689 CURVE SMOOTH",
"624 716 LINE"
);
},
{
closed = 1;
nodes = (
"332 27 LINE SMOOTH",
"318 43 OFFCURVE",
"304 62 OFFCURVE",
"298 82 CURVE SMOOTH",
"105 700 LINE",
"10 700 LINE",
"211 56 LINE SMOOTH",
"223 20 OFFCURVE",
"249 0 OFFCURVE",
"275 0 CURVE SMOOTH",
"355 0 LINE"
);
}
);
width = 624;
}
);
unicode = 0056;
},
{
glyphname = W;
lastChange = "2021-12-05 18:55:17 +0000";
layers = (
{
components = (
{
name = stem.up;
transform = "{1, 0, 0.26795, -1, -45, 700}";
}
);
layerId = "346FDC19-9F08-4641-B881-745A76183C31";
paths = (
{
closed = 1;
nodes = (
"821 716 LINE SMOOTH",
"795 716 OFFCURVE",
"763 696 OFFCURVE",
"755 660 CURVE SMOOTH",
"607 0 LINE",
"692 0 LINE",
"841 634 LINE SMOOTH",
"846 654 OFFCURVE",
"861 673 OFFCURVE",
"876 689 CURVE SMOOTH",
"901 716 LINE"
);
},
{
closed = 1;
nodes = (
"655 43 OFFCURVE",
"644 62 OFFCURVE",
"639 82 CURVE SMOOTH",
"503 634 LINE",
"498 669 OFFCURVE",
"494 684 OFFCURVE",
"515 708 CURVE SMOOTH",
"522 716 LINE",
"442 716 LINE SMOOTH",
"416 716 OFFCURVE",
"385 696 OFFCURVE",
"378 660 CURVE SMOOTH",
"243 0 LINE",
"330 0 LINE",
"447 621 LINE",
"428 621 LINE",
"550 56 LINE SMOOTH",
"558 20 OFFCURVE",
"583 0 OFFCURVE",
"609 0 CURVE SMOOTH",
"689 0 LINE",
"668 27 LINE SMOOTH"
);
}
);
width = 906;
}
);
leftKerningGroup = W;
unicode = 0057;
},
{
glyphname = X;
lastChange = "2021-12-05 18:54:49 +0000";
layers = (
{
layerId = "346FDC19-9F08-4641-B881-745A76183C31";
paths = (
{
closed = 1;
nodes = (
"606 680 OFFCURVE",
"616 692 OFFCURVE",
"649 715 CURVE",
"562 715 LINE SMOOTH",
"539 715 OFFCURVE",
"517 714 OFFCURVE",
"498 689 CURVE SMOOTH",
"297 417 LINE",
"348 417 LINE",
"136 700 LINE",
"24 700 LINE",
"269 360 LINE",
"10 0 LINE",
"46 0 LINE SMOOTH",
"99 0 OFFCURVE",
"135 20 OFFCURVE",
"167 63 CURVE SMOOTH",
"321 267 LINE",
"520 0 LINE",
"633 0 LINE",
"374 360 LINE",
"590 659 LINE"
);
}
);
width = 649;
}
);
leftKerningGroup = X;
unicode = 0058;
},
{
glyphname = Y;
lastChange = "2021-12-05 18:54:39 +0000";
layers = (
{
layerId = "346FDC19-9F08-4641-B881-745A76183C31";
paths = (
{
closed = 1;
nodes = (
"498 716 OFFCURVE",
"479 694 OFFCURVE",
"460 660 CURVE SMOOTH",
"296 370 LINE",
"111 700 LINE",
"10 700 LINE",
"212 338 LINE SMOOTH",
"225 315 OFFCURVE",
"236 294 OFFCURVE",
"249 284 CURVE",
"249 56 LINE SMOOTH",
"249 21 OFFCURVE",
"269 0 OFFCURVE",
"295 0 CURVE SMOOTH",
"378 0 LINE",
"360 27 LINE SMOOTH",
"349 43 OFFCURVE",
"344 62 OFFCURVE",
"344 82 CURVE SMOOTH",
"344 277 LINE",
"547 634 LINE SMOOTH",
"563 661 OFFCURVE",
"577 678 OFFCURVE",
"590 691 CURVE SMOOTH",
"616 716 LINE",
"524 716 LINE SMOOTH"
);
}
);
width = 616;
},
{
associatedMasterId = "346FDC19-9F08-4641-B881-745A76183C31";
layerId = "0F973EF9-2635-487F-A812-966D19BE400A";
name = "Dec 2 21, 03:29";
paths = (
{
closed = 1;
nodes = (
"253 287 LINE",
"253 0 LINE",
"347 0 LINE",
"347 287 LINE",
"589 700 LINE",
"486 700 LINE",
"300 371 LINE",
"114 700 LINE",
"11 700 LINE"
);
}
);
visible = 1;
width = 600;
}
);
leftKerningGroup = Y;
rightKerningGroup = Y;
unicode = 0059;
},
{
glyphname = Z;
lastChange = "2021-12-05 16:43:21 +0000";
layers = (
{
layerId = "346FDC19-9F08-4641-B881-745A76183C31";
paths = (
{
closed = 1;
nodes = (
"542 168 LINE",
"519 108 OFFCURVE",
"486 82 OFFCURVE",
"397 82 CURVE SMOOTH",
"177 82 LINE",
"521 564 LINE SMOOTH",
"550 604 OFFCURVE",
"561 639 OFFCURVE",
"561 688 CURVE SMOOTH",
"561 700 LINE",
"200 700 LINE SMOOTH",
"135 700 OFFCURVE",
"88 696 OFFCURVE",
"63 667 CURVE SMOOTH",
"34 634 OFFCURVE",
"37 563 OFFCURVE",
"81 515 CURVE",
"105 588 OFFCURVE",
"155 620 OFFCURVE",
"220 620 CURVE SMOOTH",
"451 620 LINE",
"63 77 LINE",
"63 12 LINE",
"63 0 LINE",
"454 0 LINE SMOOTH",
"518 0 OFFCURVE",
"538 5 OFFCURVE",
"555 27 CURVE SMOOTH",
"575 53 OFFCURVE",
"576 111 OFFCURVE",
"552 151 CURVE SMOOTH"
);
}
);
width = 614;
}
);
leftKerningGroup = Z;
rightKerningGroup = Z;
unicode = 005A;
},
{
glyphname = a;
lastChange = "2021-12-17 16:13:48 +0000";
layers = (
{
components = (
{
name = stem.low;
transform = "{1, 0, 0, -1, 366, 500}";
}
);
layerId = "346FDC19-9F08-4641-B881-745A76183C31";
paths = (
{
closed = 1;
nodes = (
"33 103 OFFCURVE",
"139 -15 OFFCURVE",
"282 -15 CURVE SMOOTH",
"334 -15 OFFCURVE",
"394 27 OFFCURVE",
"431 76 CURVE",
"431 151 LINE",
"428 147 OFFCURVE",
"426 145 OFFCURVE",
"420 139 CURVE SMOOTH",
"303 22 OFFCURVE",
"159 124 OFFCURVE",
"119 82 CURVE",
"160 123 OFFCURVE",
"54 270 OFFCURVE",
"174 380 CURVE",
"267 475 OFFCURVE",
"371 419 OFFCURVE",
"431 418 CURVE",
"431 420 OFFCURVE",
"431 444 OFFCURVE",
"431 445 CURVE",
"402 502 OFFCURVE",
"326 515 OFFCURVE",
"282 515 CURVE SMOOTH",
"131 515 OFFCURVE",
"33 394 OFFCURVE",
"33 249 CURVE SMOOTH"
);
}
);
width = 572;
}
);
leftKerningGroup = a;
leftMetricsKey = o;
rightKerningGroup = a;
unicode = 0061;
},
{
glyphname = b;
lastChange = "2021-12-13 17:06:20 +0000";
layers = (
{
components = (
{
name = stem.low2;
transform = "{1, 0, 0, 1, 5, 0}";
}
);
layerId = "346FDC19-9F08-4641-B881-745A76183C31";
paths = (
{
closed = 1;
nodes = (
"182 15 OFFCURVE",
"259 -15 OFFCURVE",
"304 -15 CURVE",
"455 -15 OFFCURVE",
"553 106 OFFCURVE",
"553 251 CURVE SMOOTH",
"553 397 OFFCURVE",
"447 515 OFFCURVE",
"304 515 CURVE SMOOTH",
"249 515 OFFCURVE",
"196 483 OFFCURVE",
"155 452 CURVE",
"155 418 LINE",
"216 414 OFFCURVE",
"323 481 OFFCURVE",
"418 381 CURVE",
"527 270 OFFCURVE",
"421 124 OFFCURVE",
"462 83 CURVE",
"424 121 OFFCURVE",
"284 22 OFFCURVE",
"172 140 CURVE",
"161 151 OFFCURVE",
"155 157 OFFCURVE",
"155 157 CURVE",
"155 82 LINE"
);
}
);
width = 591;
},
{
associatedMasterId = "346FDC19-9F08-4641-B881-745A76183C31";
components = (
{
name = stem.low2;
}
);
layerId = "E65071D2-E1AD-4FEE-8E34-15B7AEF5D3C1";
name = "Nov 29 21, 22:02";
paths = (
{
closed = 1;
nodes = (
"150 340 LINE",
"158 350 OFFCURVE",
"166 360 OFFCURVE",
"177 370 CURVE",
"289 488 OFFCURVE",
"429 389 OFFCURVE",
"467 427 CURVE",
"426 386 OFFCURVE",
"532 240 OFFCURVE",
"423 129 CURVE",
"328 29 OFFCURVE",
"211 86 OFFCURVE",
"150 82 CURVE",
"150 49 LINE",
"192 19 OFFCURVE",
"244 -15 OFFCURVE",
"299 -15 CURVE SMOOTH",
"442 -15 OFFCURVE",
"548 103 OFFCURVE",
"548 249 CURVE SMOOTH",
"548 394 OFFCURVE",
"450 515 OFFCURVE",
"299 515 CURVE",
"254 515 OFFCURVE",
"177 485 OFFCURVE",
"150 418 CURVE"
);
}
);
width = 587;
}
);
leftKerningGroup = h;
unicode = 0062;
},
{
glyphname = c;
lastChange = "2021-12-05 19:26:32 +0000";
layers = (
{
layerId = "346FDC19-9F08-4641-B881-745A76183C31";
paths = (
{
closed = 1;
nodes = (
"307 1 OFFCURVE",
"166 123 OFFCURVE",
"124 82 CURVE",
"151 109 OFFCURVE",
"128 199 OFFCURVE",
"128 261 CURVE",
"128 347 OFFCURVE",
"169 430 OFFCURVE",
"279 430 CURVE SMOOTH",
"355 430 OFFCURVE",
"407 413 OFFCURVE",
"422 330 CURVE",
"548 414 OFFCURVE",
"443 515 OFFCURVE",
"289 515 CURVE SMOOTH",
"138 515 OFFCURVE",
"34 396 OFFCURVE",
"33 251 CURVE SMOOTH",
"33 105 OFFCURVE",
"149 -15 OFFCURVE",
"291 -15 CURVE SMOOTH",
"376 -15 OFFCURVE",
"451 26 OFFCURVE",
"498 90 CURVE",
"410 127 LINE"
);
}
);
width = 531;
},
{
associatedMasterId = "346FDC19-9F08-4641-B881-745A76183C31";
layerId = "4A0007C1-B599-48FC-9311-C9FEF07B2F77";
name = "Nov 28 21, 22:41";
paths = (
{
closed = 1;
nodes = (
"544 414 OFFCURVE",
"449 515 OFFCURVE",
"295 515 CURVE SMOOTH",
"134 515 OFFCURVE",
"40 396 OFFCURVE",
"39 251 CURVE",
"124 251 LINE",
"124 357 OFFCURVE",
"181 440 OFFCURVE",
"285 440 CURVE SMOOTH",
"381 440 OFFCURVE",
"413 413 OFFCURVE",
"418 330 CURVE"
);
},
{
closed = 1;
nodes = (
"39 251 LINE",
"39 105 OFFCURVE",
"155 -15 OFFCURVE",
"297 -15 CURVE SMOOTH",
"382 -15 OFFCURVE",
"457 26 OFFCURVE",
"504 90 CURVE",
"416 124 LINE",
"303 13 OFFCURVE",
"162 113 OFFCURVE",
"120 72 CURVE",
"147 99 OFFCURVE",
"119 173 OFFCURVE",
"124 251 CURVE"
);
}
);
width = 510;
},
{
associatedMasterId = "346FDC19-9F08-4641-B881-745A76183C31";
layerId = "6DCF7F85-CB6D-4111-8695-D2FB88E51C4C";
name = "Nov 28 21, 22:41";
paths = (
{
closed = 1;
nodes = (
"373 88 OFFCURVE",
"342 62 OFFCURVE",
"285 62 CURVE SMOOTH",
"181 62 OFFCURVE",
"124 145 OFFCURVE",
"124 251 CURVE",
"39 251 LINE",
"40 106 OFFCURVE",
"134 -13 OFFCURVE",
"285 -13 CURVE SMOOTH",
"369 -13 OFFCURVE",
"432 32 OFFCURVE",
"477 100 CURVE",
"402 128 LINE"
);
},
{
closed = 1;
nodes = (
"449 515 OFFCURVE",
"295 515 CURVE SMOOTH",
"134 515 OFFCURVE",
"40 396 OFFCURVE",
"39 251 CURVE",
"124 251 LINE",
"124 357 OFFCURVE",
"181 440 OFFCURVE",
"285 440 CURVE SMOOTH",
"381 440 OFFCURVE",
"413 413 OFFCURVE",
"418 330 CURVE",
"544 414 OFFCURVE"
);
}
);
width = 510;
},
{
associatedMasterId = "346FDC19-9F08-4641-B881-745A76183C31";
layerId = "54F2862A-0C55-48E2-8D58-942403169036";
name = "Nov 28 21, 23:21";
paths = (
{
closed = 1;
nodes = (
"373 88 OFFCURVE",
"342 62 OFFCURVE",
"285 62 CURVE SMOOTH",
"181 62 OFFCURVE",
"124 145 OFFCURVE",
"124 251 CURVE",
"39 251 LINE",
"40 106 OFFCURVE",
"134 -13 OFFCURVE",
"285 -13 CURVE SMOOTH",
"369 -13 OFFCURVE",
"432 32 OFFCURVE",
"477 100 CURVE",
"402 128 LINE"
);
},
{
closed = 1;
nodes = (
"449 515 OFFCURVE",
"295 515 CURVE SMOOTH",
"134 515 OFFCURVE",
"40 396 OFFCURVE",
"39 251 CURVE",
"124 251 LINE",
"124 357 OFFCURVE",
"181 440 OFFCURVE",
"285 440 CURVE SMOOTH",
"371 440 OFFCURVE",
"403 413 OFFCURVE",
"418 330 CURVE",
"544 414 OFFCURVE"
);
}
);
width = 510;
},
{
associatedMasterId = "346FDC19-9F08-4641-B881-745A76183C31";
layerId = "6681FE59-7050-40E1-AC55-2A003A0DF6D9";
name = "Nov 28 21, 23:22";
paths = (
{
closed = 1;
nodes = (
"554 414 OFFCURVE",
"449 515 OFFCURVE",
"295 515 CURVE SMOOTH",
"134 515 OFFCURVE",
"40 396 OFFCURVE",
"39 251 CURVE",
"124 251 LINE",
"124 357 OFFCURVE",
"181 440 OFFCURVE",
"285 440 CURVE SMOOTH",
"361 440 OFFCURVE",
"413 413 OFFCURVE",
"428 330 CURVE"
);
},
{
closed = 1;
nodes = (
"39 251 LINE",
"39 105 OFFCURVE",
"155 -15 OFFCURVE",
"297 -15 CURVE SMOOTH",
"382 -15 OFFCURVE",
"457 26 OFFCURVE",
"504 90 CURVE",
"416 124 LINE",
"303 13 OFFCURVE",
"162 113 OFFCURVE",
"120 72 CURVE",
"147 99 OFFCURVE",
"119 173 OFFCURVE",
"124 251 CURVE"
);
}
);
width = 510;
},
{
associatedMasterId = "346FDC19-9F08-4641-B881-745A76183C31";
layerId = "31ADD890-0EE6-4D61-BB04-8EABB010AF29";
name = "Nov 29 21, 22:06";
paths = (
{
closed = 1;
nodes = (
"554 414 OFFCURVE",
"449 515 OFFCURVE",
"295 515 CURVE SMOOTH",
"134 515 OFFCURVE",
"40 396 OFFCURVE",
"39 251 CURVE",
"134 251 LINE",
"134 357 OFFCURVE",
"181 430 OFFCURVE",
"285 430 CURVE SMOOTH",
"361 430 OFFCURVE",
"413 413 OFFCURVE",
"428 330 CURVE"
);
},
{
closed = 1;
nodes = (
"39 251 LINE",
"39 105 OFFCURVE",
"155 -15 OFFCURVE",
"297 -15 CURVE SMOOTH",
"382 -15 OFFCURVE",
"457 26 OFFCURVE",
"504 90 CURVE",
"416 129 LINE",
"303 18 OFFCURVE",
"162 113 OFFCURVE",
"120 72 CURVE",
"147 99 OFFCURVE",
"129 173 OFFCURVE",
"134 251 CURVE"
);
}
);
width = 510;
}
);
leftKerningGroup = c;
leftMetricsKey = "=o";
rightKerningGroup = c;
unicode = 0063;
},
{
glyphname = d;
lastChange = "2021-12-17 16:12:47 +0000";
layers = (
{
components = (
{
name = stem.low2;
transform = "{1, 0, 0, -1, 371, 700}";
}
);
layerId = "346FDC19-9F08-4641-B881-745A76183C31";
paths = (
{
closed = 1;
nodes = (
"38 103 OFFCURVE",
"144 -15 OFFCURVE",
"287 -15 CURVE SMOOTH",
"339 -15 OFFCURVE",
"399 27 OFFCURVE",
"436 76 CURVE",
"436 151 LINE",
"433 147 OFFCURVE",
"431 145 OFFCURVE",
"425 139 CURVE SMOOTH",
"308 22 OFFCURVE",
"164 124 OFFCURVE",
"124 82 CURVE",
"165 123 OFFCURVE",
"59 270 OFFCURVE",
"179 380 CURVE",
"272 475 OFFCURVE",
"376 419 OFFCURVE",
"436 418 CURVE",
"436 446 LINE",
"408 502 OFFCURVE",
"331 515 OFFCURVE",
"287 515 CURVE SMOOTH",
"136 515 OFFCURVE",
"38 394 OFFCURVE",
"38 249 CURVE SMOOTH"
);
}
);
width = 577;
}
);
leftKerningGroup = d;
unicode = 0064;
},
{
glyphname = e;
lastChange = "2021-12-05 19:29:24 +0000";
layers = (
{
layerId = "346FDC19-9F08-4641-B881-745A76183C31";
paths = (
{
closed = 1;
nodes = (
"292 515 LINE",
"138 509 OFFCURVE",
"41 393 OFFCURVE",
"40 251 CURVE SMOOTH",
"39 105 OFFCURVE",
"156 -15 OFFCURVE",
"298 -15 CURVE SMOOTH",
"383 -15 OFFCURVE",
"458 26 OFFCURVE",
"505 90 CURVE",
"417 127 LINE",
"314 1 OFFCURVE",
"173 123 OFFCURVE",
"131 82 CURVE",
"158 109 OFFCURVE",
"135 199 OFFCURVE",
"135 261 CURVE",
"134 347 OFFCURVE",
"183 434 OFFCURVE",
"292 435 CURVE"
);
},
{
closed = 1;
nodes = (
"292 435 LINE",
"338 435 OFFCURVE",
"377 427 OFFCURVE",
"402 403 CURVE SMOOTH",
"439 367 OFFCURVE",
"430 329 OFFCURVE",
"383 307 CURVE SMOOTH",
"344 289 OFFCURVE",
"231 282 OFFCURVE",
"192 300 CURVE",
"192 175 OFFCURVE",
"505 186 OFFCURVE",
"505 352 CURVE SMOOTH",
"505 463 OFFCURVE",
"408 515 OFFCURVE",
"293 515 CURVE SMOOTH",
"292 515 LINE"
);
}
);
width = 538;
},
{
associatedMasterId = "346FDC19-9F08-4641-B881-745A76183C31";
layerId = "83A7E18A-F14A-450E-80EF-E6A4C40602BD";
name = "Nov 28 21, 22:57";
paths = (
{
closed = 1;
nodes = (
"373 88 OFFCURVE",
"342 62 OFFCURVE",
"285 62 CURVE SMOOTH",
"181 62 OFFCURVE",
"124 145 OFFCURVE",
"124 251 CURVE",
"39 251 LINE",
"40 106 OFFCURVE",
"134 -13 OFFCURVE",
"285 -13 CURVE SMOOTH",
"369 -13 OFFCURVE",
"432 32 OFFCURVE",
"477 100 CURVE",
"402 128 LINE"
);
},
{
closed = 1;
nodes = (
"286 515 LINE",
"131 511 OFFCURVE",
"40 393 OFFCURVE",
"39 251 CURVE",
"124 251 LINE",
"124 357 OFFCURVE",
"181 440 OFFCURVE",
"285 440 CURVE SMOOTH",
"286 440 LINE"
);
},
{
closed = 1;
nodes = (
"286 440 LINE",
"288 440 LINE SMOOTH",
"328 440 OFFCURVE",
"361 428 OFFCURVE",
"387 403 CURVE SMOOTH",
"424 367 OFFCURVE",
"415 317 OFFCURVE",
"368 296 CURVE SMOOTH",
"329 278 OFFCURVE",
"226 282 OFFCURVE",
"187 300 CURVE",
"187 195 OFFCURVE",
"492 175 OFFCURVE",
"492 331 CURVE SMOOTH",
"492 452 OFFCURVE",
"413 515 OFFCURVE",
"288 515 CURVE SMOOTH",
"286 515 LINE"
);
}
);
width = 522;
},
{
associatedMasterId = "346FDC19-9F08-4641-B881-745A76183C31";
layerId = "30729F47-9E09-413C-B043-F3CD390F3209";
name = "Nov 28 21, 23:19";
paths = (
{
closed = 1;
nodes = (
"39 251 LINE",
"39 105 OFFCURVE",
"155 -15 OFFCURVE",
"297 -15 CURVE SMOOTH",
"382 -15 OFFCURVE",
"457 26 OFFCURVE",
"504 90 CURVE",
"416 124 LINE",
"303 13 OFFCURVE",
"162 113 OFFCURVE",
"120 72 CURVE",
"147 99 OFFCURVE",
"119 173 OFFCURVE",
"124 251 CURVE"
);
},
{
closed = 1;
nodes = (
"286 515 LINE",
"131 511 OFFCURVE",
"40 393 OFFCURVE",
"39 251 CURVE",
"124 251 LINE",
"124 357 OFFCURVE",
"181 440 OFFCURVE",
"285 440 CURVE SMOOTH",
"286 440 LINE"
);
},
{
closed = 1;
nodes = (
"286 440 LINE",
"288 440 LINE SMOOTH",
"328 440 OFFCURVE",
"361 428 OFFCURVE",
"387 403 CURVE SMOOTH",
"424 367 OFFCURVE",
"415 317 OFFCURVE",
"368 296 CURVE SMOOTH",
"329 278 OFFCURVE",
"226 282 OFFCURVE",
"187 300 CURVE",
"187 195 OFFCURVE",
"492 175 OFFCURVE",
"492 331 CURVE SMOOTH",
"492 452 OFFCURVE",
"413 515 OFFCURVE",
"288 515 CURVE SMOOTH",
"286 515 LINE"
);
}
);
width = 522;
},
{
associatedMasterId = "346FDC19-9F08-4641-B881-745A76183C31";
layerId = "C1E3B1DA-7A93-49B6-8BDB-8B6B2398051F";
name = "Nov 28 21, 23:44";
paths = (
{
closed = 1;
nodes = (
"39 251 LINE",
"39 105 OFFCURVE",
"155 -15 OFFCURVE",
"297 -15 CURVE SMOOTH",
"382 -15 OFFCURVE",
"457 26 OFFCURVE",
"504 90 CURVE",
"416 124 LINE",
"303 13 OFFCURVE",
"162 113 OFFCURVE",
"120 72 CURVE",
"147 99 OFFCURVE",
"119 173 OFFCURVE",
"124 251 CURVE"
);
},
{
closed = 1;
nodes = (
"286 515 LINE",
"131 511 OFFCURVE",
"40 393 OFFCURVE",
"39 251 CURVE",
"124 251 LINE",
"124 357 OFFCURVE",
"181 440 OFFCURVE",
"285 440 CURVE SMOOTH",
"286 440 LINE"
);
},
{
closed = 1;
nodes = (
"286 440 LINE",
"288 440 LINE SMOOTH",
"328 440 OFFCURVE",
"361 428 OFFCURVE",
"387 403 CURVE SMOOTH",
"424 367 OFFCURVE",
"415 317 OFFCURVE",
"368 296 CURVE SMOOTH",
"329 278 OFFCURVE",
"226 282 OFFCURVE",
"187 300 CURVE",
"187 175 OFFCURVE",
"492 186 OFFCURVE",
"492 352 CURVE SMOOTH",
"492 463 OFFCURVE",
"403 515 OFFCURVE",
"288 515 CURVE SMOOTH",
"286 515 LINE"
);
}
);
width = 529;
},
{
associatedMasterId = "346FDC19-9F08-4641-B881-745A76183C31";
layerId = "EE5FD5A9-E097-4F09-8EA9-74638B2F556A";
name = "Nov 29 21, 03:21";
paths = (
{
closed = 1;
nodes = (
"39 251 LINE",
"39 105 OFFCURVE",
"155 -15 OFFCURVE",
"297 -15 CURVE SMOOTH",
"382 -15 OFFCURVE",
"457 26 OFFCURVE",
"504 90 CURVE",
"416 124 LINE",
"303 13 OFFCURVE",
"162 113 OFFCURVE",
"120 72 CURVE",
"147 99 OFFCURVE",
"119 173 OFFCURVE",
"124 251 CURVE"
);
},
{
closed = 1;
nodes = (
"286 515 LINE",
"131 511 OFFCURVE",
"40 393 OFFCURVE",
"39 251 CURVE",
"124 251 LINE",
"124 357 OFFCURVE",
"181 440 OFFCURVE",
"285 440 CURVE SMOOTH",
"286 440 LINE"
);
},
{
closed = 1;
nodes = (
"286 440 LINE",
"332 440 OFFCURVE",
"372 427 OFFCURVE",
"397 403 CURVE SMOOTH",
"434 367 OFFCURVE",
"425 317 OFFCURVE",
"378 296 CURVE SMOOTH",
"339 278 OFFCURVE",
"226 282 OFFCURVE",
"187 300 CURVE",
"187 175 OFFCURVE",
"505 186 OFFCURVE",
"505 352 CURVE SMOOTH",
"505 463 OFFCURVE",
"403 515 OFFCURVE",
"288 515 CURVE SMOOTH",
"286 515 LINE"
);
}
);
width = 535;
},
{
associatedMasterId = "346FDC19-9F08-4641-B881-745A76183C31";
layerId = "B19CB170-11B2-4524-A9DB-CBC170C3A370";
name = "Nov 29 21, 22:09";
paths = (
{
closed = 1;
nodes = (
"147 99 OFFCURVE",
"129 173 OFFCURVE",
"134 251 CURVE",
"134 357 OFFCURVE",
"181 430 OFFCURVE",
"285 430 CURVE SMOOTH",
"332 430 OFFCURVE",
"372 427 OFFCURVE",
"397 403 CURVE SMOOTH",
"434 367 OFFCURVE",
"425 317 OFFCURVE",
"378 296 CURVE SMOOTH",
"339 278 OFFCURVE",
"226 282 OFFCURVE",
"187 300 CURVE",
"187 175 OFFCURVE",
"505 186 OFFCURVE",
"505 352 CURVE SMOOTH",
"505 463 OFFCURVE",
"403 515 OFFCURVE",
"288 515 CURVE SMOOTH",
"286 515 LINE SMOOTH",
"131 511 OFFCURVE",
"40 393 OFFCURVE",
"39 251 CURVE SMOOTH",
"39 105 OFFCURVE",
"155 -15 OFFCURVE",
"297 -15 CURVE SMOOTH",
"382 -15 OFFCURVE",
"457 26 OFFCURVE",
"504 90 CURVE",
"416 124 LINE",
"303 13 OFFCURVE",
"162 113 OFFCURVE",
"120 72 CURVE SMOOTH"
);
}
);
width = 535;
}
);
leftKerningGroup = c;
rightKerningGroup = e;
unicode = 0065;
},
{
glyphname = f;
lastChange = "2021-12-05 18:29:00 +0000";
layers = (
{
layerId = "346FDC19-9F08-4641-B881-745A76183C31";
paths = (
{
closed = 1;
nodes = (
"178 542 LINE SMOOTH",
"178 611 OFFCURVE",
"204 650 OFFCURVE",
"237 650 CURVE SMOOTH",
"274 650 OFFCURVE",
"302 619 OFFCURVE",
"312 573 CURVE",
"332 590 LINE SMOOTH",
"393 642 OFFCURVE",
"344 715 OFFCURVE",
"240 715 CURVE SMOOTH",
"137 715 OFFCURVE",
"93 649 OFFCURVE",
"93 575 CURVE SMOOTH",
"93 1 LINE",
"178 1 LINE"
);
},
{
closed = 1;
nodes = (
"15 430 LINE",
"259 430 LINE SMOOTH",
"303 430 OFFCURVE",
"335 460 OFFCURVE",
"335 500 CURVE",
"15 500 LINE"
);
}
);
width = 374;
}
);
leftKerningGroup = f;
rightKerningGroup = f;
unicode = 0066;
},
{
glyphname = g;
lastChange = "2021-12-17 16:10:49 +0000";
layers = (
{
layerId = "346FDC19-9F08-4641-B881-745A76183C31";
paths = (
{
closed = 1;
nodes = (
"431 -13 LINE SMOOTH",
"431 -111 OFFCURVE",
"400 -146 OFFCURVE",
"296 -146 CURVE SMOOTH",
"196 -146 OFFCURVE",
"168 -144 OFFCURVE",
"155 -84 CURVE",
"135 -101 LINE SMOOTH",
"74 -153 OFFCURVE",
"114 -226 OFFCURVE",
"238 -226 CURVE SMOOTH",
"296 -226 LINE SMOOTH",
"454 -226 OFFCURVE",
"516 -167 OFFCURVE",
"516 -16 CURVE SMOOTH",
"516 500 LINE",
"431 500 LINE"
);
},
{
closed = 1;
nodes = (
"33 103 OFFCURVE",
"139 -15 OFFCURVE",
"282 -15 CURVE",
"344 -15 OFFCURVE",
"403 22 OFFCURVE",
"431 76 CURVE",
"431 151 LINE",
"428 147 OFFCURVE",
"426 145 OFFCURVE",
"420 139 CURVE SMOOTH",
"303 22 OFFCURVE",
"159 124 OFFCURVE",
"119 82 CURVE",
"160 123 OFFCURVE",
"54 270 OFFCURVE",
"174 380 CURVE",
"267 475 OFFCURVE",
"371 419 OFFCURVE",
"431 418 CURVE",
"431 420 OFFCURVE",
"431 444 OFFCURVE",
"431 445 CURVE",
"403 501 OFFCURVE",
"326 515 OFFCURVE",
"282 515 CURVE SMOOTH",
"131 515 OFFCURVE",
"33 394 OFFCURVE",
"33 249 CURVE SMOOTH"
);
}
);
width = 586;
},
{
associatedMasterId = "346FDC19-9F08-4641-B881-745A76183C31";
layerId = "7D3AEF8E-D965-4DC0-963F-B15BF586ADF2";
name = "Nov 28 21, 23:54";
paths = (
{
closed = 1;
nodes = (
"44 103 OFFCURVE",
"150 -15 OFFCURVE",
"293 -15 CURVE SMOOTH",
"345 -15 OFFCURVE",
"387 7 OFFCURVE",
"442 56 CURVE",
"442 152 LINE",
"436 144 OFFCURVE",
"429 136 OFFCURVE",
"421 129 CURVE",
"306 9 OFFCURVE",
"160 114 OFFCURVE",
"120 72 CURVE",
"161 113 OFFCURVE",
"55 260 OFFCURVE",
"175 370 CURVE",
"266 465 OFFCURVE",
"381 419 OFFCURVE",
"442 418 CURVE",
"442 440 LINE",
"414 500 OFFCURVE",
"337.007 515 OFFCURVE",
"293 515 CURVE SMOOTH",
"142 515 OFFCURVE",
"44 394 OFFCURVE",
"44 249 CURVE SMOOTH"
);
},
{
closed = 1;
nodes = (
"442 -37 LINE SMOOTH",
"442 -127 OFFCURVE",
"416 -185 OFFCURVE",
"310 -185 CURVE SMOOTH",
"175 -185 OFFCURVE",
"138 -137 OFFCURVE",
"188 -50 CURVE",
"120 -50 OFFCURVE",
"95 -139 OFFCURVE",
"125 -191 CURVE SMOOTH",
"151 -236 OFFCURVE",
"205 -260 OFFCURVE",
"310 -260 CURVE SMOOTH",
"479 -260 OFFCURVE",
"527 -185 OFFCURVE",
"527 -40 CURVE SMOOTH",
"527 500 LINE",
"442 500 LINE"
);
}
);
width = 600;
}
);
leftKerningGroup = g;
leftMetricsKey = o;
unicode = 0067;
},
{
glyphname = j;
lastChange = "2021-12-05 18:25:33 +0000";
layers = (
{
components = (
{
alignment = -1;
name = dotaccent;
transform = "{1, 0, 0, 1, 36, 0}";
}
);
layerId = "346FDC19-9F08-4641-B881-745A76183C31";
paths = (
{
closed = 1;
nodes = (
"101 -55 LINE SMOOTH",
"101 -124 OFFCURVE",
"85 -158 OFFCURVE",
"52 -158 CURVE SMOOTH",
"15 -158 OFFCURVE",
"-13 -132 OFFCURVE",
"-23 -86 CURVE",
"-43 -103 LINE SMOOTH",
"-104 -155 OFFCURVE",
"-55 -228 OFFCURVE",
"49 -228 CURVE SMOOTH",
"151 -228 OFFCURVE",
"186 -150 OFFCURVE",
"186 -88 CURVE SMOOTH",
"186 500 LINE",
"101 500 LINE"
);
}
);
width = 245;
}
);
leftKerningGroup = j;
rightMetricsKey = i;
unicode = 006A;
},
{
glyphname = k;
lastChange = "2021-12-13 17:05:45 +0000";
layers = (
{
components = (
{
name = stem.low2;
transform = "{1, 0, 0, 1, 5, 0}";
}
);
layerId = "346FDC19-9F08-4641-B881-745A76183C31";
paths = (
{
closed = 1;
nodes = (
"454 43 OFFCURVE",
"449 62 OFFCURVE",
"449 82 CURVE SMOOTH",
"449 228 LINE SMOOTH",
"449 276 OFFCURVE",
"422 313 OFFCURVE",
"374 313 CURVE SMOOTH",
"168 313 LINE",
"168 240 LINE",
"289 240 LINE SMOOTH",
"337 240 OFFCURVE",
"364 240 OFFCURVE",
"364 195 CURVE SMOOTH",
"364 56 LINE SMOOTH",
"364 21 OFFCURVE",
"384 0 OFFCURVE",
"410 0 CURVE SMOOTH",
"483 0 LINE",
"465 27 LINE SMOOTH"
);
},
{
closed = 1;
nodes = (
"204 240 LINE",
"485 500 LINE",
"376 500 LINE",
"153 303 LINE",
"153 240 LINE"
);
}
);
width = 510;
},
{
associatedMasterId = "346FDC19-9F08-4641-B881-745A76183C31";
components = (
{
name = stem.low2;
transform = "{1, 0, 0, 1, 7, 0}";
}
);
layerId = "6B6F10FC-A0EC-45E7-865D-3CBACA8D440E";
name = "Nov 29 21, 03:54";
paths = (
{
closed = 1;
nodes = (
"459 43 OFFCURVE",
"454 62 OFFCURVE",
"454 82 CURVE SMOOTH",
"454 236 LINE SMOOTH",
"454 284 OFFCURVE",
"427 311 OFFCURVE",
"379 311 CURVE SMOOTH",
"233 311 LINE",
"233 248 LINE",
"294 248 LINE SMOOTH",
"342 248 OFFCURVE",
"369 248 OFFCURVE",
"369 203 CURVE SMOOTH",
"369 56 LINE SMOOTH",
"369 21 OFFCURVE",
"389 0 OFFCURVE",
"415 0 CURVE SMOOTH",
"488 0 LINE",
"470 27 LINE SMOOTH"
);
},
{
closed = 1;
nodes = (
"157 248 LINE",
"297 248 LINE SMOOTH",
"371 248 OFFCURVE",
"450 299 OFFCURVE",
"443 399 CURVE SMOOTH",
"436 498 OFFCURVE",
"350 529 OFFCURVE",
"295 481 CURVE",
"341 473 OFFCURVE",
"372 430 OFFCURVE",
"372 392 CURVE SMOOTH",
"372 359 OFFCURVE",
"362 323 OFFCURVE",
"293 323 CURVE SMOOTH",
"157 323 LINE"
);
}
);
width = 499;
}
);
leftKerningGroup = h;
unicode = 006B;
},
{
glyphname = m;
lastChange = "2021-12-05 19:17:45 +0000";
layers = (
{
components = (
{
name = stem.low;
}
);
layerId = "346FDC19-9F08-4641-B881-745A76183C31";
paths = (
{
closed = 1;
nodes = (
"799 43 OFFCURVE",
"794 62 OFFCURVE",
"794 82 CURVE SMOOTH",
"794 314 LINE SMOOTH",
"794 429 OFFCURVE",
"764 515 OFFCURVE",
"653 515 CURVE SMOOTH",
"544 515 OFFCURVE",
"499 445 OFFCURVE",
"468 397 CURVE",
"468 271 LINE",
"468 337 OFFCURVE",
"553 434 OFFCURVE",
"620 434 CURVE SMOOTH",
"713 434 OFFCURVE",
"709 371 OFFCURVE",
"709 289 CURVE SMOOTH",
"709 56 LINE SMOOTH",
"709 21 OFFCURVE",
"729 0 OFFCURVE",
"755 0 CURVE SMOOTH",
"828 0 LINE",
"810 27 LINE SMOOTH"
);
},
{
closed = 1;
nodes = (
"475 0 LINE",
"475 314 LINE SMOOTH",
"475 429 OFFCURVE",
"445 515 OFFCURVE",
"334 515 CURVE SMOOTH",
"225 515 OFFCURVE",
"180 445 OFFCURVE",
"149 397 CURVE",
"149 271 LINE",
"149 338 OFFCURVE",
"234 434 OFFCURVE",
"301 434 CURVE SMOOTH",
"394 434 OFFCURVE",
"390 371 OFFCURVE",
"390 289 CURVE SMOOTH",
"390 1 LINE",
"390 0 LINE"
);
}
);
width = 853;
}
);
leftKerningGroup = n;
leftMetricsKey = n;
rightKerningGroup = h;
rightMetricsKey = n;
unicode = 006D;
},
{
glyphname = n;
lastChange = "2021-12-05 19:17:27 +0000";
layers = (
{
components = (
{
name = stem.low;
},
{
alignment = -1;
name = shoulder.low;
transform = "{1, 0, 0, 1, 150, 0}";
}
);
layerId = "346FDC19-9F08-4641-B881-745A76183C31";
width = 545;
},
{
associatedMasterId = "346FDC19-9F08-4641-B881-745A76183C31";
layerId = "61EC8C2C-9DC9-41A3-AC52-05DA4A4B81F0";
name = "Nov 12 21, 13:16";
paths = (
{
closed = 1;
nodes = (
"164 0 LINE",
"164 269 LINE SMOOTH",
"164 376 OFFCURVE",
"214 432 OFFCURVE",
"295 432 CURVE SMOOTH",
"388 432 OFFCURVE",
"404 371 OFFCURVE",
"404 289 CURVE SMOOTH",
"404 0 LINE",
"488 0 LINE",
"488 314 LINE SMOOTH",
"488 427 OFFCURVE",
"439 515 OFFCURVE",
"328 515 CURVE SMOOTH",
"244 515 OFFCURVE",
"192 468 OFFCURVE",
"164 421 CURVE",
"142 500 LINE",
"80 500 LINE",
"80 0 LINE"
);
}
);
width = 558;
},
{
associatedMasterId = "346FDC19-9F08-4641-B881-745A76183C31";
layerId = "541F4A62-0ECD-4B4B-B1D5-38FFB5FB401F";
name = "Extra Bold";
paths = (
{
closed = 1;
nodes = (
"186 0 LINE",
"186 247 LINE SMOOTH",
"186 346 OFFCURVE",
"212 409 OFFCURVE",
"283 409 CURVE SMOOTH",
"339 409 OFFCURVE",
"366 376 OFFCURVE",
"366 279 CURVE SMOOTH",
"366 0 LINE",
"511 0 LINE",
"511 304 LINE SMOOTH",
"511 442 OFFCURVE",
"440 525 OFFCURVE",
"320 525 CURVE SMOOTH",
"246 525 OFFCURVE",
"201 492 OFFCURVE",
"160 451 CURVE",
"149 510 LINE",
"41 510 LINE",
"41 0 LINE"
);
}
);
width = 580;
}
);
leftKerningGroup = n;
rightKerningGroup = h;
unicode = 006E;
},
{
glyphname = o;
lastChange = "2021-12-17 16:12:04 +0000";
layers = (
{
layerId = "346FDC19-9F08-4641-B881-745A76183C31";
paths = (
{
closed = 1;
nodes = (
"424 -15 OFFCURVE",
"550 103 OFFCURVE",
"550 249 CURVE SMOOTH",
"550 394 OFFCURVE",
"422 515 OFFCURVE",
"291 515 CURVE",
"159 515 OFFCURVE",
"33 395 OFFCURVE",
"33 249 CURVE SMOOTH",
"33 103 OFFCURVE",
"159 -15 OFFCURVE",
"291 -15 CURVE SMOOTH"
);
},
{
closed = 1;
nodes = (
"301 19 OFFCURVE",
"162 119 OFFCURVE",
"121 79 CURVE",
"160 118 OFFCURVE",
"58 260 OFFCURVE",
"174 365 CURVE",
"281 485 OFFCURVE",
"426 386 OFFCURVE",
"462 420 CURVE",
"423 382 OFFCURVE",
"525 241 OFFCURVE",
"410 134 CURVE"
);
}
);
width = 583;
},
{
associatedMasterId = "346FDC19-9F08-4641-B881-745A76183C31";
layerId = "1E21C1AB-73E7-48D2-B408-B93910AB6DED";
name = "Nov 28 21, 19:12";
paths = (
{
closed = 1;
nodes = (
"111 479 OFFCURVE",
"41 377 OFFCURVE",
"41 249 CURVE SMOOTH",
"41 103 OFFCURVE",
"147 -15 OFFCURVE",
"290 -15 CURVE",
"290 61 LINE",
"184 61 OFFCURVE",
"127 143 OFFCURVE",
"127 250 CURVE SMOOTH",
"127 329 OFFCURVE",
"157 401 OFFCURVE",
"214 434 CURVE",
"258 463 OFFCURVE",
"289 474 OFFCURVE",
"289 509 CURVE SMOOTH",
"289 549 LINE",
"271 532 OFFCURVE",
"264 525 OFFCURVE",
"214 510 CURVE SMOOTH"
);
},
{
closed = 1;
nodes = (
"314 525 OFFCURVE",
"307 532 OFFCURVE",
"289 549 CURVE",
"289 509 LINE SMOOTH",
"289 474 OFFCURVE",
"320 463 OFFCURVE",
"364 434 CURVE",
"421 401 OFFCURVE",
"451 329 OFFCURVE",
"451 250 CURVE SMOOTH",
"451 143 OFFCURVE",
"394 61 OFFCURVE",
"288 61 CURVE",
"288 -15 LINE",
"431 -15 OFFCURVE",
"537 103 OFFCURVE",
"537 249 CURVE SMOOTH",
"537 377 OFFCURVE",
"467 479 OFFCURVE",
"364 510 CURVE SMOOTH"
);
}
);
width = 600;
},
{
associatedMasterId = "346FDC19-9F08-4641-B881-745A76183C31";
layerId = "5E90FD19-0BBF-4ADE-825E-0B2D53EAA945";
name = "Nov 28 21, 19:20";
paths = (
{
closed = 1;
nodes = (
"116 441 LINE",
"30 358 OFFCURVE",
"16 226 OFFCURVE",
"73 135 CURVE SMOOTH",
"101 91 OFFCURVE",
"97 79 OFFCURVE",
"98 55 CURVE",
"126 82 LINE SMOOTH",
"151 107 OFFCURVE",
"137 136 OFFCURVE",
"128 188 CURVE",
"113 247 OFFCURVE",
"127 336 OFFCURVE",
"174 381 CURVE"
);
},
{
closed = 1;
nodes = (
"350 17 OFFCURVE",
"184 138 OFFCURVE",
"126 82 CURVE SMOOTH",
"98 55 LINE",
"122 53 OFFCURVE",
"134 56 OFFCURVE",
"177 27 CURVE SMOOTH",
"266 -32 OFFCURVE",
"398 -35 OFFCURVE",
"485 60 CURVE",
"427 120 LINE"
);
},
{
closed = 1;
nodes = (
"250 483 OFFCURVE",
"416 362 OFFCURVE",
"474 418 CURVE SMOOTH",
"502 445 LINE",
"478 447 OFFCURVE",
"466 444 OFFCURVE",
"423 473 CURVE SMOOTH",
"334 532 OFFCURVE",
"202 535 OFFCURVE",
"115 440 CURVE",
"173 380 LINE"
);
},
{
closed = 1;
nodes = (
"484 59 LINE",
"570 142 OFFCURVE",
"584 274 OFFCURVE",
"527 365 CURVE SMOOTH",
"499 409 OFFCURVE",
"503 421 OFFCURVE",
"502 445 CURVE",
"474 418 LINE SMOOTH",
"449 393 OFFCURVE",
"463 364 OFFCURVE",
"472 312 CURVE",
"487 253 OFFCURVE",
"473 164 OFFCURVE",
"426 119 CURVE"
);
}
);
width = 600;
},
{
associatedMasterId = "346FDC19-9F08-4641-B881-745A76183C31";
layerId = "56CF9F12-2F17-44D9-A2CD-4C8760B74A2D";
name = "Nov 28 21, 22:10";
paths = (
{
closed = 1;
nodes = (
"135 473 OFFCURVE",
"39 386 OFFCURVE",
"39 258 CURVE SMOOTH",
"39 112 OFFCURVE",
"136 -15 OFFCURVE",
"298 -15 CURVE",
"298 61 LINE",
"173 61 OFFCURVE",
"126 162 OFFCURVE",
"126 259 CURVE SMOOTH",
"126 413 OFFCURVE",
"298 442 OFFCURVE",
"298 500 CURVE SMOOTH",
"298 569 LINE",
"285 552 OFFCURVE",
"275 537 OFFCURVE",
"222 513 CURVE SMOOTH"
);
},
{
closed = 1;
nodes = (
"321 537 OFFCURVE",
"311 552 OFFCURVE",
"298 569 CURVE",
"298 500 LINE SMOOTH",
"298 441 OFFCURVE",
"470 412 OFFCURVE",
"470 259 CURVE SMOOTH",
"470 162 OFFCURVE",
"423 61 OFFCURVE",
"298 61 CURVE",
"298 -15 LINE",
"460 -15 OFFCURVE",
"557 112 OFFCURVE",
"557 258 CURVE SMOOTH",
"557 386 OFFCURVE",
"461 474 OFFCURVE",
"374 513 CURVE SMOOTH"
);
}
);
width = 596;
},
{
associatedMasterId = "346FDC19-9F08-4641-B881-745A76183C31";
layerId = "237A6A3B-15E7-402A-9566-95DFB3EF5B9E";
name = "Nov 28 21, 22:53";
paths = (
{
closed = 1;
nodes = (
"440 -15 OFFCURVE",
"556 103 OFFCURVE",
"556 249 CURVE SMOOTH",
"556 394 OFFCURVE",
"438 515 OFFCURVE",
"297 515 CURVE",
"155 515 OFFCURVE",
"39 395 OFFCURVE",
"39 249 CURVE SMOOTH",
"39 103 OFFCURVE",
"155 -15 OFFCURVE",
"297 -15 CURVE SMOOTH"
);
},
{
closed = 1;
nodes = (
"307 10 OFFCURVE",
"163 114 OFFCURVE",
"120 72 CURVE",
"161 113 OFFCURVE",
"55 260 OFFCURVE",
"175 370 CURVE",
"287 488 OFFCURVE",
"437 389 OFFCURVE",
"475 427 CURVE",
"434 386 OFFCURVE",
"540 240 OFFCURVE",
"421 129 CURVE"
);
}
);
width = 595;
}
);
leftKerningGroup = c;
rightKerningGroup = o;
unicode = 006F;
},
{
glyphname = p;
lastChange = "2021-12-13 17:08:30 +0000";
layers = (
{
components = (
{
name = stem.low2;
transform = "{1, 0, 0, 1, 5, -199}";
}
);
layerId = "346FDC19-9F08-4641-B881-745A76183C31";
paths = (
{
closed = 1;
nodes = (
"553 397 OFFCURVE",
"447 515 OFFCURVE",
"314 515 CURVE SMOOTH",
"242 515 OFFCURVE",
"170 442 OFFCURVE",
"155 404 CURVE",
"155 349 LINE",
"158 353 OFFCURVE",
"160 355 OFFCURVE",
"166 361 CURVE SMOOTH",
"283 478 OFFCURVE",
"427 376 OFFCURVE",
"467 418 CURVE",
"426 377 OFFCURVE",
"532 230 OFFCURVE",
"412 120 CURVE",
"319 25 OFFCURVE",
"215 81 OFFCURVE",
"155 82 CURVE",
"155 80 OFFCURVE",
"155 56 OFFCURVE",
"155 55 CURVE",
"183 -1 OFFCURVE",
"260 -15 OFFCURVE",
"304 -15 CURVE SMOOTH",
"455 -15 OFFCURVE",
"553 106 OFFCURVE",
"553 251 CURVE SMOOTH"
);
}
);
width = 591;
}
);
leftKerningGroup = p;
rightKerningGroup = p;
unicode = 0070;
},
{
glyphname = q;
lastChange = "2021-12-05 18:15:27 +0000";
layers = (
{
components = (
{
name = stem.low2;
transform = "{1, 0, 0, -1, 371, 500}";
}
);
layerId = "346FDC19-9F08-4641-B881-745A76183C31";
paths = (
{
closed = 1;
nodes = (
"436 157 LINE",
"436 157 OFFCURVE",
"430 151 OFFCURVE",
"419 140 CURVE",
"307 22 OFFCURVE",
"167 121 OFFCURVE",
"129 83 CURVE",
"170 124 OFFCURVE",
"64 270 OFFCURVE",
"173 381 CURVE",
"268 481 OFFCURVE",
"375 414 OFFCURVE",
"436 418 CURVE",
"436 451 LINE",
"394 481 OFFCURVE",
"342 515 OFFCURVE",
"287 515 CURVE SMOOTH",
"144 515 OFFCURVE",
"38 397 OFFCURVE",
"38 251 CURVE SMOOTH",
"38 106 OFFCURVE",
"136 -15 OFFCURVE",
"287 -15 CURVE",
"332 -15 OFFCURVE",
"409 15 OFFCURVE",
"436 82 CURVE"
);
}
);
width = 577;
}
);
leftKerningGroup = c;
rightKerningGroup = q;
unicode = 0071;
},
{
glyphname = r;
lastChange = "2021-12-05 18:45:16 +0000";
layers = (
{
components = (
{
name = stem.low;
}
);
layerId = "346FDC19-9F08-4641-B881-745A76183C31";
paths = (
{
closed = 1;
nodes = (
"396 387 LINE SMOOTH",
"431 417 OFFCURVE",
"446 458 OFFCURVE",
"411 488 CURVE SMOOTH",
"390 506 OFFCURVE",
"362 515 OFFCURVE",
"325 515 CURVE SMOOTH",
"216 515 OFFCURVE",
"181 445 OFFCURVE",
"150 397 CURVE",
"150 271 LINE",
"150 325 OFFCURVE",
"230 438 OFFCURVE",
"292 438 CURVE SMOOTH",
"347 438 OFFCURVE",
"368 407 OFFCURVE",
"376 370 CURVE"
);
}
);
width = 431;
}
);
leftKerningGroup = n;
leftMetricsKey = "=n";
rightKerningGroup = r;
unicode = 0072;
},
{
glyphname = s;
lastChange = "2021-12-13 17:05:33 +0000";
layers = (
{
layerId = "346FDC19-9F08-4641-B881-745A76183C31";
paths = (
{
closed = 1;
nodes = (
"159 308 OFFCURVE",
"129 324 OFFCURVE",
"129 374 CURVE SMOOTH",
"129 419 OFFCURVE",
"184 440 OFFCURVE",
"246 440 CURVE SMOOTH",
"308 440 OFFCURVE",
"388 415 OFFCURVE",
"388 342 CURVE",
"492 410 OFFCURVE",
"421 515 OFFCURVE",
"259 515 CURVE SMOOTH",
"182 515 OFFCURVE",
"113 494 OFFCURVE",
"75 454 CURVE SMOOTH",
"55 433 OFFCURVE",
"44 403 OFFCURVE",
"44 373 CURVE SMOOTH",
"44 284 OFFCURVE",
"90 237 OFFCURVE",
"256 210 CURVE SMOOTH",
"318 200 OFFCURVE",
"377 193 OFFCURVE",
"377 139 CURVE SMOOTH",
"377 73 OFFCURVE",
"318 60 OFFCURVE",
"249 60 CURVE SMOOTH",
"163 60 OFFCURVE",
"103 98 OFFCURVE",
"103 170 CURVE",
"27 131 OFFCURVE",
"29 61 OFFCURVE",
"90 22 CURVE SMOOTH",
"143 -12 OFFCURVE",
"187 -15 OFFCURVE",
"249 -15 CURVE SMOOTH",
"365 -15 OFFCURVE",
"462 33 OFFCURVE",
"462 142 CURVE SMOOTH",
"462 227 OFFCURVE",
"379 281 OFFCURVE",
"258 296 CURVE SMOOTH"
);
}
);
width = 497;
}
);
leftKerningGroup = s;
rightKerningGroup = s;
unicode = 0073;
},
{
glyphname = t;
lastChange = "2021-12-05 18:28:44 +0000";
layers = (
{
layerId = "346FDC19-9F08-4641-B881-745A76183C31";
paths = (
{
closed = 1;
nodes = (
"157 635 LINE",
"119 624 OFFCURVE",
"97 603 OFFCURVE",
"97 560 CURVE SMOOTH",
"97 141 LINE SMOOTH",
"97 67 OFFCURVE",
"141 1 OFFCURVE",
"244 1 CURVE SMOOTH",
"348 1 OFFCURVE",
"397 74 OFFCURVE",
"336 126 CURVE SMOOTH",
"316 143 LINE",
"306 97 OFFCURVE",
"278 66 OFFCURVE",
"241 66 CURVE SMOOTH",
"208 66 OFFCURVE",
"182 105 OFFCURVE",
"182 174 CURVE SMOOTH",
"182 641 LINE"
);
},
{
closed = 1;
nodes = (
"264 430 LINE SMOOTH",
"308 430 OFFCURVE",
"340 460 OFFCURVE",
"340 500 CURVE",
"20 500 LINE",
"20 430 LINE"
);
}
);
width = 383;
}
);
leftKerningGroup = t;
rightKerningGroup = t;
unicode = 0074;
},
{
glyphname = u;
lastChange = "2021-12-05 19:15:51 +0000";
layers = (
{
components = (
{
name = stem.low;
transform = "{1, 0, 0, -1, 326, 500}";
}
);
layerId = "346FDC19-9F08-4641-B881-745A76183C31";
paths = (
{
closed = 1;
nodes = (
"55 500 LINE",
"55 201 LINE SMOOTH",
"55 87 OFFCURVE",
"85 0 OFFCURVE",
"196 0 CURVE SMOOTH",
"305 0 OFFCURVE",
"360 70 OFFCURVE",
"391 118 CURVE",
"391 244 LINE",
"391 177 OFFCURVE",
"301 81 OFFCURVE",
"229 81 CURVE SMOOTH",
"136 81 OFFCURVE",
"140 144 OFFCURVE",
"140 226 CURVE SMOOTH",
"140 500 LINE"
);
}
);
width = 532;
}
);
leftKerningGroup = u;
rightKerningGroup = u;
rightMetricsKey = n;
unicode = 0075;
},
{
glyphname = v;
lastChange = "2021-12-05 19:03:59 +0000";
layers = (
{
layerId = "346FDC19-9F08-4641-B881-745A76183C31";
paths = (
{
closed = 1;
nodes = (
"398 515 OFFCURVE",
"370 495 OFFCURVE",
"358 459 CURVE SMOOTH",
"247 114 LINE",
"90 500 LINE",
"0 500 LINE",
"176 77 LINE SMOOTH",
"199 21 OFFCURVE",
"233 0 OFFCURVE",
"286 0 CURVE",
"436 433 LINE SMOOTH",
"443 453 OFFCURVE",
"456 472 OFFCURVE",
"470 488 CURVE SMOOTH",
"494 515 LINE",
"424 515 LINE SMOOTH"
);
}
);
width = 494;
}
);
leftKerningGroup = v;
leftMetricsKey = v;
rightKerningGroup = v;
rightMetricsKey = v;
unicode = 0076;
},
{
glyphname = w;
lastChange = "2021-12-10 08:11:53 +0000";
layers = (
{
layerId = "346FDC19-9F08-4641-B881-745A76183C31";
paths = (
{
closed = 1;
nodes = (
"717 515 OFFCURVE",
"688 495 OFFCURVE",
"677 459 CURVE SMOOTH",
"563 99 LINE",
"425 457 LINE",
"430 471 OFFCURVE",
"438 495 OFFCURVE",
"459 515 CURVE",
"411 515 LINE SMOOTH",
"385 515 OFFCURVE",
"368 495 OFFCURVE",
"357 459 CURVE SMOOTH",
"243 99 LINE",
"87 500 LINE",
"0 500 LINE",
"168 77 LINE",
"193 19 OFFCURVE",
"231 0 OFFCURVE",
"287 0 CURVE",
"393 340 LINE",
"494 79 LINE",
"519 19 OFFCURVE",
"551 0 OFFCURVE",
"611 0 CURVE",
"753 433 LINE SMOOTH",
"760 453 OFFCURVE",
"775 472 OFFCURVE",
"789 488 CURVE SMOOTH",
"813 515 LINE",
"743 515 LINE SMOOTH"
);
}
);
width = 813;
}
);
leftKerningGroup = v;
leftMetricsKey = v;
rightKerningGroup = v;
rightMetricsKey = v;
unicode = 0077;
},
{
glyphname = x;
lastChange = "2021-12-05 19:03:59 +0000";
layers = (
{
layerId = "346FDC19-9F08-4641-B881-745A76183C31";
paths = (
{
closed = 1;
nodes = (
"368 0 LINE",
"473 0 LINE",
"106 500 LINE",
"0 500 LINE"
);
},
{
closed = 1;
nodes = (
"407 515 LINE SMOOTH",
"380 515 OFFCURVE",
"351 502 OFFCURVE",
"321 459 CURVE SMOOTH",
"0 0 LINE",
"36 0 LINE SMOOTH",
"76 0 OFFCURVE",
"111 14 OFFCURVE",
"134 47 CURVE SMOOTH",
"403 433 LINE SMOOTH",
"425 465 OFFCURVE",
"462 498 OFFCURVE",
"489 515 CURVE"
);
}
);
width = 489;
}
);
leftKerningGroup = v;
leftMetricsKey = v;
rightKerningGroup = v;
rightMetricsKey = v;
unicode = 0078;
},
{
glyphname = y;
lastChange = "2021-12-13 17:08:03 +0000";
layers = (
{
layerId = "346FDC19-9F08-4641-B881-745A76183C31";
paths = (
{
closed = 1;
nodes = (
"397 515 OFFCURVE",
"368 495 OFFCURVE",
"357 459 CURVE SMOOTH",
"228 51 LINE",
"267 52 LINE",
"87 500 LINE",
"0 500 LINE",
"202 0 LINE",
"287 0 LINE",
"435 433 LINE",
"442 453 OFFCURVE",
"455 472 OFFCURVE",
"469 488 CURVE SMOOTH",
"493 515 LINE",
"423 515 LINE SMOOTH"
);
},
{
closed = 1;
nodes = (
"202 0 LINE",
"184 -55 LINE SMOOTH",
"163 -120 OFFCURVE",
"155 -148 OFFCURVE",
"112 -148 CURVE SMOOTH",
"75 -148 OFFCURVE",
"45 -132 OFFCURVE",
"50 -86 CURVE",
"-35 -142 OFFCURVE",
"8 -228 OFFCURVE",
"108 -228 CURVE SMOOTH",
"222 -228 OFFCURVE",
"239 -150 OFFCURVE",
"259 -88 CURVE SMOOTH",
"287 0 LINE"
);
}
);
width = 493;
},
{
associatedMasterId = "346FDC19-9F08-4641-B881-745A76183C31";
layerId = "563B29D2-2F81-4AE2-929A-6E940CC0D543";
name = "Dec 2 21, 02:37";
paths = (
{
closed = 1;
nodes = (
"400 -13 LINE SMOOTH",
"400 -111 OFFCURVE",
"369 -146 OFFCURVE",
"265 -146 CURVE SMOOTH",
"175 -146 OFFCURVE",
"147 -144 OFFCURVE",
"134 -84 CURVE",
"114 -101 LINE SMOOTH",
"53 -153 OFFCURVE",
"93 -226 OFFCURVE",
"217 -226 CURVE SMOOTH",
"265 -226 LINE SMOOTH",
"423 -226 OFFCURVE",
"485 -167 OFFCURVE",
"485 -16 CURVE SMOOTH",
"485 500 LINE",
"400 500 LINE"
);
},
{
closed = 1;
nodes = (
"65 500 LINE",
"65 201 LINE SMOOTH",
"65 87 OFFCURVE",
"95 0 OFFCURVE",
"206 0 CURVE SMOOTH",
"315 0 OFFCURVE",
"370 50 OFFCURVE",
"401 98 CURVE",
"401 219 LINE",
"401 152 OFFCURVE",
"311 81 OFFCURVE",
"239 81 CURVE SMOOTH",
"146 81 OFFCURVE",
"150 144 OFFCURVE",
"150 226 CURVE SMOOTH",
"150 500 LINE"
);
}
);
width = 509;
}
);
leftKerningGroup = v;
leftMetricsKey = v;
rightKerningGroup = v;
rightMetricsKey = v;
unicode = 0079;
},
{
glyphname = z;
lastChange = "2021-12-05 16:43:21 +0000";
layers = (
{
layerId = "346FDC19-9F08-4641-B881-745A76183C31";
paths = (
{
closed = 1;
nodes = (
"284 0 LINE",
"284 76 LINE",
"148 76 LINE",
"419 384 LINE SMOOTH",
"444 412 OFFCURVE",
"452 440 OFFCURVE",
"452 477 CURVE SMOOTH",
"452 500 LINE",
"197 500 LINE",
"64 424 LINE",
"362 424 LINE",
"53 79 LINE",
"53 0 LINE"
);
},
{
closed = 1;
nodes = (
"196 500 LINE SMOOTH",
"131 500 OFFCURVE",
"84 496 OFFCURVE",
"59 467 CURVE SMOOTH",
"30 434 OFFCURVE",
"33 390 OFFCURVE",
"77 342 CURVE",
"88 373 OFFCURVE",
"89 376 OFFCURVE",
"102 392 CURVE",
"124 419 OFFCURVE",
"163 421 OFFCURVE",
"197 424 CURVE",
"197 500 LINE"
);
},
{
closed = 1;
nodes = (
"284 0 LINE",
"341 0 LINE SMOOTH",
"405 0 OFFCURVE",
"425 5 OFFCURVE",
"442 27 CURVE SMOOTH",
"462 53 OFFCURVE",
"463 85 OFFCURVE",
"439 125 CURVE SMOOTH",
"429 142 LINE",
"406 82 OFFCURVE",
"383 76 OFFCURVE",
"284 76 CURVE"
);
}
);
width = 487;
}
);
leftKerningGroup = z;
rightKerningGroup = z;
unicode = 007A;
},
{
glyphname = zero;
lastChange = "2021-12-05 16:43:21 +0000";
layers = (
{
background = {
paths = (
{
closed = 1;
nodes = (
"544 -15 OFFCURVE",
"618 148 OFFCURVE",
"618 349 CURVE SMOOTH",
"618 545 OFFCURVE",
"547 715 OFFCURVE",
"329 715 CURVE SMOOTH",
"116 715 OFFCURVE",
"41 548 OFFCURVE",
"41 349 CURVE SMOOTH",
"41 153 OFFCURVE",
"112 -15 OFFCURVE",
"329 -15 CURVE SMOOTH"
);
},
{
closed = 1;
nodes = (
"172 65 OFFCURVE",
"137 196 OFFCURVE",
"137 349 CURVE SMOOTH",
"137 501 OFFCURVE",
"171 635 OFFCURVE",
"329 635 CURVE SMOOTH",
"487 635 OFFCURVE",
"522 503 OFFCURVE",
"522 349 CURVE SMOOTH",
"522 195 OFFCURVE",
"488 65 OFFCURVE",
"329 65 CURVE SMOOTH"
);
},
{
closed = 1;
nodes = (
"144 544 LINE",
"190 624 LINE",
"515 159 LINE",
"470 76 LINE"
);
}
);
};
layerId = "346FDC19-9F08-4641-B881-745A76183C31";
paths = (
{
closed = 1;
nodes = (
"533 -15 OFFCURVE",
"608 148 OFFCURVE",
"608 349 CURVE SMOOTH",
"608 545 OFFCURVE",
"536 715 OFFCURVE",
"333 715 CURVE SMOOTH",
"135 715 OFFCURVE",
"60 548 OFFCURVE",
"60 349 CURVE SMOOTH",
"60 153 OFFCURVE",
"131 -15 OFFCURVE",
"333 -15 CURVE SMOOTH"
);
},
{
closed = 1;
nodes = (
"145 501 OFFCURVE",
"190 635 OFFCURVE",
"333 635 CURVE SMOOTH",
"475 635 OFFCURVE",
"518 503 OFFCURVE",
"518 349 CURVE SMOOTH",
"518 195 OFFCURVE",
"477 65 OFFCURVE",
"333 65 CURVE SMOOTH",
"306 65 OFFCURVE",
"283 70 OFFCURVE",
"263 79 CURVE",
"225 90 OFFCURVE",
"189 98 OFFCURVE",
"168 90 CURVE",
"180 123 OFFCURVE",
"169 171 OFFCURVE",
"157 247 CURVE SMOOTH",
"153 273 OFFCURVE",
"145 321 OFFCURVE",
"145 349 CURVE SMOOTH"
);
},
{
closed = 1;
nodes = (
"519 159 LINE",
"194 624 LINE",
"148 544 LINE",
"474 76 LINE"
);
}
);
width = 668;
}
);
unicode = 0030;
},
{
glyphname = one;
lastChange = "2021-12-05 16:43:21 +0000";
layers = (
{
layerId = "346FDC19-9F08-4641-B881-745A76183C31";
paths = (
{
closed = 1;
nodes = (
"222 36 LINE",
"222 0 LINE",
"317 0 LINE",
"317 700 LINE",
"250 700 LINE",
"243 679 OFFCURVE",
"234 663 OFFCURVE",
"222 651 CURVE"
);
},
{
closed = 1;
nodes = (
"108 651 LINE SMOOTH",
"64 651 OFFCURVE",
"42 606 OFFCURVE",
"42 566 CURVE",
"156 566 LINE SMOOTH",
"200 566 OFFCURVE",
"222 610 OFFCURVE",
"222 651 CURVE"
);
}
);
width = 415;
}
);
unicode = 0031;
},
{
glyphname = two;
lastChange = "2021-12-05 16:43:21 +0000";
layers = (
{
layerId = "346FDC19-9F08-4641-B881-745A76183C31";
paths = (
{
closed = 1;
nodes = (
"487 177 LINE",
"463 109 OFFCURVE",
"433 82 OFFCURVE",
"343 82 CURVE SMOOTH",
"167 82 LINE",
"329 184 OFFCURVE",
"511 349 OFFCURVE",
"511 500 CURVE SMOOTH",
"511 640 OFFCURVE",
"438 715 OFFCURVE",
"287 715 CURVE SMOOTH",
"285 715 LINE SMOOTH",
"200 715 OFFCURVE",
"123 699 OFFCURVE",
"88 659 CURVE SMOOTH",
"51 616 OFFCURVE",
"46 557 OFFCURVE",
"85 514 CURVE",
"120 602 OFFCURVE",
"185 635 OFFCURVE",
"275 635 CURVE SMOOTH",
"277 635 LINE SMOOTH",
"373 634 OFFCURVE",
"416 592 OFFCURVE",
"416 499 CURVE SMOOTH",
"416 419 OFFCURVE",
"355 334 OFFCURVE",
"218 223 CURVE SMOOTH",
"34 73 LINE",
"34 0 LINE",
"435 0 LINE",
"435 1 LINE",
"475 3 OFFCURVE",
"492 11 OFFCURVE",
"505 27 CURVE SMOOTH",
"527 56 OFFCURVE",
"526 111 OFFCURVE",
"502 151 CURVE SMOOTH"
);
}
);
width = 555;
}
);
unicode = 0032;
},
{
glyphname = three;
lastChange = "2021-12-05 16:43:21 +0000";
layers = (
{
layerId = "346FDC19-9F08-4641-B881-745A76183C31";
paths = (
{
closed = 1;
nodes = (
"438 392 OFFCURVE",
"501 462 OFFCURVE",
"501 545 CURVE SMOOTH",
"501 645 OFFCURVE",
"405 715 OFFCURVE",
"270 715 CURVE SMOOTH",
"185 715 OFFCURVE",
"118 699 OFFCURVE",
"83 659 CURVE SMOOTH",
"46 616 OFFCURVE",
"41 557 OFFCURVE",
"80 514 CURVE",
"108 612 OFFCURVE",
"160 635 OFFCURVE",
"270 635 CURVE SMOOTH",
"330 635 OFFCURVE",
"403 609 OFFCURVE",
"403 536 CURVE SMOOTH",
"403 466 OFFCURVE",
"343 408 OFFCURVE",
"194 407 CURVE",
"194 331 LINE",
"199 331 LINE SMOOTH",
"310 331 OFFCURVE",
"420 291 OFFCURVE",
"420 187 CURVE SMOOTH",
"420 106 OFFCURVE",
"354 72 OFFCURVE",
"263 70 CURVE SMOOTH",
"209 69 OFFCURVE",
"158 70 OFFCURVE",
"122 102 CURVE SMOOTH",
"93 127 OFFCURVE",
"88 157 OFFCURVE",
"82 184 CURVE",
"31 139 OFFCURVE",
"29 93 OFFCURVE",
"72 42 CURVE SMOOTH",
"101 8 OFFCURVE",
"167 -14 OFFCURVE",
"263 -15 CURVE SMOOTH",
"403 -15 OFFCURVE",
"520 60 OFFCURVE",
"520 188 CURVE SMOOTH",
"520 286 OFFCURVE",
"464 341 OFFCURVE",
"358 371 CURVE"
);
}
);
width = 580;
}
);
unicode = 0033;
},
{
glyphname = four;
lastChange = "2021-12-10 13:44:33 +0000";
layers = (
{
layerId = "346FDC19-9F08-4641-B881-745A76183C31";
paths = (
{
closed = 1;
nodes = (
"486 700 LINE",
"436 700 LINE SMOOTH",
"396 700 OFFCURVE",
"370 685 OFFCURVE",
"345 654 CURVE SMOOTH",
"38 264 LINE",
"38 184 LINE",
"401 184 LINE",
"401 0 LINE",
"486 0 LINE",
"486 184 LINE",
"538 184 LINE SMOOTH",
"586 184 OFFCURVE",
"613 212 OFFCURVE",
"613 260 CURVE SMOOTH",
"613 264 LINE",
"486 264 LINE"
);
},
{
closed = 1;
nodes = (
"425 629 LINE",
"401 629 LINE",
"401 264 LINE",
"96 264 LINE",
"115 228 LINE"
);
}
);
width = 651;
}
);
unicode = 0034;
},
{
glyphname = five;
lastChange = "2021-12-05 16:43:21 +0000";
layers = (
{
layerId = "346FDC19-9F08-4641-B881-745A76183C31";
paths = (
{
closed = 1;
nodes = (
"245 700 LINE SMOOTH",
"201 700 OFFCURVE",
"179 655 OFFCURVE",
"179 615 CURVE",
"443 615 LINE SMOOTH",
"487 615 OFFCURVE",
"509 659 OFFCURVE",
"509 700 CURVE"
);
},
{
closed = 1;
nodes = (
"244 467 OFFCURVE",
"185 449 OFFCURVE",
"154 423 CURVE",
"179 620 LINE",
"179 700 LINE",
"101 700 LINE",
"60 346 LINE",
"92 336 LINE SMOOTH",
"132 324 OFFCURVE",
"156 340 OFFCURVE",
"190 365 CURVE SMOOTH",
"217 383 OFFCURVE",
"252 395 OFFCURVE",
"286 395 CURVE SMOOTH",
"376 395 OFFCURVE",
"431 326 OFFCURVE",
"431 219 CURVE SMOOTH",
"431 129 OFFCURVE",
"367 70 OFFCURVE",
"276 70 CURVE SMOOTH",
"222 70 OFFCURVE",
"170 72 OFFCURVE",
"134 102 CURVE SMOOTH",
"105 127 OFFCURVE",
"100 157 OFFCURVE",
"94 184 CURVE",
"43 139 OFFCURVE",
"41 93 OFFCURVE",
"84 42 CURVE SMOOTH",
"113 8 OFFCURVE",
"181 -14 OFFCURVE",
"276 -15 CURVE SMOOTH",
"432 -15 OFFCURVE",
"526 70 OFFCURVE",
"526 220 CURVE SMOOTH",
"526 365 OFFCURVE",
"437 467 OFFCURVE",
"305 467 CURVE SMOOTH"
);
}
);
width = 588;
}
);
unicode = 0035;
},
{
glyphname = six;
lastChange = "2021-12-05 16:43:21 +0000";
layers = (
{
layerId = "346FDC19-9F08-4641-B881-745A76183C31";
paths = (
{
closed = 1;
nodes = (
"227 65 OFFCURVE",
"163 127 OFFCURVE",
"163 215 CURVE SMOOTH",
"163 304 OFFCURVE",
"218 380 OFFCURVE",
"313 380 CURVE SMOOTH",
"397 380 OFFCURVE",
"457 304 OFFCURVE",
"457 215 CURVE SMOOTH",
"457 127 OFFCURVE",
"397 65 OFFCURVE",
"313 65 CURVE SMOOTH"
);
},
{
closed = 1;
nodes = (
"232 465 OFFCURVE",
"161 400 OFFCURVE",
"137 327 CURVE",
"147 326 LINE",
"151 540 OFFCURVE",
"202 635 OFFCURVE",
"326 635 CURVE SMOOTH",
"420 635 OFFCURVE",
"471 603 OFFCURVE",
"458 530 CURVE",
"582 613 OFFCURVE",
"494 715 OFFCURVE",
"332 715 CURVE SMOOTH",
"330 715 LINE",
"326 715 LINE SMOOTH",
"130 712 OFFCURVE",
"60 547 OFFCURVE",
"60 310 CURVE SMOOTH",
"60 105 OFFCURVE",
"146 -12 OFFCURVE",
"313 -12 CURVE SMOOTH",
"448 -12 OFFCURVE",
"547 87 OFFCURVE",
"547 218 CURVE SMOOTH",
"547 348 OFFCURVE",
"460 465 OFFCURVE",
"333 465 CURVE SMOOTH"
);
}
);
width = 607;
}
);
unicode = 0036;
},
{
glyphname = seven;
lastChange = "2021-12-05 16:43:21 +0000";
layers = (
{
layerId = "346FDC19-9F08-4641-B881-745A76183C31";
paths = (
{
closed = 1;
nodes = (
"199 0 LINE",
"467 598 LINE SMOOTH",
"481 630 OFFCURVE",
"487 655 OFFCURVE",
"487 690 CURVE SMOOTH",
"487 700 LINE",
"15 700 LINE",
"15 695 LINE SMOOTH",
"15 647 OFFCURVE",
"42 620 OFFCURVE",
"90 620 CURVE SMOOTH",
"434 620 LINE",
"405 663 LINE",
"95 0 LINE"
);
}
);
width = 521;
}
);
unicode = 0037;
},
{
glyphname = eight;
lastChange = "2021-12-05 16:43:21 +0000";
layers = (
{
layerId = "346FDC19-9F08-4641-B881-745A76183C31";
paths = (
{
closed = 1;
nodes = (
"465 124 OFFCURVE",
"410 70 OFFCURVE",
"327 64 CURVE",
"268 55 OFFCURVE",
"201 78 OFFCURVE",
"168 68 CURVE",
"181 93 OFFCURVE",
"160 139 OFFCURVE",
"160 199 CURVE SMOOTH",
"160 279 OFFCURVE",
"221 342 OFFCURVE",
"312 342 CURVE SMOOTH",
"405 342 OFFCURVE",
"465 280 OFFCURVE",
"465 199 CURVE SMOOTH"
);
},
{
closed = 1;
nodes = (
"443 -15 OFFCURVE",
"565 68 OFFCURVE",
"565 195 CURVE SMOOTH",
"565 284 OFFCURVE",
"515 361 OFFCURVE",
"439 391 CURVE",
"440 391 LINE",
"480 428 OFFCURVE",
"501 476 OFFCURVE",
"501 527 CURVE SMOOTH",
"501 639 OFFCURVE",
"425 715 OFFCURVE",
"312 715 CURVE SMOOTH",
"201 715 OFFCURVE",
"124 637 OFFCURVE",
"124 527 CURVE SMOOTH",
"124 476 OFFCURVE",
"145 428 OFFCURVE",
"185 391 CURVE",
"186 391 LINE",
"110 361 OFFCURVE",
"60 283 OFFCURVE",
"60 195 CURVE SMOOTH",
"60 62 OFFCURVE",
"170 -15 OFFCURVE",
"313 -15 CURVE SMOOTH"
);
},
{
closed = 1;
nodes = (
"255 418 OFFCURVE",
"204 467 OFFCURVE",
"204 527 CURVE SMOOTH",
"204 592 OFFCURVE",
"252 640 OFFCURVE",
"312 640 CURVE SMOOTH",
"372 640 OFFCURVE",
"421 593 OFFCURVE",
"421 527 CURVE SMOOTH",
"421 467 OFFCURVE",
"369 418 OFFCURVE",
"312 418 CURVE SMOOTH"
);
}
);
width = 625;
}
);
unicode = 0038;
},
{
glyphname = nine;
lastChange = "2021-12-05 16:43:21 +0000";
layers = (
{
layerId = "346FDC19-9F08-4641-B881-745A76183C31";
paths = (
{
closed = 1;
nodes = (
"385 636 OFFCURVE",
"450 573 OFFCURVE",
"450 483 CURVE SMOOTH",
"450 392 OFFCURVE",
"394 315 OFFCURVE",
"297 315 CURVE SMOOTH",
"211 315 OFFCURVE",
"150 392 OFFCURVE",
"150 483 CURVE SMOOTH",
"150 573 OFFCURVE",
"211 636 OFFCURVE",
"297 636 CURVE SMOOTH"
);
},
{
closed = 1;
nodes = (
"389 230 OFFCURVE",
"458 303 OFFCURVE",
"482 376 CURVE",
"462 377 LINE",
"468 163 OFFCURVE",
"417 68 OFFCURVE",
"283 68 CURVE SMOOTH",
"189 68 OFFCURVE",
"138 100 OFFCURVE",
"151 173 CURVE",
"27 90 OFFCURVE",
"115 -12 OFFCURVE",
"277 -12 CURVE SMOOTH",
"279 -12 LINE",
"283 -12 LINE SMOOTH",
"499 -12 OFFCURVE",
"549 156 OFFCURVE",
"549 393 CURVE SMOOTH",
"549 598 OFFCURVE",
"467 715 OFFCURVE",
"297 715 CURVE SMOOTH",
"159 715 OFFCURVE",
"60 614 OFFCURVE",
"60 480 CURVE SMOOTH",
"60 348 OFFCURVE",
"147 230 OFFCURVE",
"276 230 CURVE SMOOTH"
);
}
);
width = 609;
}
);
unicode = 0039;
},
{
glyphname = period;
lastChange = "2021-12-05 16:43:21 +0000";
layers = (
{
components = (
{
name = dotaccent;
transform = "{1, 0, 0, 1, -10, -588}";
}
);
layerId = "346FDC19-9F08-4641-B881-745A76183C31";
userData = {
assembly = "NPUSHB[ ]	/* 23 values pushed */\0120 1 1 0 97 2 1 0 0 41 0 78 1 0 7 5 0 11 1 11 3 8 22 \012CALL[ ]	/* CallFunction */";
};
width = 197;
},
{
associatedMasterId = "346FDC19-9F08-4641-B881-745A76183C31";
layerId = "541F4A62-0ECD-4B4B-B1D5-38FFB5FB401F";
name = "Extra Bold";
paths = (
{
closed = 1;
nodes = (
"148 -15 OFFCURVE",
"187 24 OFFCURVE",
"187 69 CURVE SMOOTH",
"187 116 OFFCURVE",
"149 154 OFFCURVE",
"103 154 CURVE SMOOTH",
"56 154 OFFCURVE",
"18 116 OFFCURVE",
"18 69 CURVE SMOOTH",
"18 23 OFFCURVE",
"57 -15 OFFCURVE",
"103 -15 CURVE SMOOTH"
);
}
);
width = 205;
}
);
note = period;
rightKerningGroup = quotesinglbase;
unicode = 002E;
},
{
glyphname = comma;
lastChange = "2021-12-05 16:43:21 +0000";
layers = (
{
layerId = "346FDC19-9F08-4641-B881-745A76183C31";
paths = (
{
closed = 1;
nodes = (
"92 -14 LINE",
"76 -57 LINE SMOOTH",
"60 -99 OFFCURVE",
"72 -136 OFFCURVE",
"100 -136 CURVE",
"147 -15 LINE",
"147 -14 LINE"
);
},
{
closed = 1;
nodes = (
"147 -14 LINE",
"162 25 LINE SMOOTH",
"165 34 OFFCURVE",
"167 42 OFFCURVE",
"167 50 CURVE SMOOTH",
"167 85 OFFCURVE",
"138 114 OFFCURVE",
"102 114 CURVE SMOOTH",
"67 114 OFFCURVE",
"38 85 OFFCURVE",
"38 50 CURVE SMOOTH",
"38 18 OFFCURVE",
"61 -9 OFFCURVE",
"92 -14 CURVE"
);
}
);
userData = {
assembly = "NPUSHB[ ]	/* 33 values pushed */\0121 1 1 0 1 76 0 0 1 1 0 89 0 0 0 1 95 2 1 1 0 1 79 0 0 0 13 0 13 38 3 8 23 \012CALL[ ]	/* CallFunction */";
};
width = 205;
},
{
associatedMasterId = "346FDC19-9F08-4641-B881-745A76183C31";
layerId = "541F4A62-0ECD-4B4B-B1D5-38FFB5FB401F";
name = "Extra Bold";
paths = (
{
closed = 1;
nodes = (
"127 -136 LINE",
"198 29 LINE SMOOTH",
"204 42 OFFCURVE",
"208 61 OFFCURVE",
"208 70 CURVE SMOOTH",
"208 116 OFFCURVE",
"170 154 OFFCURVE",
"123 154 CURVE SMOOTH",
"77 154 OFFCURVE",
"39 116 OFFCURVE",
"39 70 CURVE SMOOTH",
"39 37 OFFCURVE",
"63 -2 OFFCURVE",
"97 -8 CURVE",
"44 -136 LINE"
);
}
);
width = 246;
}
);
note = comma;
rightKerningGroup = quotesinglbase;
unicode = 002C;
},
{
glyphname = colon;
lastChange = "2021-12-05 16:43:21 +0000";
layers = (
{
components = (
{
name = dotaccent;
transform = "{1, 0, 0, 1, -10, -589}";
},
{
name = dotaccent;
transform = "{1, 0, 0, 1, -10, -187}";
}
);
layerId = "346FDC19-9F08-4641-B881-745A76183C31";
userData = {
assembly = "NPUSHB[ ]	/* 42 values pushed */\0124 1 0 0 1 97 0 1 1 43 77 0 3 3 2 97 5 1 2 2 41 2 78 13 12 1 0 19 17 12 23 13 23 7 5 0 11 1 11 6 8 22 \012CALL[ ]	/* CallFunction */";
};
width = 197;
},
{
associatedMasterId = "346FDC19-9F08-4641-B881-745A76183C31";
layerId = "541F4A62-0ECD-4B4B-B1D5-38FFB5FB401F";
name = "Extra Bold";
paths = (
{
closed = 1;
nodes = (
"169 356 OFFCURVE",
"207 394 OFFCURVE",
"207 441 CURVE SMOOTH",
"207 487 OFFCURVE",
"169 525 OFFCURVE",
"122 525 CURVE SMOOTH",
"76 525 OFFCURVE",
"38 487 OFFCURVE",
"38 441 CURVE SMOOTH",
"38 394 OFFCURVE",
"76 356 OFFCURVE",
"122 356 CURVE SMOOTH"
);
},
{
closed = 1;
nodes = (
"169 -15 OFFCURVE",
"207 23 OFFCURVE",
"207 69 CURVE SMOOTH",
"207 116 OFFCURVE",
"169 154 OFFCURVE",
"122 154 CURVE SMOOTH",
"76 154 OFFCURVE",
"38 116 OFFCURVE",
"38 69 CURVE SMOOTH",
"38 23 OFFCURVE",
"76 -15 OFFCURVE",
"122 -15 CURVE SMOOTH"
);
}
);
width = 245;
}
);
note = colon;
unicode = 003A;
},
{
glyphname = semicolon;
lastChange = "2021-12-03 08:15:48 +0000";
layers = (
{
components = (
{
name = dotaccent;
transform = "{1, 0, 0, 1, -6, -187}";
},
{
name = comma;
}
);
layerId = "346FDC19-9F08-4641-B881-745A76183C31";
userData = {
assembly = "NPUSHB[ ]	/* 45 values pushed */\01213 1 3 2 1 76 0 2 5 1 3 2 3 99 4 1 0 0 1 97 0 1 1 43 0 78 12 12 1 0 12 25 12 25 20 18 7 5 0 11 1 11 6 8 22 \012CALL[ ]	/* CallFunction */";
};
width = 205;
},
{
associatedMasterId = "346FDC19-9F08-4641-B881-745A76183C31";
layerId = "541F4A62-0ECD-4B4B-B1D5-38FFB5FB401F";
name = "Extra Bold";
paths = (
{
closed = 1;
nodes = (
"169 356 OFFCURVE",
"207 394 OFFCURVE",
"207 441 CURVE SMOOTH",
"207 487 OFFCURVE",
"169 525 OFFCURVE",
"122 525 CURVE SMOOTH",
"76 525 OFFCURVE",
"38 487 OFFCURVE",
"38 441 CURVE SMOOTH",
"38 394 OFFCURVE",
"76 356 OFFCURVE",
"122 356 CURVE SMOOTH"
);
},
{
closed = 1;
nodes = (
"126 -136 LINE",
"197 29 LINE SMOOTH",
"203 42 OFFCURVE",
"207 61 OFFCURVE",
"207 70 CURVE SMOOTH",
"207 116 OFFCURVE",
"169 154 OFFCURVE",
"122 154 CURVE SMOOTH",
"76 154 OFFCURVE",
"38 116 OFFCURVE",
"38 70 CURVE SMOOTH",
"38 37 OFFCURVE",
"62 -2 OFFCURVE",
"96 -8 CURVE",
"43 -136 LINE"
);
}
);
width = 246;
}
);
note = semicolon;
unicode = 003B;
},
{
glyphname = ellipsis;
lastChange = "2021-12-05 16:43:21 +0000";
layers = (
{
components = (
{
name = dotaccent;
transform = "{1, 0, 0, 1, 466, -588}";
},
{
name = dotaccent;
transform = "{1, 0, 0, 1, 5, -588}";
},
{
name = dotaccent;
transform = "{1, 0, 0, 1, 236, -588}";
}
);
layerId = "346FDC19-9F08-4641-B881-745A76183C31";
userData = {
assembly = "NPUSHB[ ]	/* 45 values pushed */\0125 3 2 1 1 0 97 8 4 7 2 6 5 0 0 41 0 78 25 24 13 12 1 0 31 29 24 35 25 35 19 17 12 23 13 23 7 5 0 11 1 11 9 8 22 \012CALL[ ]	/* CallFunction */";
};
width = 688;
},
{
associatedMasterId = "346FDC19-9F08-4641-B881-745A76183C31";
layerId = "541F4A62-0ECD-4B4B-B1D5-38FFB5FB401F";
name = "Extra Bold";
paths = (
{
closed = 1;
nodes = (
"184 -15 OFFCURVE",
"222 23 OFFCURVE",
"222 69 CURVE SMOOTH",
"222 116 OFFCURVE",
"184 154 OFFCURVE",
"137 154 CURVE SMOOTH",
"91 154 OFFCURVE",
"53 116 OFFCURVE",
"53 69 CURVE SMOOTH",
"53 23 OFFCURVE",
"91 -15 OFFCURVE",
"137 -15 CURVE SMOOTH"
);
},
{
closed = 1;
nodes = (
"415 -15 OFFCURVE",
"453 23 OFFCURVE",
"453 69 CURVE SMOOTH",
"453 116 OFFCURVE",
"415 154 OFFCURVE",
"368 154 CURVE SMOOTH",
"321 154 OFFCURVE",
"284 116 OFFCURVE",
"284 69 CURVE SMOOTH",
"284 23 OFFCURVE",
"322 -15 OFFCURVE",
"368 -15 CURVE SMOOTH"
);
},
{
closed = 1;
nodes = (
"645 -15 OFFCURVE",
"683 23 OFFCURVE",
"683 69 CURVE SMOOTH",
"683 116 OFFCURVE",
"645 154 OFFCURVE",
"599 154 CURVE SMOOTH",
"552 154 OFFCURVE",
"514 116 OFFCURVE",
"514 69 CURVE SMOOTH",
"514 23 OFFCURVE",
"552 -15 OFFCURVE",
"599 -15 CURVE SMOOTH"
);
}
);
width = 736;
}
);
note = ellipsis;
rightKerningGroup = quotesinglbase;
unicode = 2026;
},
{
glyphname = exclam;
lastChange = "2021-12-05 16:43:21 +0000";
layers = (
{
components = (
{
name = dotaccent;
transform = "{1, 0, 0, 1, 28, -588}";
}
);
layerId = "346FDC19-9F08-4641-B881-745A76183C31";
paths = (
{
closed = 1;
nodes = (
"163 190 LINE",
"181 500 LINE",
"181 700 LINE",
"92 700 LINE",
"92 500 LINE",
"110 190 LINE"
);
}
);
userData = {
assembly = "NPUSHB[ ]	/* 41 values pushed */\0124 1 1 1 0 95 0 0 0 34 77 0 3 3 2 97 5 1 2 2 41 2 78 7 6 0 0 13 11 6 17 7 17 0 5 0 5 18 6 8 23 \012CALL[ ]	/* CallFunction */";
};
width = 273;
},
{
associatedMasterId = "346FDC19-9F08-4641-B881-745A76183C31";
layerId = "541F4A62-0ECD-4B4B-B1D5-38FFB5FB401F";
name = "Extra Bold";
paths = (
{
closed = 1;
nodes = (
"206 209 LINE",
"235 525 LINE",
"235 700 LINE",
"86 700 LINE",
"86 525 LINE",
"115 209 LINE"
);
},
{
closed = 1;
nodes = (
"206 -15 OFFCURVE",
"245 24 OFFCURVE",
"245 69 CURVE SMOOTH",
"245 116 OFFCURVE",
"207 154 OFFCURVE",
"161 154 CURVE SMOOTH",
"114 154 OFFCURVE",
"76 116 OFFCURVE",
"76 69 CURVE SMOOTH",
"76 23 OFFCURVE",
"115 -15 OFFCURVE",
"161 -15 CURVE SMOOTH"
);
}
);
width = 321;
}
);
note = exclam;
unicode = 0021;
},
{
glyphname = exclamdown;
lastChange = "2021-12-05 16:43:21 +0000";
layers = (
{
components = (
{
name = exclam;
transform = "{1, 0, 0, -1, -4, 500}";
}
);
layerId = "346FDC19-9F08-4641-B881-745A76183C31";
userData = {
assembly = "MPPEM[ ]	/* MeasurePixelPerEm */\012PUSHB[ ]	/* 1 value pushed */\01233 \012LT[ ]	/* LessThan */\012IF[ ]	/* If */\012NPUSHB[ ]	/* 23 values pushed */\0124 1 0 0 1 97 0 1 1 43 77 0 2 2 3 95 5 1 3 3 39 3 78 \012ELSE[ ]	/* Else */\012NPUSHB[ ]	/* 21 values pushed */\0120 1 4 1 0 2 1 0 105 0 2 2 3 95 5 1 3 3 39 3 78 \012EIF[ ]	/* EndIf */\012NPUSHB[ ]	/* 19 values pushed */\01212 12 1 0 12 17 12 17 15 14 7 5 0 11 1 11 6 8 22 \012CALL[ ]	/* CallFunction */";
};
width = 269;
},
{
associatedMasterId = "346FDC19-9F08-4641-B881-745A76183C31";
layerId = "541F4A62-0ECD-4B4B-B1D5-38FFB5FB401F";
name = "Extra Bold";
paths = (
{
closed = 1;
nodes = (
"86 -15 LINE",
"86 -190 LINE",
"235 -190 LINE",
"235 -15 LINE",
"206 301 LINE",
"115 301 LINE"
);
},
{
closed = 1;
nodes = (
"115 525 OFFCURVE",
"76 487 OFFCURVE",
"76 441 CURVE SMOOTH",
"76 394 OFFCURVE",
"114 356 OFFCURVE",
"161 356 CURVE SMOOTH",
"207 356 OFFCURVE",
"245 394 OFFCURVE",
"245 441 CURVE SMOOTH",
"245 486 OFFCURVE",
"206 525 OFFCURVE",
"161 525 CURVE SMOOTH"
);
}
);
width = 321;
}
);
note = exclamdown;
unicode = 00A1;
},
{
glyphname = question;
lastChange = "2021-12-05 16:43:21 +0000";
layers = (
{
components = (
{
name = dotaccent;
transform = "{1, 0, 0, 1, 127, -588}";
}
);
layerId = "346FDC19-9F08-4641-B881-745A76183C31";
paths = (
{
closed = 1;
nodes = (
"338 709 OFFCURVE",
"300 715 OFFCURVE",
"266 715 CURVE SMOOTH",
"183 715 OFFCURVE",
"109 691 OFFCURVE",
"74 651 CURVE SMOOTH",
"37 608 OFFCURVE",
"27 547 OFFCURVE",
"66 504 CURVE",
"94 601 OFFCURVE",
"163 640 OFFCURVE",
"261 640 CURVE SMOOTH",
"331 640 OFFCURVE",
"391 606 OFFCURVE",
"391 543 CURVE SMOOTH",
"391 490 OFFCURVE",
"353 443 OFFCURVE",
"305 412 CURVE SMOOTH",
"254 380 OFFCURVE",
"220 353 OFFCURVE",
"204 318 CURVE SMOOTH",
"195 300 OFFCURVE",
"191 278 OFFCURVE",
"191 252 CURVE SMOOTH",
"191 180 LINE",
"277 180 LINE",
"277 249 LINE SMOOTH",
"277 301 OFFCURVE",
"301 319 OFFCURVE",
"354 353 CURVE SMOOTH",
"397 381 OFFCURVE",
"437 415 OFFCURVE",
"461 468 CURVE SMOOTH",
"473 495 OFFCURVE",
"479 522 OFFCURVE",
"479 551 CURVE SMOOTH",
"479 627 OFFCURVE",
"434 674 OFFCURVE",
"370 698 CURVE SMOOTH"
);
}
);
userData = {
assembly = "NPUSHB[ ]	/* 57 values pushed */\01216 15 2 2 0 1 76 5 1 2 0 4 0 2 4 128 0 0 0 1 97 0 1 1 40 77 0 4 4 3 97 6 1 3 3 41 3 78 34 33 0 0 40 38 33 44 34 44 0 32 0 32 38 42 7 8 24 \012CALL[ ]	/* CallFunction */";
};
width = 530;
},
{
associatedMasterId = "346FDC19-9F08-4641-B881-745A76183C31";
layerId = "541F4A62-0ECD-4B4B-B1D5-38FFB5FB401F";
name = "Extra Bold";
paths = (
{
closed = 1;
nodes = (
"321 208 LINE",
"321 249 LINE SMOOTH",
"321 288 OFFCURVE",
"340 302 OFFCURVE",
"394 336 CURVE SMOOTH",
"443 368 OFFCURVE",
"488 386 OFFCURVE",
"512 440 CURVE SMOOTH",
"526 472 OFFCURVE",
"533 500 OFFCURVE",
"533 531 CURVE SMOOTH",
"533 608 OFFCURVE",
"489 665 OFFCURVE",
"404 697 CURVE SMOOTH",
"369 710 OFFCURVE",
"331 715 OFFCURVE",
"294 715 CURVE SMOOTH",
"159 715 OFFCURVE",
"54 639 OFFCURVE",
"41 526 CURVE",
"181 487 LINE",
"189 567 OFFCURVE",
"224 595 OFFCURVE",
"290 595 CURVE SMOOTH",
"350 595 OFFCURVE",
"385 575 OFFCURVE",
"385 523 CURVE SMOOTH",
"385 481 OFFCURVE",
"358 458 OFFCURVE",
"313 429 CURVE SMOOTH",
"257 394 OFFCURVE",
"228 362 OFFCURVE",
"211 327 CURVE SMOOTH",
"200 304 OFFCURVE",
"195 282 OFFCURVE",
"195 252 CURVE SMOOTH",
"195 208 LINE"
);
},
{
closed = 1;
nodes = (
"302 -15 OFFCURVE",
"341 24 OFFCURVE",
"341 69 CURVE SMOOTH",
"341 116 OFFCURVE",
"303 159 OFFCURVE",
"257 159 CURVE SMOOTH",
"210 159 OFFCURVE",
"172 116 OFFCURVE",
"172 69 CURVE SMOOTH",
"172 23 OFFCURVE",
"211 -15 OFFCURVE",
"257 -15 CURVE SMOOTH"
);
}
);
width = 584;
}
);
note = question;
unicode = 003F;
},
{
glyphname = questiondown;
lastChange = "2021-12-15 06:50:03 +0000";
layers = (
{
components = (
{
name = question;
transform = "{-1, 0, 0, -1, 531, 500}";
}
);
layerId = "346FDC19-9F08-4641-B881-745A76183C31";
userData = {
assembly = "PUSHB[ ]	/* 7 values pushed */\01242 41 2 4 3 1 76 \012MPPEM[ ]	/* MeasurePixelPerEm */\012PUSHB[ ]	/* 1 value pushed */\01233 \012LT[ ]	/* LessThan */\012IF[ ]	/* If */\012NPUSHB[ ]	/* 31 values pushed */\0120 3 0 4 0 3 4 128 5 1 0 0 1 97 0 1 1 43 77 0 4 4 2 98 6 1 2 2 39 2 78 \012ELSE[ ]	/* Else */\012MPPEM[ ]	/* MeasurePixelPerEm */\012PUSHB[ ]	/* 1 value pushed */\01239 \012LT[ ]	/* LessThan */\012IF[ ]	/* If */\012NPUSHB[ ]	/* 29 values pushed */\0120 3 0 4 0 3 4 128 0 1 5 1 0 3 1 0 105 0 4 4 2 98 6 1 2 2 39 2 78 \012ELSE[ ]	/* Else */\012NPUSHB[ ]	/* 34 values pushed */\0120 3 0 4 0 3 4 128 0 1 5 1 0 3 1 0 105 0 4 2 2 4 89 0 4 4 2 98 6 1 2 4 2 82 \012EIF[ ]	/* EndIf */\012EIF[ ]	/* EndIf */\012NPUSHB[ ]	/* 21 values pushed */\01213 12 1 0 38 36 26 25 12 44 13 44 7 5 0 11 1 11 7 8 22 \012CALL[ ]	/* CallFunction */";
};
width = 531;
},
{
associatedMasterId = "346FDC19-9F08-4641-B881-745A76183C31";
layerId = "541F4A62-0ECD-4B4B-B1D5-38FFB5FB401F";
name = "Extra Bold";
paths = (
{
closed = 1;
nodes = (
"195 258 LINE SMOOTH",
"195 228 OFFCURVE",
"200 206 OFFCURVE",
"211 183 CURVE SMOOTH",
"228 148 OFFCURVE",
"257 116 OFFCURVE",
"313 81 CURVE SMOOTH",
"358 53 OFFCURVE",
"385 29 OFFCURVE",
"385 -13 CURVE SMOOTH",
"385 -65 OFFCURVE",
"350 -85 OFFCURVE",
"290 -85 CURVE SMOOTH",
"224 -85 OFFCURVE",
"189 -57 OFFCURVE",
"181 23 CURVE",
"41 -16 LINE",
"54 -129 OFFCURVE",
"159 -205 OFFCURVE",
"294 -205 CURVE SMOOTH",
"331 -205 OFFCURVE",
"369 -200 OFFCURVE",
"404 -187 CURVE SMOOTH",
"489 -155 OFFCURVE",
"533 -98 OFFCURVE",
"533 -21 CURVE SMOOTH",
"533 10 OFFCURVE",
"526 38 OFFCURVE",
"512 70 CURVE SMOOTH",
"488 124 OFFCURVE",
"443 142 OFFCURVE",
"394 174 CURVE SMOOTH",
"341 209 OFFCURVE",
"321 222 OFFCURVE",
"321 261 CURVE SMOOTH",
"321 302 LINE",
"195 302 LINE"
);
},
{
closed = 1;
nodes = (
"211 525 OFFCURVE",
"172 487 OFFCURVE",
"172 441 CURVE SMOOTH",
"172 394 OFFCURVE",
"210 351 OFFCURVE",
"257 351 CURVE SMOOTH",
"303 351 OFFCURVE",
"341 394 OFFCURVE",
"341 441 CURVE SMOOTH",
"341 486 OFFCURVE",
"302 525 OFFCURVE",
"257 525 CURVE SMOOTH"
);
}
);
width = 582;
}
);
note = questiondown;
unicode = 00BF;
},
{
glyphname = periodcentered;
lastChange = "2021-12-05 16:43:21 +0000";
layers = (
{
components = (
{
name = dotaccent;
transform = "{1, 0, 0, 1, 5, -390}";
}
);
layerId = "346FDC19-9F08-4641-B881-745A76183C31";
userData = {
assembly = "NPUSHB[ ]	/* 28 values pushed */\0120 1 0 0 1 89 0 1 1 0 97 2 1 0 1 0 81 1 0 7 5 0 11 1 11 3 8 22 \012CALL[ ]	/* CallFunction */";
};
width = 227;
},
{
associatedMasterId = "346FDC19-9F08-4641-B881-745A76183C31";
layerId = "541F4A62-0ECD-4B4B-B1D5-38FFB5FB401F";
name = "Extra Bold";
paths = (
{
closed = 1;
nodes = (
"164 163 OFFCURVE",
"202 201 OFFCURVE",
"202 248 CURVE SMOOTH",
"202 294 OFFCURVE",
"164 332 OFFCURVE",
"117 332 CURVE SMOOTH",
"71 332 OFFCURVE",
"33 294 OFFCURVE",
"33 248 CURVE SMOOTH",
"33 201 OFFCURVE",
"71 163 OFFCURVE",
"117 163 CURVE SMOOTH"
);
}
);
width = 235;
}
);
note = periodcentered;
unicode = 00B7;
},
{
glyphname = bullet;
lastChange = "2021-12-02 14:10:29 +0000";
layers = (
{
layerId = "346FDC19-9F08-4641-B881-745A76183C31";
paths = (
{
closed = 1;
nodes = (
"280 88 OFFCURVE",
"333 120 OFFCURVE",
"363 171 CURVE SMOOTH",
"378 196 OFFCURVE",
"385 224 OFFCURVE",
"385 254 CURVE SMOOTH",
"385 315 OFFCURVE",
"353 368 OFFCURVE",
"303 398 CURVE SMOOTH",
"278 413 OFFCURVE",
"250 420 OFFCURVE",
"219 420 CURVE SMOOTH",
"158 420 OFFCURVE",
"106 388 OFFCURVE",
"76 338 CURVE SMOOTH",
"61 313 OFFCURVE",
"53 285 OFFCURVE",
"53 254 CURVE SMOOTH",
"53 194 OFFCURVE",
"86 141 OFFCURVE",
"136 111 CURVE SMOOTH",
"161 96 OFFCURVE",
"188 88 OFFCURVE",
"219 88 CURVE SMOOTH"
);
}
);
userData = {
assembly = "NPUSHB[ ]	/* 28 values pushed */\0120 1 0 0 1 89 0 1 1 0 97 2 1 0 1 0 81 1 0 9 7 0 15 1 15 3 8 22 \012CALL[ ]	/* CallFunction */";
};
width = 438;
},
{
associatedMasterId = "346FDC19-9F08-4641-B881-745A76183C31";
layerId = "541F4A62-0ECD-4B4B-B1D5-38FFB5FB401F";
name = "Extra Bold";
paths = (
{
closed = 1;
nodes = (
"285 68 OFFCURVE",
"347 103 OFFCURVE",
"380 161 CURVE SMOOTH",
"396 189 OFFCURVE",
"405 220 OFFCURVE",
"405 254 CURVE SMOOTH",
"405 320 OFFCURVE",
"370 381 OFFCURVE",
"313 415 CURVE SMOOTH",
"286 431 OFFCURVE",
"254 440 OFFCURVE",
"219 440 CURVE SMOOTH",
"153 440 OFFCURVE",
"94 405 OFFCURVE",
"59 348 CURVE SMOOTH",
"42 320 OFFCURVE",
"33 288 OFFCURVE",
"33 254 CURVE SMOOTH",
"33 189 OFFCURVE",
"69 129 OFFCURVE",
"126 94 CURVE SMOOTH",
"154 77 OFFCURVE",
"186 68 OFFCURVE",
"219 68 CURVE SMOOTH"
);
}
);
width = 438;
}
);
note = bullet;
unicode = 2022;
},
{
glyphname = asterisk;
lastChange = "2021-12-03 08:40:57 +0000";
layers = (
{
layerId = "346FDC19-9F08-4641-B881-745A76183C31";
paths = (
{
closed = 1;
nodes = (
"215 507 LINE",
"278 421 LINE",
"324 455 LINE",
"261 541 LINE",
"363 573 LINE",
"345 628 LINE",
"244 595 LINE",
"244 701 LINE",
"187 701 LINE",
"187 595 LINE",
"86 628 LINE",
"68 573 LINE",
"169 541 LINE",
"107 455 LINE",
"153 421 LINE"
);
}
);
userData = {
assembly = "NPUSHB[ ]	/* 25 values pushed */\01214 13 12 11 10 9 8 5 4 3 2 1 12 0 73 0 0 0 34 0 78 22 1 8 23 \012CALL[ ]	/* CallFunction */";
};
width = 433;
},
{
associatedMasterId = "346FDC19-9F08-4641-B881-745A76183C31";
layerId = "541F4A62-0ECD-4B4B-B1D5-38FFB5FB401F";
name = "Extra Bold";
paths = (
{
closed = 1;
nodes = (
"215 452 LINE",
"274 372 LINE",
"352 430 LINE",
"294 509 LINE",
"388 539 LINE",
"358 632 LINE",
"264 602 LINE",
"264 700 LINE",
"167 700 LINE",
"167 602 LINE",
"73 632 LINE",
"43 539 LINE",
"137 509 LINE",
"79 430 LINE",
"157 372 LINE"
);
}
);
width = 433;
}
);
note = asterisk;
unicode = 002A;
},
{
glyphname = numbersign;
lastChange = "2021-12-05 16:43:21 +0000";
layers = (
{
layerId = "346FDC19-9F08-4641-B881-745A76183C31";
paths = (
{
closed = 1;
nodes = (
"172 0 LINE SMOOTH",
"203 0 OFFCURVE",
"221 16 OFFCURVE",
"225 46 CURVE SMOOTH",
"243 172 LINE",
"366 172 LINE",
"342 0 LINE",
"377 0 LINE SMOOTH",
"408 0 OFFCURVE",
"426 16 OFFCURVE",
"430 46 CURVE SMOOTH",
"448 172 LINE",
"525 172 LINE SMOOTH",
"556 172 OFFCURVE",
"574 188 OFFCURVE",
"578 218 CURVE SMOOTH",
"583 253 LINE",
"460 253 LINE",
"486 447 LINE",
"563 447 LINE SMOOTH",
"594 447 OFFCURVE",
"612 463 OFFCURVE",
"616 493 CURVE SMOOTH",
"621 528 LINE",
"498 528 LINE",
"522 700 LINE",
"487 700 LINE SMOOTH",
"456 700 OFFCURVE",
"438 684 OFFCURVE",
"434 654 CURVE SMOOTH",
"416 528 LINE",
"293 528 LINE",
"317 700 LINE",
"282 700 LINE SMOOTH",
"251 700 OFFCURVE",
"233 684 OFFCURVE",
"229 654 CURVE SMOOTH",
"211 528 LINE",
"134 528 LINE SMOOTH",
"103 528 OFFCURVE",
"85 512 OFFCURVE",
"81 482 CURVE SMOOTH",
"76 447 LINE",
"200 447 LINE",
"173 253 LINE",
"96 253 LINE SMOOTH",
"65 253 OFFCURVE",
"47 237 OFFCURVE",
"43 207 CURVE SMOOTH",
"38 172 LINE",
"162 172 LINE",
"137 0 LINE"
);
},
{
closed = 1;
nodes = (
"281 447 LINE",
"404 447 LINE",
"378 253 LINE",
"255 253 LINE"
);
}
);
userData = {
assembly = "NPUSHB[ ]	/* 70 values pushed */\01214 9 2 1 12 10 2 0 11 1 0 103 6 1 4 4 34 77 15 8 2 2 2 3 95 7 5 2 3 3 37 77 16 13 2 11 11 35 11 78 0 0 31 30 29 28 0 27 0 27 26 25 24 23 22 21 20 19 17 17 17 17 17 17 17 17 17 17 8 31 \012CALL[ ]	/* CallFunction */";
};
width = 659;
},
{
associatedMasterId = "346FDC19-9F08-4641-B881-745A76183C31";
layerId = "541F4A62-0ECD-4B4B-B1D5-38FFB5FB401F";
name = "Extra Bold";
paths = (
{
closed = 1;
nodes = (
"259 0 LINE",
"283 172 LINE",
"366 172 LINE",
"342 0 LINE",
"464 0 LINE",
"488 172 LINE",
"612 172 LINE",
"629 293 LINE",
"506 293 LINE",
"526 407 LINE",
"650 407 LINE",
"667 528 LINE",
"544 528 LINE",
"568 700 LINE",
"446 700 LINE",
"422 528 LINE",
"339 528 LINE",
"363 700 LINE",
"241 700 LINE",
"217 528 LINE",
"93 528 LINE",
"76 407 LINE",
"200 407 LINE",
"179 293 LINE",
"55 293 LINE",
"38 172 LINE",
"162 172 LINE",
"137 0 LINE"
);
},
{
closed = 1;
nodes = (
"321 407 LINE",
"404 407 LINE",
"384 293 LINE",
"301 293 LINE"
);
}
);
width = 701;
}
);
note = numbersign;
unicode = 0023;
},
{
glyphname = slash;
lastChange = "2021-12-02 14:10:29 +0000";
layers = (
{
layerId = "346FDC19-9F08-4641-B881-745A76183C31";
paths = (
{
closed = 1;
nodes = (
"102 0 LINE",
"374 700 LINE",
"287 700 LINE",
"15 0 LINE"
);
}
);
userData = {
assembly = "NPUSHB[ ]	/* 22 values pushed */\0120 0 0 34 77 2 1 1 1 35 1 78 0 0 0 3 0 3 17 3 8 23 \012CALL[ ]	/* CallFunction */";
};
width = 389;
},
{
associatedMasterId = "346FDC19-9F08-4641-B881-745A76183C31";
layerId = "541F4A62-0ECD-4B4B-B1D5-38FFB5FB401F";
name = "Extra Bold";
paths = (
{
closed = 1;
nodes = (
"158 0 LINE",
"430 700 LINE",
"287 700 LINE",
"15 0 LINE"
);
}
);
width = 445;
}
);
note = slash;
unicode = 002F;
},
{
glyphname = backslash;
lastChange = "2021-12-02 14:10:29 +0000";
layers = (
{
layerId = "346FDC19-9F08-4641-B881-745A76183C31";
paths = (
{
closed = 1;
nodes = (
"374 0 LINE",
"102 700 LINE",
"15 700 LINE",
"287 0 LINE"
);
}
);
userData = {
assembly = "NPUSHB[ ]	/* 22 values pushed */\0120 0 0 34 77 2 1 1 1 35 1 78 0 0 0 3 0 3 17 3 8 23 \012CALL[ ]	/* CallFunction */";
};
width = 389;
},
{
associatedMasterId = "346FDC19-9F08-4641-B881-745A76183C31";
layerId = "541F4A62-0ECD-4B4B-B1D5-38FFB5FB401F";
name = "Extra Bold";
paths = (
{
closed = 1;
nodes = (
"430 0 LINE",
"158 700 LINE",
"15 700 LINE",
"287 0 LINE"
);
}
);
width = 445;
}
);
note = backslash;
unicode = 005C;
},
{
glyphname = parenleft;
lastChange = "2021-12-05 16:43:21 +0000";
layers = (
{
layerId = "346FDC19-9F08-4641-B881-745A76183C31";
paths = (
{
closed = 1;
nodes = (
"268 -155 LINE",
"167 -18 OFFCURVE",
"124 152 OFFCURVE",
"124 297 CURVE SMOOTH",
"124 452 OFFCURVE",
"173 607 OFFCURVE",
"238 700 CURVE",
"163 700 LINE",
"90 583 OFFCURVE",
"50 435 OFFCURVE",
"50 299 CURVE SMOOTH",
"50 144 OFFCURVE",
"100 -24 OFFCURVE",
"192 -155 CURVE"
);
}
);
userData = {
assembly = "NPUSHB[ ]	/* 22 values pushed */\0120 0 0 34 77 2 1 1 1 39 1 78 0 0 0 13 0 13 22 3 8 23 \012CALL[ ]	/* CallFunction */";
};
width = 303;
},
{
associatedMasterId = "346FDC19-9F08-4641-B881-745A76183C31";
layerId = "541F4A62-0ECD-4B4B-B1D5-38FFB5FB401F";
name = "Extra Bold";
paths = (
{
closed = 1;
nodes = (
"323 -155 LINE",
"239 -40 OFFCURVE",
"185 135 OFFCURVE",
"185 297 CURVE SMOOTH",
"185 440 OFFCURVE",
"231 610 OFFCURVE",
"293 700 CURVE",
"169 700 LINE",
"91 575 OFFCURVE",
"51 438 OFFCURVE",
"51 299 CURVE SMOOTH",
"51 139 OFFCURVE",
"102 -17 OFFCURVE",
"199 -155 CURVE"
);
}
);
width = 359;
}
);
note = parenleft;
unicode = 0028;
},
{
glyphname = parenright;
lastChange = "2021-12-05 16:43:21 +0000";
layers = (
{
layerId = "346FDC19-9F08-4641-B881-745A76183C31";
paths = (
{
closed = 1;
nodes = (
"203 -24 OFFCURVE",
"253 144 OFFCURVE",
"253 299 CURVE SMOOTH",
"253 435 OFFCURVE",
"213 583 OFFCURVE",
"140 700 CURVE",
"65 700 LINE",
"130 607 OFFCURVE",
"179 452 OFFCURVE",
"179 297 CURVE SMOOTH",
"179 152 OFFCURVE",
"136 -18 OFFCURVE",
"35 -155 CURVE",
"111 -155 LINE"
);
}
);
userData = {
assembly = "NPUSHB[ ]	/* 22 values pushed */\0120 0 0 34 77 2 1 1 1 39 1 78 0 0 0 13 0 13 22 3 8 23 \012CALL[ ]	/* CallFunction */";
};
width = 303;
},
{
associatedMasterId = "346FDC19-9F08-4641-B881-745A76183C31";
layerId = "541F4A62-0ECD-4B4B-B1D5-38FFB5FB401F";
name = "Extra Bold";
paths = (
{
closed = 1;
nodes = (
"257 -17 OFFCURVE",
"308 140 OFFCURVE",
"308 299 CURVE SMOOTH",
"308 438 OFFCURVE",
"268 575 OFFCURVE",
"190 700 CURVE",
"65 700 LINE",
"128 611 OFFCURVE",
"174 441 OFFCURVE",
"174 297 CURVE SMOOTH",
"174 134 OFFCURVE",
"120 -41 OFFCURVE",
"36 -155 CURVE",
"161 -155 LINE"
);
}
);
width = 359;
}
);
note = parenright;
unicode = 0029;
},
{
glyphname = braceleft;
lastChange = "2021-12-05 16:43:21 +0000";
layers = (
{
layerId = "346FDC19-9F08-4641-B881-745A76183C31";
paths = (
{
closed = 1;
nodes = (
"285 -151 LINE",
"285 -80 LINE",
"243 -80 LINE SMOOTH",
"199 -80 OFFCURVE",
"192 -68 OFFCURVE",
"192 -16 CURVE SMOOTH",
"192 147 LINE SMOOTH",
"192 230 OFFCURVE",
"164 260 OFFCURVE",
"113 273 CURVE",
"113 274 LINE",
"161 287 OFFCURVE",
"192 316 OFFCURVE",
"192 400 CURVE SMOOTH",
"192 563 LINE SMOOTH",
"192 614 OFFCURVE",
"199 627 OFFCURVE",
"243 627 CURVE SMOOTH",
"285 627 LINE",
"285 698 LINE",
"242 698 LINE SMOOTH",
"167 698 OFFCURVE",
"131 683 OFFCURVE",
"118 644 CURVE SMOOTH",
"111 624 OFFCURVE",
"108 597 OFFCURVE",
"108 562 CURVE SMOOTH",
"108 402 LINE SMOOTH",
"108 345 OFFCURVE",
"101 307 OFFCURVE",
"38 307 CURVE",
"38 240 LINE",
"101 240 OFFCURVE",
"108 202 OFFCURVE",
"108 145 CURVE SMOOTH",
"108 -15 LINE SMOOTH",
"108 -83 OFFCURVE",
"118 -122 OFFCURVE",
"157 -139 CURVE SMOOTH",
"176 -147 OFFCURVE",
"205 -151 OFFCURVE",
"242 -151 CURVE SMOOTH"
);
}
);
userData = {
assembly = "NPUSHB[ ]	/* 55 values pushed */\01227 1 1 2 1 76 0 2 0 1 5 2 1 105 0 4 4 3 97 0 3 3 34 77 0 5 5 0 97 6 1 0 0 39 0 78 1 0 36 34 21 19 18 16 10 9 8 7 0 37 1 37 7 8 22 \012CALL[ ]	/* CallFunction */";
};
width = 319;
},
{
associatedMasterId = "346FDC19-9F08-4641-B881-745A76183C31";
layerId = "541F4A62-0ECD-4B4B-B1D5-38FFB5FB401F";
name = "Extra Bold";
paths = (
{
closed = 1;
nodes = (
"326 -155 LINE",
"326 -44 LINE",
"264 -44 LINE SMOOTH",
"245 -44 OFFCURVE",
"233 -34 OFFCURVE",
"233 0 CURVE SMOOTH",
"233 146 LINE SMOOTH",
"233 231 OFFCURVE",
"175 275 OFFCURVE",
"124 288 CURVE",
"124 258 LINE",
"174 271 OFFCURVE",
"233 316 OFFCURVE",
"233 399 CURVE SMOOTH",
"233 545 LINE SMOOTH",
"233 578 OFFCURVE",
"245 589 OFFCURVE",
"264 589 CURVE SMOOTH",
"326 589 LINE",
"326 700 LINE",
"263 700 LINE SMOOTH",
"179 700 OFFCURVE",
"136 680 OFFCURVE",
"120 632 CURVE SMOOTH",
"113 611 OFFCURVE",
"109 583 OFFCURVE",
"109 544 CURVE SMOOTH",
"109 401 LINE SMOOTH",
"109 331 OFFCURVE",
"97 323 OFFCURVE",
"39 327 CURVE",
"39 218 LINE",
"97 222 OFFCURVE",
"109 214 OFFCURVE",
"109 144 CURVE SMOOTH",
"109 1 LINE SMOOTH",
"109 -81 OFFCURVE",
"126 -123 OFFCURVE",
"170 -141 CURVE SMOOTH",
"192 -150 OFFCURVE",
"223 -155 OFFCURVE",
"263 -155 CURVE SMOOTH"
);
}
);
width = 361;
}
);
note = braceleft;
unicode = 007B;
},
{
glyphname = braceright;
lastChange = "2021-12-05 16:43:21 +0000";
layers = (
{
layerId = "346FDC19-9F08-4641-B881-745A76183C31";
paths = (
{
closed = 1;
nodes = (
"152 -151 OFFCURVE",
"188 -136 OFFCURVE",
"201 -96 CURVE SMOOTH",
"208 -76 OFFCURVE",
"211 -49 OFFCURVE",
"211 -15 CURVE SMOOTH",
"211 145 LINE SMOOTH",
"211 202 OFFCURVE",
"218 240 OFFCURVE",
"281 240 CURVE",
"281 307 LINE",
"218 307 OFFCURVE",
"211 345 OFFCURVE",
"211 402 CURVE SMOOTH",
"211 562 LINE SMOOTH",
"211 631 OFFCURVE",
"201 669 OFFCURVE",
"162 686 CURVE SMOOTH",
"143 694 OFFCURVE",
"114 698 OFFCURVE",
"77 698 CURVE SMOOTH",
"34 698 LINE",
"34 627 LINE",
"76 627 LINE SMOOTH",
"120 627 OFFCURVE",
"127 614 OFFCURVE",
"127 563 CURVE SMOOTH",
"127 400 LINE SMOOTH",
"127 316 OFFCURVE",
"158 287 OFFCURVE",
"206 274 CURVE",
"206 273 LINE",
"155 260 OFFCURVE",
"127 230 OFFCURVE",
"127 147 CURVE SMOOTH",
"127 -16 LINE SMOOTH",
"127 -68 OFFCURVE",
"120 -80 OFFCURVE",
"76 -80 CURVE SMOOTH",
"34 -80 LINE",
"34 -151 LINE",
"77 -151 LINE SMOOTH"
);
}
);
userData = {
assembly = "NPUSHB[ ]	/* 50 values pushed */\0129 1 4 3 1 76 0 3 0 4 0 3 4 105 0 1 1 2 97 0 2 2 34 77 0 0 0 5 97 6 1 5 5 39 5 78 0 0 0 37 0 36 17 22 33 45 33 7 8 27 \012CALL[ ]	/* CallFunction */";
};
width = 319;
},
{
associatedMasterId = "346FDC19-9F08-4641-B881-745A76183C31";
layerId = "541F4A62-0ECD-4B4B-B1D5-38FFB5FB401F";
name = "Extra Bold";
paths = (
{
closed = 1;
nodes = (
"138 -155 OFFCURVE",
"169 -150 OFFCURVE",
"191 -141 CURVE SMOOTH",
"235 -123 OFFCURVE",
"252 -81 OFFCURVE",
"252 1 CURVE SMOOTH",
"252 144 LINE SMOOTH",
"252 214 OFFCURVE",
"264 222 OFFCURVE",
"322 218 CURVE",
"322 327 LINE",
"264 323 OFFCURVE",
"252 331 OFFCURVE",
"252 401 CURVE SMOOTH",
"252 544 LINE SMOOTH",
"252 583 OFFCURVE",
"248 611 OFFCURVE",
"241 632 CURVE SMOOTH",
"225 680 OFFCURVE",
"182 700 OFFCURVE",
"98 700 CURVE SMOOTH",
"35 700 LINE",
"35 589 LINE",
"97 589 LINE SMOOTH",
"116 589 OFFCURVE",
"128 578 OFFCURVE",
"128 545 CURVE SMOOTH",
"128 399 LINE SMOOTH",
"128 316 OFFCURVE",
"187 271 OFFCURVE",
"237 258 CURVE",
"237 288 LINE",
"186 275 OFFCURVE",
"128 231 OFFCURVE",
"128 146 CURVE SMOOTH",
"128 0 LINE SMOOTH",
"128 -34 OFFCURVE",
"116 -44 OFFCURVE",
"97 -44 CURVE SMOOTH",
"35 -44 LINE",
"35 -155 LINE",
"98 -155 LINE SMOOTH"
);
}
);
width = 361;
}
);
note = braceright;
unicode = 007D;
},
{
glyphname = bracketleft;
lastChange = "2021-12-05 16:43:21 +0000";
layers = (
{
layerId = "346FDC19-9F08-4641-B881-745A76183C31";
paths = (
{
closed = 1;
nodes = (
"282 -151 LINE",
"282 -77 LINE",
"157 -77 LINE",
"157 626 LINE",
"282 626 LINE",
"282 700 LINE",
"76 700 LINE",
"76 -151 LINE"
);
}
);
userData = {
assembly = "NPUSHB[ ]	/* 34 values pushed */\0120 1 1 0 95 0 0 0 34 77 0 2 2 3 95 4 1 3 3 39 3 78 0 0 0 7 0 7 17 17 17 5 8 25 \012CALL[ ]	/* CallFunction */";
};
width = 315;
},
{
associatedMasterId = "346FDC19-9F08-4641-B881-745A76183C31";
layerId = "541F4A62-0ECD-4B4B-B1D5-38FFB5FB401F";
name = "Extra Bold";
paths = (
{
closed = 1;
nodes = (
"343 -151 LINE",
"343 -36 LINE",
"218 -36 LINE",
"218 585 LINE",
"343 585 LINE",
"343 700 LINE",
"77 700 LINE",
"77 -151 LINE"
);
}
);
width = 377;
}
);
note = bracketleft;
unicode = 005B;
},
{
glyphname = bracketright;
lastChange = "2021-12-05 16:43:21 +0000";
layers = (
{
layerId = "346FDC19-9F08-4641-B881-745A76183C31";
paths = (
{
closed = 1;
nodes = (
"239 700 LINE",
"33 700 LINE",
"33 626 LINE",
"158 626 LINE",
"158 -77 LINE",
"33 -77 LINE",
"33 -151 LINE",
"239 -151 LINE"
);
}
);
userData = {
assembly = "NPUSHB[ ]	/* 34 values pushed */\0120 1 1 2 95 0 2 2 34 77 0 0 0 3 95 4 1 3 3 39 3 78 0 0 0 7 0 7 17 17 17 5 8 25 \012CALL[ ]	/* CallFunction */";
};
width = 315;
},
{
associatedMasterId = "346FDC19-9F08-4641-B881-745A76183C31";
layerId = "541F4A62-0ECD-4B4B-B1D5-38FFB5FB401F";
name = "Extra Bold";
paths = (
{
closed = 1;
nodes = (
"300 700 LINE",
"34 700 LINE",
"34 585 LINE",
"159 585 LINE",
"159 -36 LINE",
"34 -36 LINE",
"34 -151 LINE",
"300 -151 LINE"
);
}
);
width = 377;
}
);
note = bracketright;
unicode = 005D;
},
{
glyphname = hyphen;
lastChange = "2021-12-05 16:43:21 +0000";
layers = (
{
layerId = "346FDC19-9F08-4641-B881-745A76183C31";
paths = (
{
closed = 1;
nodes = (
"330 210 LINE",
"330 292 LINE",
"38 292 LINE",
"38 210 LINE"
);
}
);
userData = {
assembly = "NPUSHB[ ]	/* 27 values pushed */\0120 0 1 1 0 87 0 0 0 1 95 2 1 1 0 1 79 0 0 0 3 0 3 17 3 8 23 \012CALL[ ]	/* CallFunction */";
};
width = 368;
},
{
associatedMasterId = "346FDC19-9F08-4641-B881-745A76183C31";
layerId = "541F4A62-0ECD-4B4B-B1D5-38FFB5FB401F";
name = "Extra Bold";
paths = (
{
closed = 1;
nodes = (
"391 201 LINE",
"391 323 LINE",
"39 323 LINE",
"39 201 LINE"
);
}
);
width = 430;
}
);
note = hyphen;
unicode = 002D;
},
{
glyphname = uni00AD;
lastChange = "2021-12-05 16:43:21 +0000";
layers = (
{
layerId = "346FDC19-9F08-4641-B881-745A76183C31";
paths = (
{
closed = 1;
nodes = (
"310 210 LINE",
"310 292 LINE",
"38 292 LINE",
"38 210 LINE"
);
}
);
userData = {
assembly = "NPUSHB[ ]	/* 27 values pushed */\0120 0 1 1 0 87 0 0 0 1 95 2 1 1 0 1 79 0 0 0 3 0 3 17 3 8 23 \012CALL[ ]	/* CallFunction */";
};
width = 348;
},
{
associatedMasterId = "346FDC19-9F08-4641-B881-745A76183C31";
layerId = "541F4A62-0ECD-4B4B-B1D5-38FFB5FB401F";
name = "Extra Bold";
paths = (
{
closed = 1;
nodes = (
"341 200 LINE",
"341 322 LINE",
"9 322 LINE",
"9 200 LINE"
);
}
);
width = 350;
}
);
note = uni00AD;
unicode = 00AD;
},
{
glyphname = endash;
lastChange = "2021-12-02 14:10:29 +0000";
layers = (
{
layerId = "346FDC19-9F08-4641-B881-745A76183C31";
paths = (
{
closed = 1;
nodes = (
"440 211 LINE",
"440 291 LINE",
"42 291 LINE",
"42 211 LINE"
);
}
);
userData = {
assembly = "NPUSHB[ ]	/* 27 values pushed */\0120 0 1 1 0 87 0 0 0 1 95 2 1 1 0 1 79 0 0 0 3 0 3 17 3 8 23 \012CALL[ ]	/* CallFunction */";
};
width = 482;
},
{
associatedMasterId = "346FDC19-9F08-4641-B881-745A76183C31";
layerId = "541F4A62-0ECD-4B4B-B1D5-38FFB5FB401F";
name = "Extra Bold";
paths = (
{
closed = 1;
nodes = (
"500 201 LINE",
"500 321 LINE",
"42 321 LINE",
"42 201 LINE"
);
}
);
width = 542;
}
);
note = endash;
unicode = 2013;
},
{
glyphname = emdash;
lastChange = "2021-12-05 16:43:21 +0000";
layers = (
{
layerId = "346FDC19-9F08-4641-B881-745A76183C31";
paths = (
{
closed = 1;
nodes = (
"759 211 LINE",
"759 291 LINE",
"41 291 LINE",
"41 211 LINE"
);
}
);
userData = {
assembly = "NPUSHB[ ]	/* 27 values pushed */\0120 0 1 1 0 87 0 0 0 1 95 2 1 1 0 1 79 0 0 0 3 0 3 17 3 8 23 \012CALL[ ]	/* CallFunction */";
};
width = 800;
},
{
associatedMasterId = "346FDC19-9F08-4641-B881-745A76183C31";
layerId = "541F4A62-0ECD-4B4B-B1D5-38FFB5FB401F";
name = "Extra Bold";
paths = (
{
closed = 1;
nodes = (
"820 201 LINE",
"820 321 LINE",
"42 321 LINE",
"42 201 LINE"
);
}
);
width = 862;
}
);
note = emdash;
unicode = 2014;
},
{
glyphname = underscore;
lastChange = "2021-12-02 14:10:29 +0000";
layers = (
{
layerId = "346FDC19-9F08-4641-B881-745A76183C31";
paths = (
{
closed = 1;
nodes = (
"386 -80 LINE",
"386 0 LINE",
"10 0 LINE",
"10 -80 LINE"
);
}
);
userData = {
assembly = "PUSHB[ ]	/* 2 values pushed */\0126 100 \012WCVTP[ ]	/* WriteCVTInPixels */\012NPUSHB[ ]	/* 27 values pushed */\0120 0 1 1 0 87 0 0 0 1 95 2 1 1 0 1 79 0 0 0 3 0 3 17 3 8 23 \012CALL[ ]	/* CallFunction */\012PUSHB[ ]	/* 2 values pushed */\0126 0 \012WCVTP[ ]	/* WriteCVTInPixels */";
};
width = 396;
},
{
associatedMasterId = "346FDC19-9F08-4641-B881-745A76183C31";
layerId = "541F4A62-0ECD-4B4B-B1D5-38FFB5FB401F";
name = "Extra Bold";
paths = (
{
closed = 1;
nodes = (
"446 -120 LINE",
"446 0 LINE",
"10 0 LINE",
"10 -120 LINE"
);
}
);
width = 456;
}
);
note = underscore;
unicode = 005F;
},
{
glyphname = quotesinglbase;
lastChange = "2021-12-05 16:43:21 +0000";
layers = (
{
components = (
{
name = comma;
transform = "{1, 0, 0, 1, 15, 0}";
}
);
layerId = "346FDC19-9F08-4641-B881-745A76183C31";
userData = {
assembly = "NPUSHB[ ]	/* 33 values pushed */\0121 1 1 0 1 76 0 0 1 1 0 89 0 0 0 1 95 2 1 1 0 1 79 0 0 0 13 0 13 38 3 8 23 \012CALL[ ]	/* CallFunction */";
};
width = 234;
},
{
associatedMasterId = "346FDC19-9F08-4641-B881-745A76183C31";
layerId = "541F4A62-0ECD-4B4B-B1D5-38FFB5FB401F";
name = "Extra Bold";
paths = (
{
closed = 1;
nodes = (
"142 -136 LINE",
"213 29 LINE SMOOTH",
"219 42 OFFCURVE",
"223 61 OFFCURVE",
"223 70 CURVE SMOOTH",
"223 116 OFFCURVE",
"185 154 OFFCURVE",
"138 154 CURVE SMOOTH",
"92 154 OFFCURVE",
"54 116 OFFCURVE",
"54 70 CURVE SMOOTH",
"54 37 OFFCURVE",
"78 -2 OFFCURVE",
"112 -8 CURVE",
"59 -136 LINE"
);
}
);
width = 277;
}
);
note = quotesinglbase;
rightKerningGroup = quotesinglbase;
unicode = 201A;
},
{
glyphname = quotedblbase;
lastChange = "2021-12-05 16:43:21 +0000";
layers = (
{
components = (
{
name = comma;
transform = "{1, 0, 0, 1, 179, 0}";
},
{
name = comma;
transform = "{1, 0, 0, 1, 15, 0}";
}
);
layerId = "346FDC19-9F08-4641-B881-745A76183C31";
userData = {
assembly = "NPUSHB[ ]	/* 46 values pushed */\01215 1 2 1 0 1 76 2 1 0 1 1 0 89 2 1 0 0 1 95 5 3 4 3 1 0 1 79 14 14 0 0 14 27 14 27 22 20 0 13 0 13 38 6 8 23 \012CALL[ ]	/* CallFunction */";
};
width = 399;
},
{
associatedMasterId = "346FDC19-9F08-4641-B881-745A76183C31";
layerId = "541F4A62-0ECD-4B4B-B1D5-38FFB5FB401F";
name = "Extra Bold";
paths = (
{
closed = 1;
nodes = (
"141 -136 LINE",
"212 29 LINE SMOOTH",
"218 42 OFFCURVE",
"222 61 OFFCURVE",
"222 70 CURVE SMOOTH",
"222 117 OFFCURVE",
"184 154 OFFCURVE",
"137 154 CURVE SMOOTH",
"91 154 OFFCURVE",
"53 116 OFFCURVE",
"53 70 CURVE SMOOTH",
"53 37 OFFCURVE",
"77 -2 OFFCURVE",
"111 -8 CURVE",
"58 -136 LINE"
);
},
{
closed = 1;
nodes = (
"342 -136 LINE",
"413 29 LINE SMOOTH",
"419 42 OFFCURVE",
"423 61 OFFCURVE",
"423 70 CURVE SMOOTH",
"423 117 OFFCURVE",
"385 154 OFFCURVE",
"338 154 CURVE SMOOTH",
"292 154 OFFCURVE",
"254 116 OFFCURVE",
"254 70 CURVE SMOOTH",
"254 37 OFFCURVE",
"278 -2 OFFCURVE",
"312 -8 CURVE",
"259 -136 LINE"
);
}
);
width = 476;
}
);
note = quotedblbase;
rightKerningGroup = quotesinglbase;
unicode = 201E;
},
{
glyphname = quotedblleft;
lastChange = "2021-12-05 16:43:21 +0000";
layers = (
{
components = (
{
name = quotedblbase;
transform = "{-1, 0, 0, -1, 398, 564}";
}
);
layerId = "346FDC19-9F08-4641-B881-745A76183C31";
userData = {
assembly = "NPUSHB[ ]	/* 41 values pushed */\01224 9 2 0 1 1 76 5 2 4 3 0 0 1 95 3 1 1 1 34 0 78 16 15 1 0 23 22 15 29 16 29 8 7 0 14 1 14 6 8 22 \012CALL[ ]	/* CallFunction */";
};
width = 398;
},
{
associatedMasterId = "346FDC19-9F08-4641-B881-745A76183C31";
layerId = "541F4A62-0ECD-4B4B-B1D5-38FFB5FB401F";
name = "Extra Bold";
paths = (
{
closed = 1;
nodes = (
"335 700 LINE",
"264 535 LINE SMOOTH",
"258 522 OFFCURVE",
"254 503 OFFCURVE",
"254 494 CURVE SMOOTH",
"254 447 OFFCURVE",
"292 410 OFFCURVE",
"339 410 CURVE SMOOTH",
"385 410 OFFCURVE",
"423 448 OFFCURVE",
"423 494 CURVE SMOOTH",
"423 527 OFFCURVE",
"399 566 OFFCURVE",
"365 572 CURVE",
"418 700 LINE"
);
},
{
closed = 1;
nodes = (
"134 700 LINE",
"63 535 LINE SMOOTH",
"57 522 OFFCURVE",
"53 503 OFFCURVE",
"53 494 CURVE SMOOTH",
"53 447 OFFCURVE",
"91 410 OFFCURVE",
"138 410 CURVE SMOOTH",
"184 410 OFFCURVE",
"222 448 OFFCURVE",
"222 494 CURVE SMOOTH",
"222 527 OFFCURVE",
"198 566 OFFCURVE",
"164 572 CURVE",
"217 700 LINE"
);
}
);
width = 476;
}
);
note = quotedblleft;
unicode = 201C;
},
{
glyphname = quotedblright;
lastChange = "2021-12-05 16:43:21 +0000";
layers = (
{
components = (
{
name = quotedblbase;
transform = "{1, 0, 0, 1, 1, 601}";
}
);
layerId = "346FDC19-9F08-4641-B881-745A76183C31";
userData = {
assembly = "NPUSHB[ ]	/* 40 values pushed */\01215 1 2 1 0 1 76 5 3 4 3 1 1 0 97 2 1 0 0 40 1 78 14 14 0 0 14 27 14 27 22 20 0 13 0 13 38 6 8 23 \012CALL[ ]	/* CallFunction */";
};
width = 400;
},
{
associatedMasterId = "346FDC19-9F08-4641-B881-745A76183C31";
layerId = "541F4A62-0ECD-4B4B-B1D5-38FFB5FB401F";
name = "Extra Bold";
paths = (
{
closed = 1;
nodes = (
"142 426 LINE",
"213 591 LINE SMOOTH",
"219 604 OFFCURVE",
"223 623 OFFCURVE",
"223 632 CURVE SMOOTH",
"223 679 OFFCURVE",
"185 716 OFFCURVE",
"138 716 CURVE SMOOTH",
"92 716 OFFCURVE",
"54 678 OFFCURVE",
"54 632 CURVE SMOOTH",
"54 599 OFFCURVE",
"78 560 OFFCURVE",
"112 554 CURVE",
"59 426 LINE"
);
},
{
closed = 1;
nodes = (
"343 426 LINE",
"414 591 LINE SMOOTH",
"420 604 OFFCURVE",
"424 623 OFFCURVE",
"424 632 CURVE SMOOTH",
"424 679 OFFCURVE",
"386 716 OFFCURVE",
"339 716 CURVE SMOOTH",
"293 716 OFFCURVE",
"255 678 OFFCURVE",
"255 632 CURVE SMOOTH",
"255 599 OFFCURVE",
"279 560 OFFCURVE",
"313 554 CURVE",
"260 426 LINE"
);
}
);
width = 478;
}
);
note = quotedblright;
rightKerningGroup = quoteright;
unicode = 201D;
},
{
glyphname = quoteleft;
lastChange = "2021-12-05 16:43:21 +0000";
layers = (
{
components = (
{
name = quotesinglbase;
transform = "{-1, 0, 0, -1, 236, 564}";
}
);
layerId = "346FDC19-9F08-4641-B881-745A76183C31";
userData = {
assembly = "NPUSHB[ ]	/* 29 values pushed */\0128 1 0 1 1 76 2 1 0 0 1 95 0 1 1 34 0 78 1 0 7 6 0 13 1 13 3 8 22 \012CALL[ ]	/* CallFunction */";
};
width = 236;
},
{
associatedMasterId = "346FDC19-9F08-4641-B881-745A76183C31";
layerId = "541F4A62-0ECD-4B4B-B1D5-38FFB5FB401F";
name = "Extra Bold";
paths = (
{
closed = 1;
nodes = (
"134 700 LINE",
"63 535 LINE SMOOTH",
"57 522 OFFCURVE",
"53 503 OFFCURVE",
"53 494 CURVE SMOOTH",
"53 447 OFFCURVE",
"91 410 OFFCURVE",
"138 410 CURVE SMOOTH",
"184 410 OFFCURVE",
"222 448 OFFCURVE",
"222 494 CURVE SMOOTH",
"222 527 OFFCURVE",
"198 566 OFFCURVE",
"164 572 CURVE",
"217 700 LINE"
);
}
);
width = 275;
}
);
note = quoteleft;
unicode = 2018;
},
{
glyphname = quoteright;
lastChange = "2021-12-05 16:43:21 +0000";
layers = (
{
components = (
{
name = quotesinglbase;
transform = "{1, 0, 0, 1, -1, 601}";
}
);
layerId = "346FDC19-9F08-4641-B881-745A76183C31";
userData = {
assembly = "NPUSHB[ ]	/* 28 values pushed */\0121 1 1 0 1 76 2 1 1 1 0 97 0 0 0 40 1 78 0 0 0 13 0 13 38 3 8 23 \012CALL[ ]	/* CallFunction */";
};
width = 234;
},
{
associatedMasterId = "346FDC19-9F08-4641-B881-745A76183C31";
layerId = "541F4A62-0ECD-4B4B-B1D5-38FFB5FB401F";
name = "Extra Bold";
paths = (
{
closed = 1;
nodes = (
"142 426 LINE",
"213 591 LINE SMOOTH",
"219 604 OFFCURVE",
"223 623 OFFCURVE",
"223 632 CURVE SMOOTH",
"223 679 OFFCURVE",
"185 716 OFFCURVE",
"138 716 CURVE SMOOTH",
"92 716 OFFCURVE",
"54 678 OFFCURVE",
"54 632 CURVE SMOOTH",
"54 599 OFFCURVE",
"78 560 OFFCURVE",
"112 554 CURVE",
"59 426 LINE"
);
}
);
width = 277;
}
);
note = quoteright;
rightKerningGroup = quoteright;
unicode = 2019;
},
{
glyphname = guillemotleft;
lastChange = "2021-12-05 16:43:21 +0000";
layers = (
{
layerId = "346FDC19-9F08-4641-B881-745A76183C31";
paths = (
{
closed = 1;
nodes = (
"300 40 LINE",
"151 251 LINE",
"300 461 LINE",
"259 461 LINE SMOOTH",
"219 461 OFFCURVE",
"191 447 OFFCURVE",
"168 414 CURVE SMOOTH",
"53 251 LINE",
"168 87 LINE SMOOTH",
"191 54 OFFCURVE",
"219 40 OFFCURVE",
"259 40 CURVE SMOOTH"
);
},
{
closed = 1;
nodes = (
"509 40 LINE",
"359 251 LINE",
"509 461 LINE",
"467 461 LINE SMOOTH",
"427 461 OFFCURVE",
"399 447 OFFCURVE",
"376 414 CURVE SMOOTH",
"262 251 LINE",
"376 87 LINE SMOOTH",
"399 54 OFFCURVE",
"427 40 OFFCURVE",
"467 40 CURVE SMOOTH"
);
}
);
userData = {
assembly = "NPUSHB[ ]	/* 48 values pushed */\01210 7 4 1 4 1 0 1 76 2 1 0 1 1 0 87 2 1 0 0 1 95 5 3 4 3 1 0 1 79 6 6 0 0 6 11 6 11 9 8 0 5 0 5 18 6 8 23 \012CALL[ ]	/* CallFunction */";
};
width = 562;
},
{
associatedMasterId = "346FDC19-9F08-4641-B881-745A76183C31";
layerId = "541F4A62-0ECD-4B4B-B1D5-38FFB5FB401F";
name = "Extra Bold";
paths = (
{
closed = 1;
nodes = (
"371 45 LINE",
"218 256 LINE",
"371 466 LINE",
"206 466 LINE",
"54 256 LINE",
"206 45 LINE"
);
},
{
closed = 1;
nodes = (
"580 45 LINE",
"426 256 LINE",
"580 466 LINE",
"414 466 LINE",
"263 256 LINE",
"414 45 LINE"
);
}
);
width = 634;
}
);
note = guillemotleft;
unicode = 00AB;
},
{
glyphname = guillemotright;
lastChange = "2021-12-05 16:43:21 +0000";
layers = (
{
layerId = "346FDC19-9F08-4641-B881-745A76183C31";
paths = (
{
closed = 1;
nodes = (
"303 40 LINE SMOOTH",
"343 40 OFFCURVE",
"371 54 OFFCURVE",
"394 87 CURVE SMOOTH",
"509 251 LINE",
"394 414 LINE SMOOTH",
"371 447 OFFCURVE",
"343 461 OFFCURVE",
"303 461 CURVE SMOOTH",
"262 461 LINE",
"411 251 LINE",
"262 40 LINE"
);
},
{
closed = 1;
nodes = (
"95 40 LINE SMOOTH",
"135 40 OFFCURVE",
"163 54 OFFCURVE",
"186 87 CURVE SMOOTH",
"300 251 LINE",
"186 414 LINE SMOOTH",
"163 447 OFFCURVE",
"135 461 OFFCURVE",
"95 461 CURVE SMOOTH",
"53 461 LINE",
"202 251 LINE",
"53 40 LINE"
);
}
);
userData = {
assembly = "NPUSHB[ ]	/* 48 values pushed */\01210 7 4 1 4 1 0 1 76 2 1 0 1 1 0 87 2 1 0 0 1 95 5 3 4 3 1 0 1 79 6 6 0 0 6 11 6 11 9 8 0 5 0 5 18 6 8 23 \012CALL[ ]	/* CallFunction */";
};
width = 562;
},
{
associatedMasterId = "346FDC19-9F08-4641-B881-745A76183C31";
layerId = "541F4A62-0ECD-4B4B-B1D5-38FFB5FB401F";
name = "Extra Bold";
paths = (
{
closed = 1;
nodes = (
"580 256 LINE",
"428 466 LINE",
"263 466 LINE",
"416 256 LINE",
"263 45 LINE",
"428 45 LINE"
);
},
{
closed = 1;
nodes = (
"371 256 LINE",
"220 466 LINE",
"54 466 LINE",
"208 256 LINE",
"54 45 LINE",
"220 45 LINE"
);
}
);
width = 634;
}
);
note = guillemotright;
unicode = 00BB;
},
{
glyphname = guilsinglleft;
lastChange = "2021-12-05 16:43:21 +0000";
layers = (
{
layerId = "346FDC19-9F08-4641-B881-745A76183C31";
paths = (
{
closed = 1;
nodes = (
"300 40 LINE",
"151 250 LINE",
"300 461 LINE",
"259 461 LINE SMOOTH",
"219 461 OFFCURVE",
"191 447 OFFCURVE",
"168 414 CURVE SMOOTH",
"53 250 LINE",
"168 87 LINE SMOOTH",
"191 54 OFFCURVE",
"219 40 OFFCURVE",
"259 40 CURVE SMOOTH"
);
}
);
userData = {
assembly = "NPUSHB[ ]	/* 34 values pushed */\0124 1 2 1 0 1 76 0 0 1 1 0 87 0 0 0 1 95 2 1 1 0 1 79 0 0 0 5 0 5 18 3 8 23 \012CALL[ ]	/* CallFunction */";
};
width = 353;
},
{
associatedMasterId = "346FDC19-9F08-4641-B881-745A76183C31";
layerId = "541F4A62-0ECD-4B4B-B1D5-38FFB5FB401F";
name = "Extra Bold";
paths = (
{
closed = 1;
nodes = (
"381 27 LINE",
"218 257 LINE",
"381 488 LINE",
"216 488 LINE",
"54 257 LINE",
"216 27 LINE"
);
}
);
width = 435;
}
);
note = guilsinglleft;
unicode = 2039;
},
{
glyphname = guilsinglright;
lastChange = "2021-12-03 10:44:22 +0000";
layers = (
{
layerId = "346FDC19-9F08-4641-B881-745A76183C31";
paths = (
{
closed = 1;
nodes = (
"96 40 LINE SMOOTH",
"136 40 OFFCURVE",
"164 54 OFFCURVE",
"187 87 CURVE SMOOTH",
"301 250 LINE",
"187 414 LINE SMOOTH",
"164 447 OFFCURVE",
"136 461 OFFCURVE",
"96 461 CURVE SMOOTH",
"54 461 LINE",
"203 250 LINE",
"54 40 LINE"
);
}
);
userData = {
assembly = "NPUSHB[ ]	/* 34 values pushed */\0124 1 2 1 0 1 76 0 0 1 1 0 87 0 0 0 1 95 2 1 1 0 1 79 0 0 0 5 0 5 18 3 8 23 \012CALL[ ]	/* CallFunction */";
};
width = 355;
},
{
associatedMasterId = "346FDC19-9F08-4641-B881-745A76183C31";
layerId = "541F4A62-0ECD-4B4B-B1D5-38FFB5FB401F";
name = "Extra Bold";
paths = (
{
closed = 1;
nodes = (
"220 27 LINE",
"381 257 LINE",
"220 488 LINE",
"54 488 LINE",
"217 257 LINE",
"54 27 LINE"
);
}
);
width = 482;
}
);
note = guilsinglright;
unicode = 203A;
},
{
glyphname = quotedbl;
lastChange = "2021-12-05 16:43:21 +0000";
layers = (
{
layerId = "346FDC19-9F08-4641-B881-745A76183C31";
paths = (
{
closed = 1;
nodes = (
"106 479 LINE",
"120 700 LINE",
"40 700 LINE",
"54 479 LINE"
);
},
{
closed = 1;
nodes = (
"247 479 LINE",
"261 700 LINE",
"181 700 LINE",
"195 479 LINE"
);
}
);
userData = {
assembly = "NPUSHB[ ]	/* 33 values pushed */\0125 3 4 3 1 1 0 95 2 1 0 0 34 1 78 4 4 0 0 4 7 4 7 6 5 0 3 0 3 17 6 8 23 \012CALL[ ]	/* CallFunction */";
};
width = 301;
},
{
associatedMasterId = "346FDC19-9F08-4641-B881-745A76183C31";
layerId = "541F4A62-0ECD-4B4B-B1D5-38FFB5FB401F";
name = "Extra Bold";
paths = (
{
closed = 1;
nodes = (
"167 469 LINE",
"183 700 LINE",
"41 700 LINE",
"57 469 LINE"
);
},
{
closed = 1;
nodes = (
"347 469 LINE",
"363 700 LINE",
"221 700 LINE",
"237 469 LINE"
);
}
);
width = 404;
}
);
note = quotedbl;
unicode = 0022;
},
{
glyphname = quotesingle;
lastChange = "2021-12-02 14:10:29 +0000";
layers = (
{
layerId = "346FDC19-9F08-4641-B881-745A76183C31";
paths = (
{
closed = 1;
nodes = (
"106 479 LINE",
"120 700 LINE",
"40 700 LINE",
"54 479 LINE"
);
}
);
userData = {
assembly = "NPUSHB[ ]	/* 22 values pushed */\0122 1 1 1 0 95 0 0 0 34 1 78 0 0 0 3 0 3 17 3 8 23 \012CALL[ ]	/* CallFunction */";
};
width = 160;
},
{
associatedMasterId = "346FDC19-9F08-4641-B881-745A76183C31";
layerId = "541F4A62-0ECD-4B4B-B1D5-38FFB5FB401F";
name = "Extra Bold";
paths = (
{
closed = 1;
nodes = (
"166 469 LINE",
"182 700 LINE",
"40 700 LINE",
"56 469 LINE"
);
}
);
width = 222;
}
);
note = quotesingle;
unicode = 0027;
},
{
glyphname = cent;
lastChange = "2021-12-05 16:43:21 +0000";
layers = (
{
layerId = "346FDC19-9F08-4641-B881-745A76183C31";
paths = (
{
closed = 1;
nodes = (
"290 -87 LINE",
"290 571 LINE",
"235 571 LINE",
"235 -87 LINE"
);
},
{
closed = 1;
nodes = (
"302 1 OFFCURVE",
"171 123 OFFCURVE",
"129 82 CURVE",
"156 109 OFFCURVE",
"133 199 OFFCURVE",
"133 261 CURVE",
"133 347 OFFCURVE",
"174 430 OFFCURVE",
"284 430 CURVE SMOOTH",
"350 430 OFFCURVE",
"402 413 OFFCURVE",
"417 330 CURVE",
"543 414 OFFCURVE",
"438 515 OFFCURVE",
"294 515 CURVE SMOOTH",
"143 515 OFFCURVE",
"39 396 OFFCURVE",
"38 251 CURVE SMOOTH",
"38 105 OFFCURVE",
"154 -15 OFFCURVE",
"296 -15 CURVE SMOOTH",
"371 -15 OFFCURVE",
"446 26 OFFCURVE",
"493 90 CURVE",
"405 127 LINE"
);
}
);
userData = {
assembly = "NPUSHB[ ]	/* 41 values pushed */\01229 28 26 23 22 19 18 16 15 9 1 11 2 1 1 76 0 0 3 1 2 0 2 99 0 1 1 43 1 78 0 0 0 27 0 27 17 26 4 8 24 \012CALL[ ]	/* CallFunction */";
};
width = 526;
},
{
associatedMasterId = "346FDC19-9F08-4641-B881-745A76183C31";
layerId = "541F4A62-0ECD-4B4B-B1D5-38FFB5FB401F";
name = "Extra Bold";
paths = (
{
closed = 1;
nodes = (
"302 -87 LINE",
"302 600 LINE",
"222 602 LINE",
"222 -85 LINE"
);
},
{
closed = 1;
nodes = (
"351 118 OFFCURVE",
"331 102 OFFCURVE",
"285 102 CURVE SMOOTH",
"206 102 OFFCURVE",
"139 154 OFFCURVE",
"139 257 CURVE SMOOTH",
"139 360 OFFCURVE",
"206 409 OFFCURVE",
"285 409 CURVE SMOOTH",
"331 409 OFFCURVE",
"351 393 OFFCURVE",
"388 337 CURVE",
"514 382 LINE",
"371 636 OFFCURVE",
"11 534 OFFCURVE",
"9 257 CURVE SMOOTH",
"8 92 OFFCURVE",
"125 -13 OFFCURVE",
"285 -13 CURVE SMOOTH",
"380 -13 OFFCURVE",
"463 38 OFFCURVE",
"514 129 CURVE",
"388 174 LINE"
);
}
);
width = 600;
}
);
note = cent;
unicode = 00A2;
},
{
glyphname = dollar;
lastChange = "2021-12-05 16:43:21 +0000";
layers = (
{
layerId = "346FDC19-9F08-4641-B881-745A76183C31";
paths = (
{
closed = 1;
nodes = (
"324 -94 LINE",
"324 795 LINE",
"269 795 LINE",
"269 -94 LINE"
);
},
{
closed = 1;
nodes = (
"291 409 LINE SMOOTH",
"215 426 OFFCURVE",
"136 455 OFFCURVE",
"136 523 CURVE SMOOTH",
"136 593 OFFCURVE",
"229 634 OFFCURVE",
"302 630 CURVE SMOOTH",
"395 625 OFFCURVE",
"451 584 OFFCURVE",
"451 517 CURVE",
"533 570 OFFCURVE",
"520 637 OFFCURVE",
"456 678 CURVE SMOOTH",
"419 702 OFFCURVE",
"368 715 OFFCURVE",
"306 715 CURVE SMOOTH",
"157 715 OFFCURVE",
"41 644 OFFCURVE",
"41 528 CURVE SMOOTH",
"41 423 OFFCURVE",
"116 358 OFFCURVE",
"243 330 CURVE SMOOTH",
"328 311 LINE SMOOTH",
"428 289 OFFCURVE",
"476 247 OFFCURVE",
"476 193 CURVE SMOOTH",
"476 115 OFFCURVE",
"376 80 OFFCURVE",
"291 80 CURVE SMOOTH",
"191 80 OFFCURVE",
"96 135 OFFCURVE",
"96 223 CURVE",
"14 170 OFFCURVE",
"30 107 OFFCURVE",
"91 52 CURVE SMOOTH",
"148 0 OFFCURVE",
"230 -15 OFFCURVE",
"291 -15 CURVE SMOOTH",
"451 -15 OFFCURVE",
"571 66 OFFCURVE",
"571 189 CURVE SMOOTH",
"571 299 OFFCURVE",
"495 364 OFFCURVE",
"364 393 CURVE SMOOTH"
);
}
);
userData = {
assembly = "NPUSHB[ ]	/* 63 values pushed */\01256 42 41 29 28 25 24 21 18 8 5 4 12 3 0 7 1 1 3 2 76 1 1 1 1 75 0 0 3 0 133 4 1 2 1 2 134 0 3 3 1 97 0 1 1 41 1 78 0 0 51 50 0 40 0 40 39 38 20 19 5 8 22 \012CALL[ ]	/* CallFunction */";
};
width = 611;
},
{
associatedMasterId = "346FDC19-9F08-4641-B881-745A76183C31";
layerId = "541F4A62-0ECD-4B4B-B1D5-38FFB5FB401F";
name = "Extra Bold";
paths = (
{
closed = 1;
nodes = (
"459 -15 OFFCURVE",
"589 74 OFFCURVE",
"589 199 CURVE SMOOTH",
"589 316 OFFCURVE",
"516 380 OFFCURVE",
"368 413 CURVE SMOOTH",
"295 429 LINE SMOOTH",
"218 446 OFFCURVE",
"176 474 OFFCURVE",
"176 524 CURVE SMOOTH",
"176 575 OFFCURVE",
"218 595 OFFCURVE",
"290 595 CURVE SMOOTH",
"354 595 OFFCURVE",
"408 563 OFFCURVE",
"422 513 CURVE",
"563 560 LINE",
"529 654 OFFCURVE",
"421 715 OFFCURVE",
"294 715 CURVE SMOOTH",
"139 715 OFFCURVE",
"19 641 OFFCURVE",
"19 528 CURVE SMOOTH",
"19 412 OFFCURVE",
"96 341 OFFCURVE",
"234 310 CURVE SMOOTH",
"320 291 LINE SMOOTH",
"398 274 OFFCURVE",
"430 255 OFFCURVE",
"430 203 CURVE SMOOTH",
"430 140 OFFCURVE",
"378 105 OFFCURVE",
"303 105 CURVE SMOOTH",
"224 105 OFFCURVE",
"164 149 OFFCURVE",
"152 222 CURVE",
"8 174 LINE",
"34 62 OFFCURVE",
"154 -15 OFFCURVE",
"299 -15 CURVE SMOOTH"
);
},
{
closed = 1;
nodes = (
"338 -94 LINE",
"338 795 LINE",
"258 795 LINE",
"258 -94 LINE"
);
}
);
width = 600;
}
);
note = dollar;
unicode = 0024;
},
{
glyphname = euro;
lastChange = "2021-12-05 16:43:21 +0000";
layers = (
{
layerId = "346FDC19-9F08-4641-B881-745A76183C31";
paths = (
{
closed = 1;
nodes = (
"549 105 OFFCURVE",
"486 81 OFFCURVE",
"434 81 CURVE SMOOTH",
"347 81 OFFCURVE",
"272 149 OFFCURVE",
"207 126 CURVE",
"216 151 OFFCURVE",
"209 195 OFFCURVE",
"203 248 CURVE",
"353 248 LINE",
"381 299 LINE",
"198 299 LINE",
"196 327 OFFCURVE",
"195 356 OFFCURVE",
"197 385 CURVE",
"428 385 LINE",
"456 436 LINE",
"205 436 LINE",
"213 469 OFFCURVE",
"226 501 OFFCURVE",
"248 530 CURVE SMOOTH",
"289 586 OFFCURVE",
"365 619 OFFCURVE",
"442 618 CURVE SMOOTH",
"512 617 OFFCURVE",
"575 587 OFFCURVE",
"586 530 CURVE",
"710 613 OFFCURVE",
"602 715 OFFCURVE",
"440 715 CURVE SMOOTH",
"438 715 LINE SMOOTH",
"254 715 OFFCURVE",
"141 594 OFFCURVE",
"109 436 CURVE",
"43 436 LINE",
"15 385 LINE",
"100 385 LINE",
"100 299 LINE",
"43 299 LINE",
"15 248 LINE",
"112 248 LINE",
"149 99 OFFCURVE",
"256 -15 OFFCURVE",
"418 -15 CURVE SMOOTH",
"550 -15 OFFCURVE",
"628 49 OFFCURVE",
"684 145 CURVE",
"599 187 LINE"
);
}
);
userData = {
assembly = "NPUSHB[ ]	/* 87 values pushed */\01220 19 2 3 5 43 42 2 10 1 2 76 11 1 7 1 75 6 1 3 0 7 2 3 7 103 8 1 2 9 1 1 10 2 1 104 0 5 5 4 97 0 4 4 40 77 0 10 10 0 97 11 1 0 0 41 0 78 1 0 40 38 36 35 34 32 29 28 27 26 24 22 17 15 13 12 6 5 4 3 0 45 1 45 12 8 22 \012CALL[ ]	/* CallFunction */";
};
width = 722;
},
{
associatedMasterId = "346FDC19-9F08-4641-B881-745A76183C31";
layerId = "541F4A62-0ECD-4B4B-B1D5-38FFB5FB401F";
name = "Extra Bold";
paths = (
{
closed = 1;
nodes = (
"555 -14 OFFCURVE",
"662 54 OFFCURVE",
"704 167 CURVE",
"574 214 LINE",
"545 140 OFFCURVE",
"498 105 OFFCURVE",
"428 105 CURVE SMOOTH",
"361 105 OFFCURVE",
"305 168 OFFCURVE",
"276 238 CURVE",
"417 238 LINE",
"467 319 LINE",
"262 319 LINE",
"262 365 LINE",
"492 365 LINE",
"542 446 LINE",
"275 446 LINE",
"301 545 OFFCURVE",
"359 596 OFFCURVE",
"425 596 CURVE SMOOTH",
"495 596 OFFCURVE",
"542 560 OFFCURVE",
"569 486 CURVE",
"701 533 LINE",
"659 645 OFFCURVE",
"554 715 OFFCURVE",
"430 715 CURVE SMOOTH",
"277 715 OFFCURVE",
"159 617 OFFCURVE",
"123 446 CURVE",
"65 446 LINE",
"15 365 LINE",
"113 365 LINE",
"113 319 LINE",
"65 319 LINE",
"15 238 LINE",
"123 238 LINE",
"159 96 OFFCURVE",
"272 -14 OFFCURVE",
"423 -14 CURVE SMOOTH"
);
}
);
width = 742;
}
);
note = Euro;
unicode = 20AC;
},
{
glyphname = sterling;
lastChange = "2021-12-05 16:43:21 +0000";
layers = (
{
layerId = "346FDC19-9F08-4641-B881-745A76183C31";
paths = (
{
closed = 1;
nodes = (
"158 13 OFFCURVE",
"201 23 OFFCURVE",
"237 23 CURVE SMOOTH",
"315 23 OFFCURVE",
"367 -15 OFFCURVE",
"443 -15 CURVE SMOOTH",
"478 -15 OFFCURVE",
"519 -6 OFFCURVE",
"568 15 CURVE",
"543 88 LINE",
"499 69 OFFCURVE",
"465 63 OFFCURVE",
"434 63 CURVE SMOOTH",
"364 63 OFFCURVE",
"325 99 OFFCURVE",
"256 99 CURVE SMOOTH",
"232 99 OFFCURVE",
"202 93 OFFCURVE",
"166 73 CURVE",
"173 75 LINE",
"239 105 OFFCURVE",
"292 162 OFFCURVE",
"292 238 CURVE SMOOTH",
"292 278 OFFCURVE",
"288 301 OFFCURVE",
"275 334 CURVE",
"455 334 LINE",
"455 389 LINE",
"251 389 LINE",
"228 436 OFFCURVE",
"203 495 OFFCURVE",
"203 543 CURVE SMOOTH",
"203 618 OFFCURVE",
"267 644 OFFCURVE",
"331 644 CURVE SMOOTH",
"394 644 OFFCURVE",
"458 620 OFFCURVE",
"475 551 CURVE",
"478 552 LINE SMOOTH",
"528 569 OFFCURVE",
"553 608 OFFCURVE",
"518 648 CURVE SMOOTH",
"481 691 OFFCURVE",
"411 715 OFFCURVE",
"335 715 CURVE SMOOTH",
"218 715 OFFCURVE",
"114 663 OFFCURVE",
"114 546 CURVE SMOOTH",
"114 494 OFFCURVE",
"137 434 OFFCURVE",
"158 389 CURVE",
"70 389 LINE",
"70 334 LINE",
"182 334 LINE",
"198 296 OFFCURVE",
"204 267 OFFCURVE",
"204 226 CURVE SMOOTH",
"204 165 OFFCURVE",
"171 119 OFFCURVE",
"134 88 CURVE SMOOTH",
"98 59 OFFCURVE",
"84 30 OFFCURVE",
"102 -12 CURVE SMOOTH",
"103 -15 LINE"
);
}
);
userData = {
assembly = "NPUSHB[ ]	/* 73 values pushed */\01223 22 2 1 3 52 42 2 7 6 1 1 9 7 53 1 8 9 4 76 4 1 1 5 1 0 6 1 0 103 0 6 0 9 8 6 9 105 0 3 3 2 97 0 2 2 40 77 0 7 7 8 97 0 8 8 41 8 78 61 59 37 34 40 17 22 37 38 17 25 10 8 31 \012CALL[ ]	/* CallFunction */";
};
width = 598;
},
{
associatedMasterId = "346FDC19-9F08-4641-B881-745A76183C31";
layerId = "541F4A62-0ECD-4B4B-B1D5-38FFB5FB401F";
name = "Extra Bold";
paths = (
{
closed = 1;
nodes = (
"152 21 OFFCURVE",
"197 37 OFFCURVE",
"238 37 CURVE SMOOTH",
"305 37 OFFCURVE",
"355 -1 OFFCURVE",
"444 -1 CURVE SMOOTH",
"491 -1 OFFCURVE",
"547 14 OFFCURVE",
"602 41 CURVE",
"563 155 LINE",
"507 127 OFFCURVE",
"473 117 OFFCURVE",
"435 117 CURVE SMOOTH",
"377 117 OFFCURVE",
"343 147 OFFCURVE",
"258 147 CURVE SMOOTH",
"224 147 OFFCURVE",
"203 149 OFFCURVE",
"110 91 CURVE",
"187 91 LINE",
"260 136 OFFCURVE",
"309 153 OFFCURVE",
"321 228 CURVE SMOOTH",
"325 253 OFFCURVE",
"321 280 OFFCURVE",
"314 304 CURVE",
"486 304 LINE",
"486 399 LINE",
"274 399 LINE",
"247 455 OFFCURVE",
"234 489 OFFCURVE",
"234 523 CURVE SMOOTH",
"234 576 OFFCURVE",
"267 604 OFFCURVE",
"332 604 CURVE SMOOTH",
"400 604 OFFCURVE",
"432 573 OFFCURVE",
"441 502 CURVE",
"582 544 LINE",
"561 649 OFFCURVE",
"464 715 OFFCURVE",
"336 715 CURVE SMOOTH",
"185 715 OFFCURVE",
"85 641 OFFCURVE",
"85 526 CURVE SMOOTH",
"85 482 OFFCURVE",
"101 442 OFFCURVE",
"119 399 CURVE",
"41 399 LINE",
"41 304 LINE",
"160 304 LINE",
"171 276 OFFCURVE",
"175 250 OFFCURVE",
"175 216 CURVE SMOOTH",
"175 143 OFFCURVE",
"122 111 OFFCURVE",
"46 73 CURVE",
"87 -15 LINE"
);
}
);
width = 600;
}
);
note = sterling;
unicode = 00A3;
},
{
glyphname = yen;
lastChange = "2021-12-05 16:43:21 +0000";
layers = (
{
layerId = "346FDC19-9F08-4641-B881-745A76183C31";
paths = (
{
closed = 1;
nodes = (
"498 716 OFFCURVE",
"479 694 OFFCURVE",
"460 660 CURVE SMOOTH",
"296 370 LINE",
"111 700 LINE",
"10 700 LINE",
"212 338 LINE SMOOTH",
"224 316 OFFCURVE",
"235 297 OFFCURVE",
"247 286 CURVE",
"99 286 LINE",
"99 235 LINE",
"249 235 LINE",
"249 149 LINE",
"99 149 LINE",
"99 98 LINE",
"249 98 LINE",
"249 56 LINE SMOOTH",
"249 21 OFFCURVE",
"269 0 OFFCURVE",
"295 0 CURVE SMOOTH",
"378 0 LINE",
"360 27 LINE SMOOTH",
"349 43 OFFCURVE",
"343 62 OFFCURVE",
"343 82 CURVE SMOOTH",
"343 98 LINE",
"492 98 LINE",
"492 149 LINE",
"343 149 LINE",
"343 235 LINE",
"492 235 LINE",
"492 286 LINE",
"348 286 LINE",
"547 634 LINE SMOOTH",
"563 661 OFFCURVE",
"577 678 OFFCURVE",
"590 691 CURVE SMOOTH",
"616 716 LINE",
"524 716 LINE SMOOTH"
);
}
);
userData = {
assembly = "NPUSHB[ ]	/* 59 values pushed */\01211 1 3 4 1 76 6 1 3 7 1 2 1 3 2 104 8 1 1 9 1 0 10 1 0 103 5 1 4 4 34 77 11 1 10 10 35 10 78 0 0 0 22 0 22 21 20 17 17 17 18 17 17 17 17 17 12 8 31 \012CALL[ ]	/* CallFunction */";
};
width = 626;
},
{
associatedMasterId = "346FDC19-9F08-4641-B881-745A76183C31";
layerId = "541F4A62-0ECD-4B4B-B1D5-38FFB5FB401F";
name = "Extra Bold";
paths = (
{
closed = 1;
nodes = (
"632 700 LINE",
"466 700 LINE",
"300 407 LINE",
"134 700 LINE",
"-32 700 LINE",
"210 315 LINE",
"73 315 LINE",
"73 235 LINE",
"223 235 LINE",
"223 189 LINE",
"73 189 LINE",
"73 109 LINE",
"223 109 LINE",
"223 0 LINE",
"377 0 LINE",
"377 109 LINE",
"526 109 LINE",
"526 189 LINE",
"377 189 LINE",
"377 235 LINE",
"526 235 LINE",
"526 315 LINE",
"390 315 LINE"
);
}
);
width = 600;
}
);
note = yen;
unicode = 00A5;
},
{
glyphname = plus;
lastChange = "2021-12-05 16:43:21 +0000";
layers = (
{
layerId = "346FDC19-9F08-4641-B881-745A76183C31";
paths = (
{
closed = 1;
nodes = (
"341 0 LINE",
"341 210 LINE",
"549 210 LINE",
"549 290 LINE",
"341 290 LINE",
"341 500 LINE",
"261 500 LINE",
"261 290 LINE",
"53 290 LINE",
"53 210 LINE",
"261 210 LINE",
"261 0 LINE"
);
}
);
userData = {
assembly = "NPUSHB[ ]	/* 36 values pushed */\0123 1 1 4 1 0 5 1 0 103 0 2 2 37 77 6 1 5 5 35 5 78 0 0 0 11 0 11 17 17 17 17 17 7 8 27 \012CALL[ ]	/* CallFunction */";
};
width = 602;
},
{
associatedMasterId = "346FDC19-9F08-4641-B881-745A76183C31";
layerId = "541F4A62-0ECD-4B4B-B1D5-38FFB5FB401F";
name = "Extra Bold";
paths = (
{
closed = 1;
nodes = (
"361 0 LINE",
"361 190 LINE",
"549 190 LINE",
"549 310 LINE",
"361 310 LINE",
"361 510 LINE",
"241 510 LINE",
"241 310 LINE",
"53 310 LINE",
"53 190 LINE",
"241 190 LINE",
"241 0 LINE"
);
}
);
width = 600;
}
);
note = plus;
unicode = 002B;
},
{
glyphname = minus;
lastChange = "2021-12-05 16:43:21 +0000";
layers = (
{
layerId = "346FDC19-9F08-4641-B881-745A76183C31";
paths = (
{
closed = 1;
nodes = (
"549 208 LINE",
"549 288 LINE",
"53 288 LINE",
"53 208 LINE"
);
}
);
userData = {
assembly = "NPUSHB[ ]	/* 27 values pushed */\0120 0 1 1 0 87 0 0 0 1 95 2 1 1 0 1 79 0 0 0 3 0 3 17 3 6 23 \012CALL[ ]	/* CallFunction */";
};
width = 602;
},
{
associatedMasterId = "346FDC19-9F08-4641-B881-745A76183C31";
layerId = "541F4A62-0ECD-4B4B-B1D5-38FFB5FB401F";
name = "Extra Bold";
paths = (
{
closed = 1;
nodes = (
"580 188 LINE",
"580 308 LINE",
"24 308 LINE",
"24 188 LINE"
);
}
);
width = 600;
}
);
note = minus;
unicode = 2212;
},
{
glyphname = multiply;
lastChange = "2021-12-05 16:43:21 +0000";
layers = (
{
layerId = "346FDC19-9F08-4641-B881-745A76183C31";
paths = (
{
closed = 1;
nodes = (
"264 193 LINE",
"418 39 LINE",
"475 97 LINE",
"322 250 LINE",
"475 404 LINE",
"418 462 LINE",
"264 308 LINE",
"110 462 LINE",
"53 404 LINE",
"207 250 LINE",
"53 97 LINE",
"110 39 LINE"
);
}
);
userData = {
assembly = "PUSHB[ ]	/* 4 values pushed */\0124 0 1 50 \012CALL[ ]	/* CallFunction */";
};
width = 528;
},
{
associatedMasterId = "346FDC19-9F08-4641-B881-745A76183C31";
layerId = "541F4A62-0ECD-4B4B-B1D5-38FFB5FB401F";
name = "Extra Bold";
paths = (
{
closed = 1;
nodes = (
"293 168 LINE",
"447 14 LINE",
"532 100 LINE",
"379 253 LINE",
"532 407 LINE",
"447 493 LINE",
"293 339 LINE",
"139 493 LINE",
"54 407 LINE",
"208 253 LINE",
"54 100 LINE",
"139 14 LINE"
);
}
);
width = 586;
}
);
note = multiply;
unicode = 00D7;
},
{
glyphname = divide;
lastChange = "2021-12-05 16:43:21 +0000";
layers = (
{
layerId = "346FDC19-9F08-4641-B881-745A76183C31";
paths = (
{
closed = 1;
nodes = (
"337 354 OFFCURVE",
"365 382 OFFCURVE",
"365 418 CURVE SMOOTH",
"365 454 OFFCURVE",
"337 483 OFFCURVE",
"301 483 CURVE SMOOTH",
"265 483 OFFCURVE",
"236 454 OFFCURVE",
"236 418 CURVE SMOOTH",
"236 382 OFFCURVE",
"265 354 OFFCURVE",
"301 354 CURVE SMOOTH"
);
},
{
closed = 1;
nodes = (
"549 208 LINE",
"549 289 LINE",
"53 289 LINE",
"53 208 LINE"
);
},
{
closed = 1;
nodes = (
"337 14 OFFCURVE",
"365 43 OFFCURVE",
"365 79 CURVE SMOOTH",
"365 114 OFFCURVE",
"337 143 OFFCURVE",
"301 143 CURVE SMOOTH",
"265 143 OFFCURVE",
"236 114 OFFCURVE",
"236 79 CURVE SMOOTH",
"236 43 OFFCURVE",
"265 14 OFFCURVE",
"301 14 CURVE SMOOTH"
);
}
);
userData = {
assembly = "MPPEM[ ]	/* MeasurePixelPerEm */\012PUSHB[ ]	/* 1 value pushed */\01235 \012LT[ ]	/* LessThan */\012IF[ ]	/* If */\012NPUSHB[ ]	/* 32 values pushed */\0120 2 7 1 3 5 2 3 103 6 1 0 0 1 97 0 1 1 37 77 0 5 5 4 97 8 1 4 4 35 4 78 \012ELSE[ ]	/* Else */\012MPPEM[ ]	/* MeasurePixelPerEm */\012PUSHB[ ]	/* 1 value pushed */\01239 \012LT[ ]	/* LessThan */\012IF[ ]	/* If */\012NPUSHB[ ]	/* 29 values pushed */\0120 2 7 1 3 5 2 3 103 0 5 8 1 4 5 4 101 6 1 0 0 1 97 0 1 1 37 0 78 \012ELSE[ ]	/* Else */\012NPUSHB[ ]	/* 35 values pushed */\0120 1 6 1 0 2 1 0 105 0 2 7 1 3 5 2 3 103 0 5 4 4 5 89 0 5 5 4 97 8 1 4 5 4 81 \012EIF[ ]	/* EndIf */\012EIF[ ]	/* EndIf */\012NPUSHB[ ]	/* 27 values pushed */\01217 16 12 12 1 0 23 21 16 27 17 27 12 15 12 15 14 13 7 5 0 11 1 11 9 8 22 \012CALL[ ]	/* CallFunction */";
};
width = 602;
},
{
associatedMasterId = "346FDC19-9F08-4641-B881-745A76183C31";
layerId = "541F4A62-0ECD-4B4B-B1D5-38FFB5FB401F";
name = "Extra Bold";
paths = (
{
closed = 1;
nodes = (
"350 341 OFFCURVE",
"387 378 OFFCURVE",
"387 425 CURVE SMOOTH",
"387 472 OFFCURVE",
"350 510 OFFCURVE",
"303 510 CURVE SMOOTH",
"256 510 OFFCURVE",
"218 472 OFFCURVE",
"218 425 CURVE SMOOTH",
"218 378 OFFCURVE",
"256 341 OFFCURVE",
"303 341 CURVE SMOOTH"
);
},
{
closed = 1;
nodes = (
"570 195 LINE",
"570 315 LINE",
"34 315 LINE",
"34 195 LINE"
);
},
{
closed = 1;
nodes = (
"350 0 OFFCURVE",
"387 38 OFFCURVE",
"387 85 CURVE SMOOTH",
"387 131 OFFCURVE",
"349 169 OFFCURVE",
"303 169 CURVE SMOOTH",
"256 169 OFFCURVE",
"218 131 OFFCURVE",
"218 85 CURVE SMOOTH",
"218 38 OFFCURVE",
"256 0 OFFCURVE",
"303 0 CURVE SMOOTH"
);
}
);
width = 600;
}
);
note = divide;
unicode = 00F7;
},
{
glyphname = equal;
lastChange = "2021-12-05 16:43:21 +0000";
layers = (
{
layerId = "346FDC19-9F08-4641-B881-745A76183C31";
paths = (
{
closed = 1;
nodes = (
"549 307 LINE",
"549 386 LINE",
"53 386 LINE",
"53 307 LINE"
);
},
{
closed = 1;
nodes = (
"549 121 LINE",
"549 200 LINE",
"53 200 LINE",
"53 121 LINE"
);
}
);
userData = {
assembly = "NPUSHB[ ]	/* 44 values pushed */\0120 0 4 1 1 2 0 1 103 0 2 3 3 2 87 0 2 2 3 95 5 1 3 2 3 79 4 4 0 0 4 7 4 7 6 5 0 3 0 3 17 6 8 23 \012CALL[ ]	/* CallFunction */";
};
width = 602;
},
{
associatedMasterId = "346FDC19-9F08-4641-B881-745A76183C31";
layerId = "541F4A62-0ECD-4B4B-B1D5-38FFB5FB401F";
name = "Extra Bold";
paths = (
{
closed = 1;
nodes = (
"590 292 LINE",
"590 412 LINE",
"54 412 LINE",
"54 292 LINE"
);
},
{
closed = 1;
nodes = (
"590 95 LINE",
"590 215 LINE",
"54 215 LINE",
"54 95 LINE"
);
}
);
width = 644;
}
);
note = equal;
unicode = 003D;
},
{
glyphname = notequal;
lastChange = "2021-12-05 16:43:21 +0000";
layers = (
{
layerId = "346FDC19-9F08-4641-B881-745A76183C31";
paths = (
{
closed = 1;
nodes = (
"176 0 LINE",
"262 123 LINE",
"549 123 LINE",
"549 202 LINE",
"317 202 LINE",
"392 309 LINE",
"549 309 LINE",
"549 389 LINE",
"448 389 LINE",
"525 500 LINE",
"426 500 LINE",
"348 389 LINE",
"53 389 LINE",
"53 309 LINE",
"292 309 LINE",
"218 202 LINE",
"53 202 LINE",
"53 123 LINE",
"162 123 LINE",
"76 0 LINE"
);
}
);
userData = {
assembly = "MPPEM[ ]	/* MeasurePixelPerEm */\012PUSHB[ ]	/* 1 value pushed */\01211 \012LT[ ]	/* LessThan */\012IF[ ]	/* If */\012NPUSHB[ ]	/* 42 values pushed */\0120 4 3 3 4 112 10 1 9 0 0 9 113 5 1 3 6 1 2 1 3 2 104 7 1 1 0 0 1 87 7 1 1 1 0 95 8 1 0 1 0 79 \012ELSE[ ]	/* Else */\012MPPEM[ ]	/* MeasurePixelPerEm */\012PUSHB[ ]	/* 1 value pushed */\01212 \012LT[ ]	/* LessThan */\012IF[ ]	/* If */\012NPUSHB[ ]	/* 41 values pushed */\0120 4 3 3 4 112 10 1 9 0 9 134 5 1 3 6 1 2 1 3 2 104 7 1 1 0 0 1 87 7 1 1 1 0 95 8 1 0 1 0 79 \012ELSE[ ]	/* Else */\012NPUSHB[ ]	/* 40 values pushed */\0120 4 3 4 133 10 1 9 0 9 134 5 1 3 6 1 2 1 3 2 104 7 1 1 0 0 1 87 7 1 1 1 0 95 8 1 0 1 0 79 \012EIF[ ]	/* EndIf */\012EIF[ ]	/* EndIf */\012NPUSHB[ ]	/* 18 values pushed */\0120 0 0 19 0 19 17 17 17 17 17 17 17 17 17 11 6 31 \012CALL[ ]	/* CallFunction */";
};
width = 602;
},
{
associatedMasterId = "346FDC19-9F08-4641-B881-745A76183C31";
layerId = "541F4A62-0ECD-4B4B-B1D5-38FFB5FB401F";
name = "Extra Bold";
paths = (
{
closed = 1;
nodes = (
"590 412 LINE",
"492 412 LINE",
"564 510 LINE",
"417 510 LINE",
"344 412 LINE",
"54 412 LINE",
"54 292 LINE",
"255 292 LINE",
"198 215 LINE",
"54 215 LINE",
"54 95 LINE",
"109 95 LINE",
"39 0 LINE",
"187 0 LINE",
"257 95 LINE",
"590 95 LINE",
"590 215 LINE",
"346 215 LINE",
"403 292 LINE",
"590 292 LINE"
);
}
);
width = 600;
}
);
note = notequal;
unicode = 2260;
},
{
glyphname = greater;
lastChange = "2021-12-05 16:43:21 +0000";
layers = (
{
layerId = "346FDC19-9F08-4641-B881-745A76183C31";
paths = (
{
closed = 1;
nodes = (
"513 215 LINE",
"513 285 LINE",
"40 498 LINE",
"40 408 LINE",
"408 250 LINE",
"40 92 LINE",
"40 2 LINE"
);
}
);
userData = {
assembly = "PUSHB[ ]	/* 4 values pushed */\0124 0 1 50 \012CALL[ ]	/* CallFunction */";
};
width = 553;
},
{
associatedMasterId = "346FDC19-9F08-4641-B881-745A76183C31";
layerId = "541F4A62-0ECD-4B4B-B1D5-38FFB5FB401F";
name = "Extra Bold";
paths = (
{
closed = 1;
nodes = (
"554 207 LINE",
"554 303 LINE",
"41 510 LINE",
"41 376 LINE",
"378 255 LINE",
"41 134 LINE",
"41 0 LINE"
);
}
);
width = 595;
}
);
note = greater;
unicode = 003E;
},
{
glyphname = less;
lastChange = "2021-12-05 16:43:21 +0000";
layers = (
{
layerId = "346FDC19-9F08-4641-B881-745A76183C31";
paths = (
{
closed = 1;
nodes = (
"513 92 LINE",
"145 250 LINE",
"513 408 LINE",
"513 498 LINE",
"40 285 LINE",
"40 215 LINE",
"513 2 LINE"
);
}
);
userData = {
assembly = "PUSHB[ ]	/* 4 values pushed */\0123 0 1 50 \012CALL[ ]	/* CallFunction */";
};
width = 553;
},
{
associatedMasterId = "346FDC19-9F08-4641-B881-745A76183C31";
layerId = "541F4A62-0ECD-4B4B-B1D5-38FFB5FB401F";
name = "Extra Bold";
paths = (
{
closed = 1;
nodes = (
"554 134 LINE",
"207 255 LINE",
"554 376 LINE",
"554 510 LINE",
"41 303 LINE",
"41 207 LINE",
"554 0 LINE"
);
}
);
width = 595;
}
);
note = less;
unicode = 003C;
},
{
glyphname = greaterequal;
lastChange = "2021-12-05 16:43:21 +0000";
layers = (
{
layerId = "346FDC19-9F08-4641-B881-745A76183C31";
paths = (
{
closed = 1;
nodes = (
"513 267 LINE",
"513 337 LINE",
"40 505 LINE",
"40 414 LINE",
"408 302 LINE",
"40 190 LINE",
"40 100 LINE"
);
},
{
closed = 1;
nodes = (
"513 0 LINE",
"513 80 LINE",
"40 80 LINE",
"40 0 LINE"
);
}
);
userData = {
assembly = "NPUSHB[ ]	/* 37 values pushed */\0126 5 4 3 2 1 0 7 0 74 0 0 1 1 0 87 0 0 0 1 95 2 1 1 0 1 79 7 7 7 10 7 10 24 3 6 23 \012CALL[ ]	/* CallFunction */";
};
width = 553;
},
{
associatedMasterId = "346FDC19-9F08-4641-B881-745A76183C31";
layerId = "541F4A62-0ECD-4B4B-B1D5-38FFB5FB401F";
name = "Extra Bold";
paths = (
{
closed = 1;
nodes = (
"554 276 LINE",
"554 374 LINE",
"41 526 LINE",
"41 412 LINE",
"400 325 LINE",
"41 236 LINE",
"41 123 LINE"
);
},
{
closed = 1;
nodes = (
"554 0 LINE",
"554 100 LINE",
"41 100 LINE",
"41 0 LINE"
);
}
);
width = 595;
}
);
note = greaterequal;
unicode = 2265;
},
{
glyphname = lessequal;
lastChange = "2021-12-05 16:43:21 +0000";
layers = (
{
layerId = "346FDC19-9F08-4641-B881-745A76183C31";
paths = (
{
closed = 1;
nodes = (
"525 190 LINE",
"157 302 LINE",
"525 414 LINE",
"525 505 LINE",
"52 337 LINE",
"52 267 LINE",
"525 100 LINE"
);
},
{
closed = 1;
nodes = (
"525 0 LINE",
"525 80 LINE",
"52 80 LINE",
"52 0 LINE"
);
}
);
userData = {
assembly = "NPUSHB[ ]	/* 37 values pushed */\0126 5 4 3 2 1 0 7 0 74 0 0 1 1 0 87 0 0 0 1 95 2 1 1 0 1 79 7 7 7 10 7 10 24 3 6 23 \012CALL[ ]	/* CallFunction */";
};
width = 565;
},
{
associatedMasterId = "346FDC19-9F08-4641-B881-745A76183C31";
layerId = "541F4A62-0ECD-4B4B-B1D5-38FFB5FB401F";
name = "Extra Bold";
paths = (
{
closed = 1;
nodes = (
"554 236 LINE",
"195 325 LINE",
"554 412 LINE",
"554 526 LINE",
"41 374 LINE",
"41 276 LINE",
"554 123 LINE"
);
},
{
closed = 1;
nodes = (
"554 100 LINE",
"41 100 LINE",
"41 0 LINE",
"554 0 LINE"
);
}
);
width = 595;
}
);
note = lessequal;
unicode = 2264;
},
{
glyphname = plusminus;
lastChange = "2021-12-05 16:43:21 +0000";
layers = (
{
layerId = "346FDC19-9F08-4641-B881-745A76183C31";
paths = (
{
closed = 1;
nodes = (
"330 126 LINE",
"330 273 LINE",
"527 273 LINE",
"527 352 LINE",
"330 352 LINE",
"330 500 LINE",
"251 500 LINE",
"251 352 LINE",
"54 352 LINE",
"54 273 LINE",
"251 273 LINE",
"251 125 LINE"
);
},
{
closed = 1;
nodes = (
"527 -1 LINE",
"527 80 LINE",
"53 80 LINE",
"53 0 LINE",
"53 -1 LINE"
);
}
);
userData = {
assembly = "NPUSHB[ ]	/* 55 values pushed */\0123 1 1 4 1 0 5 1 0 103 8 1 5 5 2 95 0 2 2 37 77 0 6 6 7 95 9 1 7 7 35 7 78 12 12 0 0 12 15 12 15 14 13 0 11 0 11 17 17 17 17 17 10 8 27 \012CALL[ ]	/* CallFunction */";
};
width = 580;
},
{
associatedMasterId = "346FDC19-9F08-4641-B881-745A76183C31";
layerId = "541F4A62-0ECD-4B4B-B1D5-38FFB5FB401F";
name = "Extra Bold";
paths = (
{
closed = 1;
nodes = (
"360 136 LINE",
"360 283 LINE",
"547 283 LINE",
"547 382 LINE",
"360 382 LINE",
"360 510 LINE",
"241 510 LINE",
"241 382 LINE",
"54 382 LINE",
"54 283 LINE",
"241 283 LINE",
"241 135 LINE"
);
},
{
closed = 1;
nodes = (
"547 0 LINE",
"547 100 LINE",
"54 100 LINE",
"54 21 LINE",
"54 0 LINE"
);
}
);
width = 601;
}
);
note = plusminus;
unicode = 00B1;
},
{
glyphname = asciitilde;
lastChange = "2021-12-05 16:43:21 +0000";
layers = (
{
layerId = "346FDC19-9F08-4641-B881-745A76183C31";
paths = (
{
closed = 1;
nodes = (
"396 195 OFFCURVE",
"429 208 OFFCURVE",
"453 230 CURVE SMOOTH",
"489 265 OFFCURVE",
"464 305 OFFCURVE",
"418 319 CURVE",
"411 286 OFFCURVE",
"386 268 OFFCURVE",
"355 268 CURVE SMOOTH",
"324 268 OFFCURVE",
"270 295 OFFCURVE",
"232 310 CURVE SMOOTH",
"208 319 OFFCURVE",
"182 323 OFFCURVE",
"154 323 CURVE SMOOTH",
"116 323 OFFCURVE",
"84 311 OFFCURVE",
"60 292 CURVE SMOOTH",
"20 256 OFFCURVE",
"45 213 OFFCURVE",
"92 199 CURVE",
"99 232 OFFCURVE",
"123 249 OFFCURVE",
"156 249 CURVE SMOOTH",
"228 249 OFFCURVE",
"284 195 OFFCURVE",
"356 195 CURVE SMOOTH"
);
}
);
userData = {
assembly = "PUSHB[ ]	/* 2 values pushed */\0126 100 \012WCVTP[ ]	/* WriteCVTInPixels */\012NPUSHB[ ]	/* 52 values pushed */\01219 18 2 3 2 8 7 2 0 1 2 76 0 3 1 0 3 89 0 2 0 1 0 2 1 105 0 3 3 0 97 4 1 0 3 0 81 1 0 16 14 12 10 5 3 0 21 1 21 5 8 22 \012CALL[ ]	/* CallFunction */\012PUSHB[ ]	/* 2 values pushed */\0126 0 \012WCVTP[ ]	/* WriteCVTInPixels */";
};
width = 510;
},
{
associatedMasterId = "346FDC19-9F08-4641-B881-745A76183C31";
layerId = "541F4A62-0ECD-4B4B-B1D5-38FFB5FB401F";
name = "Extra Bold";
paths = (
{
closed = 1;
nodes = (
"487 175 OFFCURVE",
"551 228 OFFCURVE",
"562 311 CURVE",
"447 345 LINE",
"441 309 OFFCURVE",
"432 288 OFFCURVE",
"402 288 CURVE SMOOTH",
"376 288 OFFCURVE",
"325 314 OFFCURVE",
"286 329 CURVE SMOOTH",
"260 338 OFFCURVE",
"232 343 OFFCURVE",
"201 343 CURVE SMOOTH",
"116 343 OFFCURVE",
"52 290 OFFCURVE",
"41 207 CURVE",
"157 173 LINE",
"162 210 OFFCURVE",
"171 229 OFFCURVE",
"203 229 CURVE SMOOTH",
"268 229 OFFCURVE",
"323 175 OFFCURVE",
"403 175 CURVE SMOOTH"
);
}
);
width = 603;
}
);
note = asciitilde;
unicode = 007E;
},
{
glyphname = asciicircum;
lastChange = "2021-12-02 14:10:29 +0000";
layers = (
{
layerId = "346FDC19-9F08-4641-B881-745A76183C31";
paths = (
{
closed = 1;
nodes = (
"142 343 LINE",
"276 601 LINE",
"410 343 LINE",
"499 343 LINE",
"314 700 LINE",
"238 700 LINE",
"53 343 LINE"
);
}
);
userData = {
assembly = "PUSHB[ ]	/* 2 values pushed */\0126 100 \012WCVTP[ ]	/* WriteCVTInPixels */\012NPUSHB[ ]	/* 28 values pushed */\0125 1 1 0 1 76 0 0 1 0 133 3 2 2 1 1 118 0 0 0 6 0 6 17 17 4 8 24 \012CALL[ ]	/* CallFunction */\012PUSHB[ ]	/* 2 values pushed */\0126 0 \012WCVTP[ ]	/* WriteCVTInPixels */";
};
width = 552;
},
{
associatedMasterId = "346FDC19-9F08-4641-B881-745A76183C31";
layerId = "541F4A62-0ECD-4B4B-B1D5-38FFB5FB401F";
name = "Extra Bold";
paths = (
{
closed = 1;
nodes = (
"187 323 LINE",
"309 558 LINE",
"431 323 LINE",
"565 323 LINE",
"359 700 LINE",
"259 700 LINE",
"53 323 LINE"
);
}
);
width = 618;
}
);
note = asciicircum;
unicode = 005E;
},
{
glyphname = percent;
lastChange = "2021-12-05 16:43:21 +0000";
layers = (
{
layerId = "346FDC19-9F08-4641-B881-745A76183C31";
paths = (
{
closed = 1;
nodes = (
"287 337 OFFCURVE",
"344 372 OFFCURVE",
"377 427 CURVE SMOOTH",
"393 454 OFFCURVE",
"401 485 OFFCURVE",
"401 518 CURVE SMOOTH",
"401 586 OFFCURVE",
"366 643 OFFCURVE",
"311 676 CURVE SMOOTH",
"284 692 OFFCURVE",
"253 700 OFFCURVE",
"220 700 CURVE SMOOTH",
"153 700 OFFCURVE",
"95 665 OFFCURVE",
"63 610 CURVE SMOOTH",
"46 583 OFFCURVE",
"38 552 OFFCURVE",
"38 518 CURVE SMOOTH",
"38 451 OFFCURVE",
"73 394 OFFCURVE",
"129 362 CURVE SMOOTH",
"156 345 OFFCURVE",
"187 337 OFFCURVE",
"220 337 CURVE SMOOTH"
);
},
{
closed = 1;
nodes = (
"262 0 LINE",
"752 700 LINE",
"660 700 LINE",
"172 0 LINE"
);
},
{
closed = 1;
nodes = (
"161 411 OFFCURVE",
"112 459 OFFCURVE",
"112 518 CURVE SMOOTH",
"112 578 OFFCURVE",
"160 626 OFFCURVE",
"220 626 CURVE SMOOTH",
"279 626 OFFCURVE",
"327 578 OFFCURVE",
"327 518 CURVE SMOOTH",
"327 459 OFFCURVE",
"279 411 OFFCURVE",
"220 411 CURVE SMOOTH"
);
},
{
closed = 1;
nodes = (
"775 -12 OFFCURVE",
"832 23 OFFCURVE",
"865 79 CURVE SMOOTH",
"881 106 OFFCURVE",
"889 137 OFFCURVE",
"889 170 CURVE SMOOTH",
"889 237 OFFCURVE",
"854 295 OFFCURVE",
"799 328 CURVE SMOOTH",
"772 344 OFFCURVE",
"741 352 OFFCURVE",
"708 352 CURVE SMOOTH",
"641 352 OFFCURVE",
"583 317 OFFCURVE",
"551 262 CURVE SMOOTH",
"534 234 OFFCURVE",
"526 203 OFFCURVE",
"526 170 CURVE SMOOTH",
"526 103 OFFCURVE",
"561 45 OFFCURVE",
"617 13 CURVE SMOOTH",
"644 -4 OFFCURVE",
"675 -12 OFFCURVE",
"708 -12 CURVE SMOOTH"
);
},
{
closed = 1;
nodes = (
"648 62 OFFCURVE",
"600 111 OFFCURVE",
"600 170 CURVE SMOOTH",
"600 229 OFFCURVE",
"648 277 OFFCURVE",
"708 277 CURVE SMOOTH",
"767 277 OFFCURVE",
"815 229 OFFCURVE",
"815 170 CURVE SMOOTH",
"815 111 OFFCURVE",
"767 62 OFFCURVE",
"708 62 CURVE SMOOTH"
);
}
);
userData = {
assembly = "MPPEM[ ]	/* MeasurePixelPerEm */\012PUSHB[ ]	/* 1 value pushed */\01221 \012LT[ ]	/* LessThan */\012IF[ ]	/* If */\012NPUSHB[ ]	/* 44 values pushed */\01212 1 4 10 1 0 9 4 0 105 0 7 0 9 8 7 9 106 0 5 5 1 97 2 1 1 1 40 77 14 1 8 8 3 97 13 6 11 3 3 3 35 3 78 \012ELSE[ ]	/* Else */\012NPUSHB[ ]	/* 52 values pushed */\01212 1 4 10 1 0 9 4 0 105 0 7 0 9 8 7 9 106 0 2 2 34 77 0 5 5 1 97 0 1 1 40 77 11 1 3 3 35 77 14 1 8 8 6 97 13 1 6 6 41 6 78 \012EIF[ ]	/* EndIf */\012NPUSHB[ ]	/* 43 values pushed */\01249 48 33 32 21 20 16 16 1 0 55 53 48 59 49 59 41 39 32 47 33 47 27 25 20 31 21 31 16 19 16 19 18 17 9 7 0 15 1 15 15 8 22 \012CALL[ ]	/* CallFunction */";
};
width = 927;
},
{
associatedMasterId = "346FDC19-9F08-4641-B881-745A76183C31";
layerId = "541F4A62-0ECD-4B4B-B1D5-38FFB5FB401F";
name = "Extra Bold";
paths = (
{
closed = 1;
nodes = (
"293 311 OFFCURVE",
"358 348 OFFCURVE",
"395 411 CURVE SMOOTH",
"412 440 OFFCURVE",
"422 475 OFFCURVE",
"422 512 CURVE SMOOTH",
"422 585 OFFCURVE",
"385 648 OFFCURVE",
"322 687 CURVE SMOOTH",
"293 705 OFFCURVE",
"258 714 OFFCURVE",
"221 714 CURVE SMOOTH",
"149 714 OFFCURVE",
"82 676 OFFCURVE",
"47 614 CURVE SMOOTH",
"30 584 OFFCURVE",
"19 550 OFFCURVE",
"19 512 CURVE SMOOTH",
"19 439 OFFCURVE",
"57 375 OFFCURVE",
"120 339 CURVE SMOOTH",
"150 322 OFFCURVE",
"184 311 OFFCURVE",
"221 311 CURVE SMOOTH"
);
},
{
closed = 1;
nodes = (
"279 0 LINE",
"769 700 LINE",
"645 700 LINE",
"157 0 LINE"
);
},
{
closed = 1;
nodes = (
"173 425 OFFCURVE",
"133 464 OFFCURVE",
"133 512 CURVE SMOOTH",
"133 561 OFFCURVE",
"172 600 OFFCURVE",
"221 600 CURVE SMOOTH",
"269 600 OFFCURVE",
"308 561 OFFCURVE",
"308 512 CURVE SMOOTH",
"308 464 OFFCURVE",
"269 425 OFFCURVE",
"221 425 CURVE SMOOTH"
);
},
{
closed = 1;
nodes = (
"781 -14 OFFCURVE",
"846 24 OFFCURVE",
"883 87 CURVE SMOOTH",
"900 116 OFFCURVE",
"910 151 OFFCURVE",
"910 188 CURVE SMOOTH",
"910 260 OFFCURVE",
"872 326 OFFCURVE",
"810 363 CURVE SMOOTH",
"781 380 OFFCURVE",
"746 390 OFFCURVE",
"709 390 CURVE SMOOTH",
"636 390 OFFCURVE",
"570 353 OFFCURVE",
"535 290 CURVE SMOOTH",
"518 259 OFFCURVE",
"507 225 OFFCURVE",
"507 188 CURVE SMOOTH",
"507 115 OFFCURVE",
"545 50 OFFCURVE",
"608 14 CURVE SMOOTH",
"638 -3 OFFCURVE",
"672 -14 OFFCURVE",
"709 -14 CURVE SMOOTH"
);
},
{
closed = 1;
nodes = (
"660 100 OFFCURVE",
"621 139 OFFCURVE",
"621 188 CURVE SMOOTH",
"621 236 OFFCURVE",
"660 275 OFFCURVE",
"709 275 CURVE SMOOTH",
"757 275 OFFCURVE",
"796 236 OFFCURVE",
"796 188 CURVE SMOOTH",
"796 140 OFFCURVE",
"757 100 OFFCURVE",
"709 100 CURVE SMOOTH"
);
}
);
width = 929;
}
);
note = percent;
unicode = 0025;
},
{
glyphname = perthousand;
lastChange = "2021-12-05 16:43:21 +0000";
layers = (
{
layerId = "346FDC19-9F08-4641-B881-745A76183C31";
paths = (
{
closed = 1;
nodes = (
"262 0 LINE",
"752 700 LINE",
"660 700 LINE",
"172 0 LINE"
);
},
{
closed = 1;
nodes = (
"287 337 OFFCURVE",
"344 372 OFFCURVE",
"377 427 CURVE SMOOTH",
"393 454 OFFCURVE",
"401 485 OFFCURVE",
"401 518 CURVE SMOOTH",
"401 586 OFFCURVE",
"366 643 OFFCURVE",
"311 676 CURVE SMOOTH",
"284 692 OFFCURVE",
"253 700 OFFCURVE",
"220 700 CURVE SMOOTH",
"153 700 OFFCURVE",
"95 665 OFFCURVE",
"63 610 CURVE SMOOTH",
"46 583 OFFCURVE",
"38 552 OFFCURVE",
"38 518 CURVE SMOOTH",
"38 451 OFFCURVE",
"73 394 OFFCURVE",
"129 362 CURVE SMOOTH",
"156 345 OFFCURVE",
"187 337 OFFCURVE",
"220 337 CURVE SMOOTH"
);
},
{
closed = 1;
nodes = (
"161 411 OFFCURVE",
"112 459 OFFCURVE",
"112 518 CURVE SMOOTH",
"112 578 OFFCURVE",
"160 626 OFFCURVE",
"220 626 CURVE SMOOTH",
"279 626 OFFCURVE",
"327 578 OFFCURVE",
"327 518 CURVE SMOOTH",
"327 459 OFFCURVE",
"279 411 OFFCURVE",
"220 411 CURVE SMOOTH"
);
},
{
closed = 1;
nodes = (
"775 -12 OFFCURVE",
"832 23 OFFCURVE",
"865 79 CURVE SMOOTH",
"881 106 OFFCURVE",
"889 137 OFFCURVE",
"889 170 CURVE SMOOTH",
"889 237 OFFCURVE",
"854 295 OFFCURVE",
"799 328 CURVE SMOOTH",
"772 344 OFFCURVE",
"741 352 OFFCURVE",
"708 352 CURVE SMOOTH",
"641 352 OFFCURVE",
"583 317 OFFCURVE",
"551 262 CURVE SMOOTH",
"534 234 OFFCURVE",
"526 203 OFFCURVE",
"526 170 CURVE SMOOTH",
"526 103 OFFCURVE",
"561 45 OFFCURVE",
"617 13 CURVE SMOOTH",
"644 -4 OFFCURVE",
"675 -12 OFFCURVE",
"708 -12 CURVE SMOOTH"
);
},
{
closed = 1;
nodes = (
"648 62 OFFCURVE",
"600 111 OFFCURVE",
"600 170 CURVE SMOOTH",
"600 229 OFFCURVE",
"648 277 OFFCURVE",
"708 277 CURVE SMOOTH",
"767 277 OFFCURVE",
"815 229 OFFCURVE",
"815 170 CURVE SMOOTH",
"815 111 OFFCURVE",
"767 62 OFFCURVE",
"708 62 CURVE SMOOTH"
);
},
{
closed = 1;
nodes = (
"1176 -12 OFFCURVE",
"1233 23 OFFCURVE",
"1266 78 CURVE SMOOTH",
"1282 105 OFFCURVE",
"1290 136 OFFCURVE",
"1290 169 CURVE SMOOTH",
"1290 237 OFFCURVE",
"1255 294 OFFCURVE",
"1200 327 CURVE SMOOTH",
"1173 343 OFFCURVE",
"1142 351 OFFCURVE",
"1109 351 CURVE SMOOTH",
"1042 351 OFFCURVE",
"984 316 OFFCURVE",
"952 261 CURVE SMOOTH",
"935 234 OFFCURVE",
"927 203 OFFCURVE",
"927 169 CURVE SMOOTH",
"927 102 OFFCURVE",
"962 45 OFFCURVE",
"1018 13 CURVE SMOOTH",
"1045 -4 OFFCURVE",
"1076 -12 OFFCURVE",
"1109 -12 CURVE SMOOTH"
);
},
{
closed = 1;
nodes = (
"1049 62 OFFCURVE",
"1001 110 OFFCURVE",
"1001 169 CURVE SMOOTH",
"1001 229 OFFCURVE",
"1049 277 OFFCURVE",
"1109 277 CURVE SMOOTH",
"1168 277 OFFCURVE",
"1216 229 OFFCURVE",
"1216 169 CURVE SMOOTH",
"1216 110 OFFCURVE",
"1168 62 OFFCURVE",
"1109 62 CURVE SMOOTH"
);
}
);
userData = {
assembly = "MPPEM[ ]	/* MeasurePixelPerEm */\012PUSHB[ ]	/* 1 value pushed */\01221 \012LT[ ]	/* LessThan */\012IF[ ]	/* If */\012NPUSHB[ ]	/* 50 values pushed */\01216 1 4 14 1 0 11 4 0 105 9 1 7 13 1 11 10 7 11 106 0 5 5 1 97 2 1 1 1 40 77 20 12 19 3 10 10 3 97 18 8 17 6 15 5 3 3 35 3 78 \012ELSE[ ]	/* Else */\012NPUSHB[ ]	/* 58 values pushed */\01216 1 4 14 1 0 11 4 0 105 9 1 7 13 1 11 10 7 11 106 0 2 2 34 77 0 5 5 1 97 0 1 1 40 77 15 1 3 3 35 77 20 12 19 3 10 10 6 97 18 8 17 3 6 6 41 6 78 \012EIF[ ]	/* EndIf */\012NPUSHB[ ]	/* 59 values pushed */\01277 76 65 64 49 48 33 32 21 20 16 16 1 0 83 81 76 87 77 87 71 69 64 75 65 75 57 55 48 63 49 63 41 39 32 47 33 47 27 25 20 31 21 31 16 19 16 19 18 17 9 7 0 15 1 15 21 8 22 \012CALL[ ]	/* CallFunction */";
};
width = 1328;
},
{
associatedMasterId = "346FDC19-9F08-4641-B881-745A76183C31";
layerId = "541F4A62-0ECD-4B4B-B1D5-38FFB5FB401F";
name = "Extra Bold";
paths = (
{
closed = 1;
nodes = (
"279 0 LINE",
"769 700 LINE",
"645 700 LINE",
"157 0 LINE"
);
},
{
closed = 1;
nodes = (
"293 312 OFFCURVE",
"358 349 OFFCURVE",
"395 412 CURVE SMOOTH",
"412 441 OFFCURVE",
"422 476 OFFCURVE",
"422 513 CURVE SMOOTH",
"422 586 OFFCURVE",
"386 652 OFFCURVE",
"322 688 CURVE SMOOTH",
"292 705 OFFCURVE",
"258 715 OFFCURVE",
"221 715 CURVE SMOOTH",
"149 715 OFFCURVE",
"82 677 OFFCURVE",
"47 615 CURVE SMOOTH",
"30 585 OFFCURVE",
"19 551 OFFCURVE",
"19 513 CURVE SMOOTH",
"19 440 OFFCURVE",
"57 376 OFFCURVE",
"120 340 CURVE SMOOTH",
"150 323 OFFCURVE",
"184 312 OFFCURVE",
"221 312 CURVE SMOOTH"
);
},
{
closed = 1;
nodes = (
"173 426 OFFCURVE",
"133 465 OFFCURVE",
"133 513 CURVE SMOOTH",
"133 562 OFFCURVE",
"172 601 OFFCURVE",
"221 601 CURVE SMOOTH",
"268 601 OFFCURVE",
"308 564 OFFCURVE",
"308 513 CURVE SMOOTH",
"308 465 OFFCURVE",
"269 426 OFFCURVE",
"221 426 CURVE SMOOTH"
);
},
{
closed = 1;
nodes = (
"781 -15 OFFCURVE",
"846 23 OFFCURVE",
"883 86 CURVE SMOOTH",
"900 115 OFFCURVE",
"910 150 OFFCURVE",
"910 187 CURVE SMOOTH",
"910 259 OFFCURVE",
"872 325 OFFCURVE",
"810 362 CURVE SMOOTH",
"781 379 OFFCURVE",
"746 389 OFFCURVE",
"709 389 CURVE SMOOTH",
"637 389 OFFCURVE",
"572 350 OFFCURVE",
"535 289 CURVE SMOOTH",
"517 259 OFFCURVE",
"507 224 OFFCURVE",
"507 187 CURVE SMOOTH",
"507 114 OFFCURVE",
"545 49 OFFCURVE",
"608 13 CURVE SMOOTH",
"638 -4 OFFCURVE",
"672 -15 OFFCURVE",
"709 -15 CURVE SMOOTH"
);
},
{
closed = 1;
nodes = (
"660 99 OFFCURVE",
"621 138 OFFCURVE",
"621 187 CURVE SMOOTH",
"621 235 OFFCURVE",
"660 274 OFFCURVE",
"709 274 CURVE SMOOTH",
"758 274 OFFCURVE",
"796 236 OFFCURVE",
"796 187 CURVE SMOOTH",
"796 139 OFFCURVE",
"757 99 OFFCURVE",
"709 99 CURVE SMOOTH"
);
},
{
closed = 1;
nodes = (
"1212 -15 OFFCURVE",
"1277 22 OFFCURVE",
"1314 85 CURVE SMOOTH",
"1331 114 OFFCURVE",
"1341 149 OFFCURVE",
"1341 186 CURVE SMOOTH",
"1341 258 OFFCURVE",
"1304 324 OFFCURVE",
"1241 361 CURVE SMOOTH",
"1212 378 OFFCURVE",
"1177 388 OFFCURVE",
"1140 388 CURVE SMOOTH",
"1068 388 OFFCURVE",
"1001 350 OFFCURVE",
"966 288 CURVE SMOOTH",
"949 258 OFFCURVE",
"938 224 OFFCURVE",
"938 186 CURVE SMOOTH",
"938 113 OFFCURVE",
"976 49 OFFCURVE",
"1039 13 CURVE SMOOTH",
"1069 -4 OFFCURVE",
"1103 -15 OFFCURVE",
"1140 -15 CURVE SMOOTH"
);
},
{
closed = 1;
nodes = (
"1091 99 OFFCURVE",
"1052 138 OFFCURVE",
"1052 186 CURVE SMOOTH",
"1052 235 OFFCURVE",
"1091 274 OFFCURVE",
"1140 274 CURVE SMOOTH",
"1188 274 OFFCURVE",
"1227 235 OFFCURVE",
"1227 186 CURVE SMOOTH",
"1227 138 OFFCURVE",
"1188 99 OFFCURVE",
"1140 99 CURVE SMOOTH"
);
}
);
width = 1360;
}
);
note = perthousand;
unicode = 2030;
},
{
glyphname = uni2215;
lastChange = "2021-12-05 16:43:21 +0000";
layers = (
{
layerId = "346FDC19-9F08-4641-B881-745A76183C31";
paths = (
{
closed = 1;
nodes = (
"115 0 LINE",
"605 700 LINE",
"505 700 LINE",
"15 0 LINE"
);
}
);
userData = {
assembly = "NPUSHB[ ]	/* 20 values pushed */\0120 0 1 0 133 2 1 1 1 118 0 0 0 3 0 3 17 3 6 23 \012CALL[ ]	/* CallFunction */";
};
width = 620;
},
{
associatedMasterId = "346FDC19-9F08-4641-B881-745A76183C31";
layerId = "541F4A62-0ECD-4B4B-B1D5-38FFB5FB401F";
name = "Extra Bold";
paths = (
{
closed = 1;
nodes = (
"148 0 LINE",
"638 700 LINE",
"506 700 LINE",
"16 0 LINE"
);
}
);
width = 654;
}
);
note = uni2215;
unicode = 2215;
},
{
glyphname = uni2219;
lastChange = "2021-12-05 16:43:21 +0000";
layers = (
{
layerId = "346FDC19-9F08-4641-B881-745A76183C31";
paths = (
{
closed = 1;
nodes = (
"153 191 OFFCURVE",
"182 221 OFFCURVE",
"182 256 CURVE SMOOTH",
"182 291 OFFCURVE",
"153 320 OFFCURVE",
"118 320 CURVE SMOOTH",
"82 320 OFFCURVE",
"53 291 OFFCURVE",
"53 255 CURVE SMOOTH",
"53 223 OFFCURVE",
"78 191 OFFCURVE",
"118 191 CURVE SMOOTH"
);
}
);
userData = {
assembly = "NPUSHB[ ]	/* 28 values pushed */\0120 1 0 0 1 89 0 1 1 0 97 2 1 0 1 0 81 1 0 7 5 0 11 1 11 3 6 22 \012CALL[ ]	/* CallFunction */";
};
width = 235;
},
{
associatedMasterId = "346FDC19-9F08-4641-B881-745A76183C31";
layerId = "541F4A62-0ECD-4B4B-B1D5-38FFB5FB401F";
name = "Extra Bold";
paths = (
{
closed = 1;
nodes = (
"185 171 OFFCURVE",
"223 210 OFFCURVE",
"223 256 CURVE SMOOTH",
"223 302 OFFCURVE",
"185 340 OFFCURVE",
"139 340 CURVE SMOOTH",
"92 340 OFFCURVE",
"54 302 OFFCURVE",
"54 255 CURVE SMOOTH",
"54 209 OFFCURVE",
"91 171 OFFCURVE",
"139 171 CURVE SMOOTH"
);
}
);
width = 277;
}
);
note = uni2219;
unicode = 2219;
},
{
glyphname = at;
lastChange = "2021-12-05 16:43:21 +0000";
layers = (
{
layerId = "346FDC19-9F08-4641-B881-745A76183C31";
paths = (
{
closed = 1;
nodes = (
"574 155 LINE",
"677 155 OFFCURVE",
"730 248 OFFCURVE",
"730 366 CURVE SMOOTH",
"730 466 OFFCURVE",
"686 545 OFFCURVE",
"620 599 CURVE SMOOTH",
"554 653 OFFCURVE",
"472 680 OFFCURVE",
"396 680 CURVE SMOOTH",
"300 680 OFFCURVE",
"215 642 OFFCURVE",
"152 579 CURVE SMOOTH",
"88 515 OFFCURVE",
"50 430 OFFCURVE",
"50 335 CURVE SMOOTH",
"50 231 OFFCURVE",
"92 144 OFFCURVE",
"158 84 CURVE SMOOTH",
"224 23 OFFCURVE",
"310 -12 OFFCURVE",
"398 -12 CURVE SMOOTH",
"443 -12 OFFCURVE",
"489 -3 OFFCURVE",
"532 16 CURVE",
"532 85 LINE",
"489 61 OFFCURVE",
"444 49 OFFCURVE",
"396 49 CURVE SMOOTH",
"244 49 OFFCURVE",
"112 169 OFFCURVE",
"112 335 CURVE SMOOTH",
"112 492 OFFCURVE",
"239 618 OFFCURVE",
"396 618 CURVE SMOOTH",
"545 618 OFFCURVE",
"668 504 OFFCURVE",
"668 366 CURVE SMOOTH",
"668 302 OFFCURVE",
"640 222 OFFCURVE",
"574 222 CURVE"
);
},
{
closed = 1;
nodes = (
"463 238 LINE",
"467 227 OFFCURVE",
"472 210 OFFCURVE",
"496 185 CURVE SMOOTH",
"515 166 OFFCURVE",
"542 155 OFFCURVE",
"574 155 CURVE",
"574 222 LINE",
"551 222 OFFCURVE",
"532 248 OFFCURVE",
"532 276 CURVE SMOOTH",
"532 493 LINE",
"463 493 LINE"
);
},
{
closed = 1;
nodes = (
"195 242 OFFCURVE",
"273 165 OFFCURVE",
"368 165 CURVE SMOOTH",
"414 165 OFFCURVE",
"454 204 OFFCURVE",
"468 235 CURVE",
"468 305 LINE",
"456 285 OFFCURVE",
"455 282 OFFCURVE",
"451 277 CURVE SMOOTH",
"378 185 OFFCURVE",
"311 252 OFFCURVE",
"276 246 CURVE",
"289 280 OFFCURVE",
"228 341 OFFCURVE",
"295 415 CURVE SMOOTH",
"351 477 OFFCURVE",
"417 451 OFFCURVE",
"468 431 CURVE",
"468 458 LINE",
"454 486 OFFCURVE",
"424 515 OFFCURVE",
"368 515 CURVE SMOOTH",
"271 515 OFFCURVE",
"195 436 OFFCURVE",
"195 337 CURVE SMOOTH"
);
}
);
userData = {
assembly = "NPUSHB[ ]	/* 22 values pushed */\01236 1 9 4 69 1 5 9 22 1 2 5 61 1 7 2 62 1 0 7 5 76 \012MPPEM[ ]	/* MeasurePixelPerEm */\012PUSHB[ ]	/* 1 value pushed */\01233 \012LT[ ]	/* LessThan */\012IF[ ]	/* If */\012NPUSHB[ ]	/* 43 values pushed */\01211 8 2 5 3 1 2 7 5 2 105 0 6 6 1 97 0 1 1 40 77 0 9 9 4 97 0 4 4 43 77 0 7 7 0 97 10 1 0 0 41 0 78 \012ELSE[ ]	/* Else */\012NPUSHB[ ]	/* 41 values pushed */\0120 4 0 9 5 4 9 105 11 8 2 5 3 1 2 7 5 2 105 0 6 6 1 97 0 1 1 40 77 0 7 7 0 97 10 1 0 0 41 0 78 \012EIF[ ]	/* EndIf */\012NPUSHB[ ]	/* 31 values pushed */\01266 65 1 0 73 71 65 78 66 78 60 58 50 48 41 39 34 32 26 24 20 18 11 9 0 64 1 64 12 8 22 \012CALL[ ]	/* CallFunction */";
};
width = 780;
},
{
associatedMasterId = "346FDC19-9F08-4641-B881-745A76183C31";
layerId = "541F4A62-0ECD-4B4B-B1D5-38FFB5FB401F";
name = "Extra Bold";
paths = (
{
closed = 1;
nodes = (
"605 149 LINE",
"707 149 OFFCURVE",
"763 249 OFFCURVE",
"763 380 CURVE SMOOTH",
"763 492 OFFCURVE",
"720 567 OFFCURVE",
"643 629 CURVE SMOOTH",
"576 683 OFFCURVE",
"491 714 OFFCURVE",
"407 714 CURVE SMOOTH",
"309 714 OFFCURVE",
"218 676 OFFCURVE",
"149 607 CURVE SMOOTH",
"79 537 OFFCURVE",
"41 446 OFFCURVE",
"41 349 CURVE SMOOTH",
"41 245 OFFCURVE",
"82 150 OFFCURVE",
"155 84 CURVE SMOOTH",
"228 18 OFFCURVE",
"318 -18 OFFCURVE",
"409 -18 CURVE SMOOTH",
"463 -18 OFFCURVE",
"515 -6 OFFCURVE",
"563 18 CURVE",
"563 116 LINE",
"513 80 OFFCURVE",
"462 73 OFFCURVE",
"407 73 CURVE SMOOTH",
"260 73 OFFCURVE",
"133 200 OFFCURVE",
"133 349 CURVE SMOOTH",
"133 495 OFFCURVE",
"261 622 OFFCURVE",
"407 622 CURVE SMOOTH",
"545 622 OFFCURVE",
"675 516 OFFCURVE",
"675 380 CURVE SMOOTH",
"675 286 OFFCURVE",
"659 238 OFFCURVE",
"605 238 CURVE"
);
},
{
closed = 1;
nodes = (
"605 238 LINE",
"575 238 OFFCURVE",
"565 270 OFFCURVE",
"565 290 CURVE SMOOTH",
"565 523 LINE",
"461 523 LINE",
"461 482 LINE",
"451 510 OFFCURVE",
"409 523 OFFCURVE",
"377 523 CURVE SMOOTH",
"276 523 OFFCURVE",
"215 457 OFFCURVE",
"215 346 CURVE SMOOTH",
"215 245 OFFCURVE",
"292 164 OFFCURVE",
"389 164 CURVE SMOOTH",
"423 164 OFFCURVE",
"458 180 OFFCURVE",
"485 206 CURVE",
"510 171 OFFCURVE",
"552 149 OFFCURVE",
"605 149 CURVE"
);
},
{
closed = 1;
nodes = (
"345 255 OFFCURVE",
"314 290 OFFCURVE",
"314 346 CURVE SMOOTH",
"314 403 OFFCURVE",
"343 436 OFFCURVE",
"389 436 CURVE SMOOTH",
"441 436 OFFCURVE",
"462 407 OFFCURVE",
"464 346 CURVE SMOOTH",
"466 293 OFFCURVE",
"436 255 OFFCURVE",
"389 255 CURVE SMOOTH"
);
}
);
width = 802;
}
);
note = at;
unicode = 0040;
},
{
glyphname = ampersand;
lastChange = "2021-12-05 16:43:21 +0000";
layers = (
{
layerId = "346FDC19-9F08-4641-B881-745A76183C31";
paths = (
{
closed = 1;
nodes = (
"271 464 OFFCURVE",
"219 517 OFFCURVE",
"219 574 CURVE SMOOTH",
"219 619 OFFCURVE",
"264 640 OFFCURVE",
"313 640 CURVE SMOOTH",
"362 640 OFFCURVE",
"403 620 OFFCURVE",
"403 565 CURVE SMOOTH",
"403 512 OFFCURVE",
"359 455 OFFCURVE",
"294 431 CURVE"
);
},
{
closed = 1;
nodes = (
"575 217 OFFCURVE",
"590 274 OFFCURVE",
"603 346 CURVE SMOOTH",
"607 366 OFFCURVE",
"614 387 OFFCURVE",
"624 403 CURVE SMOOTH",
"642 430 LINE",
"574 430 LINE SMOOTH",
"548 430 OFFCURVE",
"527 410 OFFCURVE",
"523 374 CURVE SMOOTH",
"515 303 OFFCURVE",
"507 270 OFFCURVE",
"481 219 CURVE",
"345 379 LINE",
"428 414 OFFCURVE",
"485 476 OFFCURVE",
"485 560 CURVE SMOOTH",
"485 656 OFFCURVE",
"411 714 OFFCURVE",
"311 714 CURVE SMOOTH",
"206 714 OFFCURVE",
"129 649 OFFCURVE",
"129 562 CURVE SMOOTH",
"129 510 OFFCURVE",
"158 454 OFFCURVE",
"203 403 CURVE",
"100 368 OFFCURVE",
"38 270 OFFCURVE",
"38 183 CURVE SMOOTH",
"38 30 OFFCURVE",
"152 -15 OFFCURVE",
"268 -15 CURVE SMOOTH",
"393 -15 OFFCURVE",
"431 26 OFFCURVE",
"488 87 CURVE",
"570 0 LINE",
"689 0 LINE",
"540 157 LINE"
);
},
{
closed = 1;
nodes = (
"127 265 OFFCURVE",
"179 324 OFFCURVE",
"253 350 CURVE",
"429 148 LINE",
"386 90 OFFCURVE",
"342 70 OFFCURVE",
"285 67 CURVE SMOOTH",
"227 59 OFFCURVE",
"166 75 OFFCURVE",
"133 65 CURVE",
"146 90 OFFCURVE",
"127 136 OFFCURVE",
"127 196 CURVE SMOOTH"
);
}
);
userData = {
assembly = "NPUSHB[ ]	/* 16 values pushed */\01234 20 7 3 2 4 51 50 31 28 21 5 5 2 2 76 \012MPPEM[ ]	/* MeasurePixelPerEm */\012PUSHB[ ]	/* 1 value pushed */\01221 \012LT[ ]	/* LessThan */\012IF[ ]	/* If */\012NPUSHB[ ]	/* 36 values pushed */\0120 4 4 1 97 0 1 1 40 77 0 2 2 0 97 3 6 2 0 0 41 77 7 1 5 5 0 97 3 6 2 0 0 41 0 78 \012ELSE[ ]	/* Else */\012NPUSHB[ ]	/* 33 values pushed */\0120 4 4 1 97 0 1 1 40 77 0 2 2 3 95 0 3 3 35 77 7 1 5 5 0 97 6 1 0 0 41 0 78 \012EIF[ ]	/* EndIf */\012NPUSHB[ ]	/* 23 values pushed */\01248 47 1 0 47 57 48 57 41 39 30 29 25 24 14 12 0 33 1 33 8 8 22 \012CALL[ ]	/* CallFunction */";
};
width = 699;
},
{
associatedMasterId = "346FDC19-9F08-4641-B881-745A76183C31";
layerId = "541F4A62-0ECD-4B4B-B1D5-38FFB5FB401F";
name = "Extra Bold";
paths = (
{
closed = 1;
nodes = (
"380 -15 OFFCURVE",
"460 14 OFFCURVE",
"520 63 CURVE",
"576 0 LINE",
"736 0 LINE",
"595 150 LINE",
"642 205 OFFCURVE",
"682 293 OFFCURVE",
"688 350 CURVE",
"556 350 LINE",
"538 289 OFFCURVE",
"522 264 OFFCURVE",
"508 244 CURVE",
"408 362 LINE",
"502 413 OFFCURVE",
"552 478 OFFCURVE",
"552 550 CURVE SMOOTH",
"552 649 OFFCURVE",
"471 714 OFFCURVE",
"348 714 CURVE SMOOTH",
"220 714 OFFCURVE",
"126 646 OFFCURVE",
"126 552 CURVE SMOOTH",
"126 505 OFFCURVE",
"155 453 OFFCURVE",
"209 400 CURVE",
"89 340 OFFCURVE",
"49 289 OFFCURVE",
"49 203 CURVE SMOOTH",
"49 123 OFFCURVE",
"72 60 OFFCURVE",
"156 16 CURVE SMOOTH",
"193 -3 OFFCURVE",
"246 -15 OFFCURVE",
"294 -15 CURVE SMOOTH"
);
},
{
closed = 1;
nodes = (
"317 472 OFFCURVE",
"286 511 OFFCURVE",
"286 554 CURVE SMOOTH",
"286 586 OFFCURVE",
"314 614 OFFCURVE",
"350 614 CURVE SMOOTH",
"385 614 OFFCURVE",
"410 585 OFFCURVE",
"410 545 CURVE SMOOTH",
"410 505 OFFCURVE",
"374 469 OFFCURVE",
"340 448 CURVE"
);
},
{
closed = 1;
nodes = (
"240 107 OFFCURVE",
"199 155 OFFCURVE",
"199 207 CURVE SMOOTH",
"199 266 OFFCURVE",
"242 285 OFFCURVE",
"292 309 CURVE",
"430 157 LINE",
"386 116 OFFCURVE",
"351 107 OFFCURVE",
"294 107 CURVE"
);
}
);
width = 750;
}
);
note = ampersand;
unicode = 0026;
},
{
glyphname = paragraph;
lastChange = "2021-12-05 16:43:21 +0000";
layers = (
{
layerId = "346FDC19-9F08-4641-B881-745A76183C31";
paths = (
{
closed = 1;
nodes = (
"268 -161 LINE",
"268 633 LINE",
"362 633 LINE",
"362 -161 LINE",
"443 -161 LINE",
"443 633 LINE",
"483 633 LINE",
"483 700 LINE",
"227 700 LINE SMOOTH",
"158 700 OFFCURVE",
"98 663 OFFCURVE",
"64 606 CURVE SMOOTH",
"47 577 OFFCURVE",
"38 546 OFFCURVE",
"38 511 CURVE SMOOTH",
"38 451 OFFCURVE",
"66 397 OFFCURVE",
"111 362 CURVE SMOOTH",
"134 344 OFFCURVE",
"159 321 OFFCURVE",
"187 294 CURVE",
"187 -161 LINE"
);
}
);
userData = {
assembly = "NPUSHB[ ]	/* 38 values pushed */\0121 1 2 1 1 76 3 1 1 1 0 95 0 0 0 34 77 5 4 2 2 2 39 2 78 0 0 0 17 0 17 17 17 17 40 6 8 26 \012CALL[ ]	/* CallFunction */";
};
width = 508;
},
{
associatedMasterId = "346FDC19-9F08-4641-B881-745A76183C31";
layerId = "541F4A62-0ECD-4B4B-B1D5-38FFB5FB401F";
name = "Extra Bold";
paths = (
{
closed = 1;
nodes = (
"274 -161 LINE",
"274 633 LINE",
"358 633 LINE",
"358 -161 LINE",
"449 -161 LINE",
"449 633 LINE",
"489 633 LINE",
"489 700 LINE",
"228 700 LINE SMOOTH",
"156 700 OFFCURVE",
"94 661 OFFCURVE",
"61 606 CURVE SMOOTH",
"42 575 OFFCURVE",
"34 545 OFFCURVE",
"34 511 CURVE SMOOTH",
"34 453 OFFCURVE",
"60 400 OFFCURVE",
"109 362 CURVE SMOOTH",
"127 348 OFFCURVE",
"151 327 OFFCURVE",
"183 295 CURVE",
"183 -161 LINE"
);
}
);
width = 600;
}
);
note = paragraph;
unicode = 00B6;
},
{
glyphname = copyright;
lastChange = "2021-12-05 16:43:21 +0000";
layers = (
{
layerId = "346FDC19-9F08-4641-B881-745A76183C31";
paths = (
{
closed = 1;
nodes = (
"513 -14 OFFCURVE",
"605 24 OFFCURVE",
"673 94 CURVE SMOOTH",
"742 161 OFFCURVE",
"780 254 OFFCURVE",
"780 349 CURVE SMOOTH",
"780 448 OFFCURVE",
"742 539 OFFCURVE",
"673 610 CURVE SMOOTH",
"607 679 OFFCURVE",
"514 715 OFFCURVE",
"416 715 CURVE SMOOTH",
"318 715 OFFCURVE",
"228 678 OFFCURVE",
"157 610 CURVE SMOOTH",
"87 541 OFFCURVE",
"51 448 OFFCURVE",
"51 349 CURVE SMOOTH",
"51 253 OFFCURVE",
"89 161 OFFCURVE",
"157 94 CURVE SMOOTH",
"229 22 OFFCURVE",
"319 -14 OFFCURVE",
"416 -14 CURVE SMOOTH"
);
},
{
closed = 1;
nodes = (
"256 59 OFFCURVE",
"125 189 OFFCURVE",
"125 349 CURVE SMOOTH",
"125 510 OFFCURVE",
"256 642 OFFCURVE",
"416 642 CURVE SMOOTH",
"577 642 OFFCURVE",
"706 511 OFFCURVE",
"706 349 CURVE SMOOTH",
"706 189 OFFCURVE",
"576 59 OFFCURVE",
"416 59 CURVE SMOOTH"
);
},
{
closed = 1;
nodes = (
"503 220 OFFCURVE",
"471 197 OFFCURVE",
"431 197 CURVE SMOOTH",
"388 197 OFFCURVE",
"341 231 OFFCURVE",
"300 227 CURVE",
"303 280 OFFCURVE",
"269 381 OFFCURVE",
"320 455 CURVE SMOOTH",
"340 484 OFFCURVE",
"389 505 OFFCURVE",
"436 504 CURVE SMOOTH",
"487 503 OFFCURVE",
"521 478 OFFCURVE",
"515 444 CURVE",
"615 497 OFFCURVE",
"559 583 OFFCURVE",
"436 583 CURVE SMOOTH",
"434 583 LINE SMOOTH",
"305 583 OFFCURVE",
"213 485 OFFCURVE",
"213 351 CURVE SMOOTH",
"213 219 OFFCURVE",
"303 119 OFFCURVE",
"423 119 CURVE SMOOTH",
"501 119 OFFCURVE",
"555 155 OFFCURVE",
"597 230 CURVE",
"528 264 LINE"
);
}
);
userData = {
assembly = "PUSHB[ ]	/* 2 values pushed */\0126 100 \012WCVTP[ ]	/* WriteCVTInPixels */\012NPUSHB[ ]	/* 84 values pushed */\01262 61 50 49 4 7 6 1 76 0 1 0 3 5 1 3 105 0 5 0 6 7 5 6 105 0 7 10 1 4 2 7 4 105 9 1 2 0 0 2 89 9 1 2 2 0 97 8 1 0 2 0 81 41 40 21 20 1 0 59 57 53 51 47 45 40 64 41 64 31 29 20 39 21 39 11 9 0 19 1 19 11 8 22 \012CALL[ ]	/* CallFunction */\012PUSHB[ ]	/* 2 values pushed */\0126 0 \012WCVTP[ ]	/* WriteCVTInPixels */";
};
width = 833;
},
{
associatedMasterId = "346FDC19-9F08-4641-B881-745A76183C31";
layerId = "541F4A62-0ECD-4B4B-B1D5-38FFB5FB401F";
name = "Extra Bold";
paths = (
{
closed = 1;
nodes = (
"363 235 OFFCURVE",
"328 278 OFFCURVE",
"328 349 CURVE SMOOTH",
"328 423 OFFCURVE",
"361 464 OFFCURVE",
"420 464 CURVE SMOOTH",
"463 464 OFFCURVE",
"481 452 OFFCURVE",
"506 410 CURVE",
"607 447 LINE",
"572 522 OFFCURVE",
"501 569 OFFCURVE",
"420 569 CURVE SMOOTH",
"304 569 OFFCURVE",
"214 473 OFFCURVE",
"213 349 CURVE SMOOTH",
"212 224 OFFCURVE",
"301 130 OFFCURVE",
"420 130 CURVE SMOOTH",
"495 130 OFFCURVE",
"569 178 OFFCURVE",
"609 251 CURVE",
"506 287 LINE",
"488 252 OFFCURVE",
"461 235 OFFCURVE",
"420 235 CURVE SMOOTH"
);
},
{
closed = 1;
nodes = (
"514 -14 OFFCURVE",
"606 24 OFFCURVE",
"674 94 CURVE SMOOTH",
"743 161 OFFCURVE",
"781 254 OFFCURVE",
"781 349 CURVE SMOOTH",
"781 448 OFFCURVE",
"743 539 OFFCURVE",
"674 610 CURVE SMOOTH",
"608 679 OFFCURVE",
"515 715 OFFCURVE",
"417 715 CURVE SMOOTH",
"319 715 OFFCURVE",
"229 678 OFFCURVE",
"158 610 CURVE SMOOTH",
"88 541 OFFCURVE",
"52 448 OFFCURVE",
"52 349 CURVE SMOOTH",
"52 253 OFFCURVE",
"90 161 OFFCURVE",
"158 94 CURVE SMOOTH",
"230 22 OFFCURVE",
"320 -14 OFFCURVE",
"417 -14 CURVE SMOOTH"
);
},
{
closed = 1;
nodes = (
"257 59 OFFCURVE",
"126 189 OFFCURVE",
"126 349 CURVE SMOOTH",
"126 510 OFFCURVE",
"257 642 OFFCURVE",
"417 642 CURVE SMOOTH",
"578 642 OFFCURVE",
"707 511 OFFCURVE",
"707 349 CURVE SMOOTH",
"707 189 OFFCURVE",
"577 59 OFFCURVE",
"417 59 CURVE SMOOTH"
);
}
);
width = 835;
}
);
note = copyright;
unicode = 00A9;
},
{
glyphname = registered;
lastChange = "2021-12-05 16:43:21 +0000";
layers = (
{
layerId = "346FDC19-9F08-4641-B881-745A76183C31";
paths = (
{
closed = 1;
nodes = (
"514 -14 OFFCURVE",
"605 24 OFFCURVE",
"674 93 CURVE SMOOTH",
"742 161 OFFCURVE",
"780 253 OFFCURVE",
"780 348 CURVE SMOOTH",
"780 447 OFFCURVE",
"742 538 OFFCURVE",
"674 608 CURVE SMOOTH",
"607 677 OFFCURVE",
"515 713 OFFCURVE",
"417 713 CURVE SMOOTH",
"319 713 OFFCURVE",
"229 676 OFFCURVE",
"159 608 CURVE SMOOTH",
"89 540 OFFCURVE",
"53 447 OFFCURVE",
"53 348 CURVE SMOOTH",
"53 252 OFFCURVE",
"91 161 OFFCURVE",
"159 93 CURVE SMOOTH",
"230 22 OFFCURVE",
"320 -14 OFFCURVE",
"417 -14 CURVE SMOOTH"
);
},
{
closed = 1;
nodes = (
"257 59 OFFCURVE",
"127 189 OFFCURVE",
"127 348 CURVE SMOOTH",
"127 509 OFFCURVE",
"257 640 OFFCURVE",
"417 640 CURVE SMOOTH",
"577 640 OFFCURVE",
"706 510 OFFCURVE",
"706 348 CURVE SMOOTH",
"706 189 OFFCURVE",
"576 59 OFFCURVE",
"417 59 CURVE SMOOTH"
);
},
{
closed = 1;
nodes = (
"570 183 OFFCURVE",
"564 197 OFFCURVE",
"564 210 CURVE SMOOTH",
"564 289 LINE SMOOTH",
"564 312 OFFCURVE",
"539 333 OFFCURVE",
"502 342 CURVE",
"549 358 OFFCURVE",
"567 381 OFFCURVE",
"567 424 CURVE SMOOTH",
"567 463 OFFCURVE",
"563 482 OFFCURVE",
"552 502 CURVE SMOOTH",
"541 522 OFFCURVE",
"509 541 OFFCURVE",
"473 549 CURVE SMOOTH",
"416 562 OFFCURVE",
"394 550 OFFCURVE",
"346 515 CURVE",
"353 540 LINE",
"306 540 LINE SMOOTH",
"279 540 OFFCURVE",
"260 529 OFFCURVE",
"260 512 CURVE SMOOTH",
"260 168 LINE",
"340 168 LINE",
"340 313 LINE",
"457 313 LINE SMOOTH",
"463 313 OFFCURVE",
"475 289 OFFCURVE",
"475 273 CURVE SMOOTH",
"475 197 LINE SMOOTH",
"475 180 OFFCURVE",
"494 168 OFFCURVE",
"520 168 CURVE SMOOTH",
"579 168 LINE",
"570 182 LINE"
);
},
{
closed = 1;
nodes = (
"340 367 LINE",
"340 455 LINE",
"369 478 OFFCURVE",
"394 495 OFFCURVE",
"420 495 CURVE SMOOTH",
"447 495 OFFCURVE",
"464 473 OFFCURVE",
"491 462 CURVE",
"491 424 LINE SMOOTH",
"491 382 OFFCURVE",
"455 367 OFFCURVE",
"409 367 CURVE SMOOTH"
);
}
);
userData = {
assembly = "PUSHB[ ]	/* 2 values pushed */\0126 100 \012WCVTP[ ]	/* WriteCVTInPixels */\012NPUSHB[ ]	/* 94 values pushed */\01250 1 6 8 1 76 12 7 2 5 6 2 6 5 2 128 0 1 0 3 4 1 3 105 0 4 0 9 8 4 9 105 0 8 0 6 5 8 6 103 11 1 2 0 0 2 89 11 1 2 2 0 97 10 1 0 2 0 81 40 40 21 20 1 0 64 62 58 56 40 55 40 55 54 53 52 51 43 41 31 29 20 39 21 39 11 9 0 19 1 19 13 8 22 \012CALL[ ]	/* CallFunction */\012PUSHB[ ]	/* 2 values pushed */\0126 0 \012WCVTP[ ]	/* WriteCVTInPixels */";
};
width = 833;
},
{
associatedMasterId = "346FDC19-9F08-4641-B881-745A76183C31";
layerId = "541F4A62-0ECD-4B4B-B1D5-38FFB5FB401F";
name = "Extra Bold";
paths = (
{
closed = 1;
nodes = (
"369 465 LINE",
"410 465 LINE SMOOTH",
"470 465 OFFCURVE",
"487 455 OFFCURVE",
"487 423 CURVE SMOOTH",
"487 390 OFFCURVE",
"470 380 OFFCURVE",
"411 380 CURVE SMOOTH",
"369 380 LINE"
);
},
{
closed = 1;
nodes = (
"594 168 LINE",
"492 312 LINE",
"548 332 OFFCURVE",
"577 371 OFFCURVE",
"577 424 CURVE SMOOTH",
"577 508 OFFCURVE",
"524 546 OFFCURVE",
"410 546 CURVE SMOOTH",
"279 546 LINE",
"279 168 LINE",
"374 168 LINE",
"376 300 LINE",
"388 300 LINE",
"482 168 LINE"
);
},
{
closed = 1;
nodes = (
"518 -24 OFFCURVE",
"611 15 OFFCURVE",
"682 86 CURVE SMOOTH",
"752 156 OFFCURVE",
"791 250 OFFCURVE",
"791 348 CURVE SMOOTH",
"791 449 OFFCURVE",
"753 542 OFFCURVE",
"682 615 CURVE SMOOTH",
"614 684 OFFCURVE",
"521 723 OFFCURVE",
"418 723 CURVE SMOOTH",
"318 723 OFFCURVE",
"225 685 OFFCURVE",
"153 615 CURVE SMOOTH",
"83 547 OFFCURVE",
"44 452 OFFCURVE",
"44 348 CURVE SMOOTH",
"44 250 OFFCURVE",
"83 156 OFFCURVE",
"153 86 CURVE SMOOTH",
"225 14 OFFCURVE",
"317 -24 OFFCURVE",
"418 -24 CURVE SMOOTH"
);
},
{
closed = 1;
nodes = (
"264 69 OFFCURVE",
"138 194 OFFCURVE",
"138 348 CURVE SMOOTH",
"138 504 OFFCURVE",
"264 630 OFFCURVE",
"418 630 CURVE SMOOTH",
"573 630 OFFCURVE",
"697 504 OFFCURVE",
"697 348 CURVE SMOOTH",
"697 194 OFFCURVE",
"572 69 OFFCURVE",
"418 69 CURVE SMOOTH"
);
}
);
width = 600;
}
);
note = registered;
unicode = 00AE;
},
{
glyphname = trademark;
lastChange = "2021-12-05 16:43:21 +0000";
layers = (
{
components = (
{
name = stem.up;
transform = "{0.53627, 0, 0, 0.53627, 151, 325}";
},
{
name = stem.up;
transform = "{0.53627, 0, 0, 0.53627, 375, 325}";
},
{
name = stem.up;
transform = "{0.53627, 0, 0, -0.53627, 688, 700}";
}
);
layerId = "346FDC19-9F08-4641-B881-745A76183C31";
paths = (
{
closed = 1;
nodes = (
"89 700 LINE SMOOTH",
"65 700 OFFCURVE",
"53 676 OFFCURVE",
"53 655 CURVE",
"324 655 LINE SMOOTH",
"347 655 OFFCURVE",
"359 679 OFFCURVE",
"359 700 CURVE"
);
},
{
closed = 1;
nodes = (
"444 658 LINE",
"562 325 LINE",
"611 325 LINE",
"728 658 LINE",
"718 700 LINE",
"705 700 OFFCURVE",
"692 684 OFFCURVE",
"684 662 CURVE SMOOTH",
"586 385 LINE",
"474 700 LINE",
"444 700 LINE"
);
}
);
userData = {
assembly = "NPUSHB[ ]	/* 64 values pushed */\01211 8 3 3 2 5 1 76 10 8 9 4 3 5 2 5 2 134 6 1 2 0 5 5 0 87 6 1 2 0 0 5 95 7 1 5 0 5 79 13 13 0 0 13 20 13 20 19 18 17 16 15 14 0 12 0 12 18 17 18 17 11 6 26 \012CALL[ ]	/* CallFunction */";
};
width = 838;
},
{
associatedMasterId = "346FDC19-9F08-4641-B881-745A76183C31";
layerId = "541F4A62-0ECD-4B4B-B1D5-38FFB5FB401F";
name = "Extra Bold";
paths = (
{
closed = 1;
nodes = (
"491 304 LINE",
"491 584 LINE",
"582 304 LINE",
"648 304 LINE",
"739 584 LINE",
"739 304 LINE",
"826 304 LINE",
"826 700 LINE",
"701 700 LINE",
"615 408 LINE",
"529 700 LINE",
"404 700 LINE",
"404 304 LINE"
);
},
{
closed = 1;
nodes = (
"260 304 LINE",
"260 629 LINE",
"379 629 LINE",
"379 700 LINE",
"53 700 LINE",
"53 629 LINE",
"172 629 LINE",
"172 304 LINE"
);
}
);
width = 879;
}
);
note = trademark;
unicode = 2122;
},
{
glyphname = degree;
lastChange = "2021-12-05 16:43:21 +0000";
layers = (
{
layerId = "346FDC19-9F08-4641-B881-745A76183C31";
paths = (
{
closed = 1;
nodes = (
"251 443 OFFCURVE",
"312 505 OFFCURVE",
"312 579 CURVE SMOOTH",
"312 654 OFFCURVE",
"251 715 OFFCURVE",
"176 715 CURVE SMOOTH",
"102 715 OFFCURVE",
"40 654 OFFCURVE",
"40 579 CURVE SMOOTH",
"40 505 OFFCURVE",
"102 443 OFFCURVE",
"176 443 CURVE SMOOTH"
);
},
{
closed = 1;
nodes = (
"136 506 OFFCURVE",
"103 539 OFFCURVE",
"103 579 CURVE SMOOTH",
"103 620 OFFCURVE",
"136 652 OFFCURVE",
"176 652 CURVE SMOOTH",
"217 652 OFFCURVE",
"249 620 OFFCURVE",
"249 579 CURVE SMOOTH",
"249 539 OFFCURVE",
"217 506 OFFCURVE",
"176 506 CURVE SMOOTH"
);
}
);
userData = {
assembly = "PUSHB[ ]	/* 2 values pushed */\0126 100 \012WCVTP[ ]	/* WriteCVTInPixels */\012NPUSHB[ ]	/* 46 values pushed */\0120 1 0 3 2 1 3 105 5 1 2 0 0 2 89 5 1 2 2 0 97 4 1 0 2 0 81 17 16 1 0 23 21 16 27 17 27 9 7 0 15 1 15 6 8 22 \012CALL[ ]	/* CallFunction */\012PUSHB[ ]	/* 2 values pushed */\0126 0 \012WCVTP[ ]	/* WriteCVTInPixels */";
};
width = 352;
},
{
associatedMasterId = "346FDC19-9F08-4641-B881-745A76183C31";
layerId = "541F4A62-0ECD-4B4B-B1D5-38FFB5FB401F";
name = "Extra Bold";
paths = (
{
closed = 1;
nodes = (
"267 423 OFFCURVE",
"333 489 OFFCURVE",
"333 569 CURVE SMOOTH",
"333 649 OFFCURVE",
"267 715 OFFCURVE",
"187 715 CURVE SMOOTH",
"107 715 OFFCURVE",
"41 649 OFFCURVE",
"41 569 CURVE SMOOTH",
"41 490 OFFCURVE",
"108 423 OFFCURVE",
"187 423 CURVE SMOOTH"
);
},
{
closed = 1;
nodes = (
"155 511 OFFCURVE",
"129 537 OFFCURVE",
"129 569 CURVE SMOOTH",
"129 601 OFFCURVE",
"155 627 OFFCURVE",
"187 627 CURVE SMOOTH",
"220 627 OFFCURVE",
"245 602 OFFCURVE",
"245 569 CURVE SMOOTH",
"245 537 OFFCURVE",
"219 511 OFFCURVE",
"187 511 CURVE SMOOTH"
);
}
);
width = 374;
}
);
note = degree;
unicode = 00B0;
},
{
glyphname = bar;
lastChange = "2021-12-05 16:43:21 +0000";
layers = (
{
layerId = "346FDC19-9F08-4641-B881-745A76183C31";
paths = (
{
closed = 1;
nodes = (
"157 -161 LINE",
"157 700 LINE",
"76 700 LINE",
"76 -161 LINE"
);
}
);
userData = {
assembly = "NPUSHB[ ]	/* 22 values pushed */\0120 0 0 34 77 2 1 1 1 39 1 78 0 0 0 3 0 3 17 3 8 23 \012CALL[ ]	/* CallFunction */";
};
width = 233;
},
{
associatedMasterId = "346FDC19-9F08-4641-B881-745A76183C31";
layerId = "541F4A62-0ECD-4B4B-B1D5-38FFB5FB401F";
name = "Extra Bold";
paths = (
{
closed = 1;
nodes = (
"188 -161 LINE",
"188 700 LINE",
"47 700 LINE",
"47 -161 LINE"
);
}
);
width = 600;
}
);
note = bar;
unicode = 007C;
},
{
glyphname = dotaccent;
lastChange = "2021-12-03 08:14:01 +0000";
layers = (
{
layerId = "346FDC19-9F08-4641-B881-745A76183C31";
paths = (
{
closed = 1;
nodes = (
"141 573 OFFCURVE",
"169 601 OFFCURVE",
"169 637 CURVE SMOOTH",
"169 668 OFFCURVE",
"131 699 OFFCURVE",
"108 715 CURVE",
"86 699 OFFCURVE",
"48 668 OFFCURVE",
"48 637 CURVE SMOOTH",
"48 601 OFFCURVE",
"76 573 OFFCURVE",
"108 573 CURVE SMOOTH"
);
}
);
width = 216;
}
);
unicode = 02D9;
},
{
glyphname = stem.low;
lastChange = "2021-11-28 08:54:18 +0000";
layers = (
{
layerId = "346FDC19-9F08-4641-B881-745A76183C31";
paths = (
{
closed = 1;
nodes = (
"111 500 LINE SMOOTH",
"85 500 OFFCURVE",
"65 480 OFFCURVE",
"65 444 CURVE SMOOTH",
"65 0 LINE",
"150 0 LINE",
"150 418 LINE SMOOTH",
"150 438 OFFCURVE",
"157 457 OFFCURVE",
"166 473 CURVE SMOOTH",
"181 500 LINE"
);
}
);
width = 184;
}
);
},
{
glyphname = shoulder.low;
lastChange = "2021-11-30 06:51:30 +0000";
layers = (
{
layerId = "346FDC19-9F08-4641-B881-745A76183C31";
paths = (
{
closed = 1;
nodes = (
"341 43 OFFCURVE",
"336 62 OFFCURVE",
"336 82 CURVE SMOOTH",
"336 314 LINE SMOOTH",
"336 428 OFFCURVE",
"306 515 OFFCURVE",
"195 515 CURVE SMOOTH",
"86 515 OFFCURVE",
"31 445 OFFCURVE",
"0 397 CURVE",
"0 271 LINE",
"0 338 OFFCURVE",
"95 434 OFFCURVE",
"162 434 CURVE SMOOTH",
"255 434 OFFCURVE",
"251 371 OFFCURVE",
"251 289 CURVE SMOOTH",
"251 56 LINE SMOOTH",
"251 21 OFFCURVE",
"271 0 OFFCURVE",
"297 0 CURVE SMOOTH",
"370 0 LINE",
"352 27 LINE SMOOTH"
);
}
);
width = 360;
}
);
},
{
glyphname = stem.low2;
lastChange = "2021-11-29 12:21:31 +0000";
layers = (
{
layerId = "346FDC19-9F08-4641-B881-745A76183C31";
paths = (
{
closed = 1;
nodes = (
"111 700 LINE SMOOTH",
"85 700 OFFCURVE",
"65 680 OFFCURVE",
"65 644 CURVE SMOOTH",
"65 0 LINE",
"150 0 LINE",
"150 618 LINE SMOOTH",
"150 638 OFFCURVE",
"157 657 OFFCURVE",
"166 673 CURVE SMOOTH",
"181 700 LINE"
);
}
);
width = 181;
}
);
},
{
glyphname = stem.up;
lastChange = "2021-11-30 19:51:34 +0000";
layers = (
{
layerId = "346FDC19-9F08-4641-B881-745A76183C31";
paths = (
{
closed = 1;
nodes = (
"101 700 LINE SMOOTH",
"75 700 OFFCURVE",
"55 680 OFFCURVE",
"55 644 CURVE SMOOTH",
"55 0 LINE",
"150 0 LINE",
"150 618 LINE SMOOTH",
"150 638 OFFCURVE",
"157 657 OFFCURVE",
"166 673 CURVE SMOOTH",
"181 700 LINE"
);
}
